<svg width="110" height="27" viewBox="0 0 110 27" fill="none" xmlns="http://www.w3.org/2000/svg">
<path d="M52.569 16.8743C52.7411 16.3901 52.9071 15.9258 53.0712 15.4615C53.6618 13.7894 54.2524 12.1174 54.8416 10.4447C54.8733 10.3541 54.897 10.2886 55.0259 10.2892C56.3988 10.2952 57.7723 10.2926 59.1459 10.2932C59.1688 10.2932 59.1911 10.2965 59.2303 10.2992C59.0723 10.7509 58.9178 11.196 58.7612 11.6399C57.445 15.3702 56.1281 19.0999 54.8153 22.831C54.7741 22.948 54.7228 22.9844 54.5966 22.9844C53.4593 22.9791 52.3219 22.9791 51.1839 22.9844C51.0523 22.9851 50.9774 22.9494 50.9032 22.8376C49.5087 20.7455 48.1094 18.6568 46.7102 16.5674C46.6792 16.5211 46.6454 16.4761 46.5948 16.406C46.4254 16.8849 46.2647 17.3379 46.1048 17.791C45.5122 19.4683 44.9202 21.1463 44.3283 22.8237C44.2986 22.9084 44.2837 22.9851 44.1474 22.9844C42.7684 22.9778 41.3894 22.9804 40.0098 22.9798C39.9821 22.9798 39.9538 22.9765 39.9126 22.9732C40.163 22.2635 40.4101 21.5644 40.6564 20.8646C41.8801 17.3948 43.1052 13.9257 44.3242 10.4546C44.3674 10.3309 44.418 10.2879 44.5537 10.2886C45.7032 10.2945 46.852 10.2945 48.0014 10.2886C48.1256 10.2879 48.1898 10.3322 48.2532 10.4275C49.6457 12.5136 51.0415 14.5977 52.4367 16.6825C52.4772 16.7407 52.5163 16.7976 52.569 16.8743Z" fill="#5EEDBE"/>
<path d="M65.4946 10.2925C65.3313 10.7569 65.1733 11.2066 65.0147 11.6557C64.2587 13.7947 63.5034 15.9337 62.7468 18.0727C62.6638 18.3069 62.603 18.547 62.5612 18.791C62.5038 19.1257 62.657 19.3909 62.977 19.5259C63.3394 19.6787 63.7255 19.6747 64.1062 19.676C65.037 19.678 65.9691 19.7051 66.8992 19.6582C67.4696 19.6291 68.0069 19.4941 68.3983 19.0384C68.6258 18.7738 68.7608 18.4603 68.8742 18.1396C69.7793 15.5832 70.6811 13.0255 71.5788 10.4665C71.6267 10.3289 71.6915 10.2879 71.838 10.2886C73.1582 10.2945 74.4785 10.2952 75.7987 10.2886C75.9695 10.2879 75.9742 10.3302 75.9249 10.4691C74.874 13.4323 73.8339 16.3987 72.7762 19.3592C72.3867 20.4485 71.7496 21.3758 70.7533 22.0326C70.0264 22.5122 69.209 22.7509 68.3511 22.8759C67.749 22.9632 67.1429 22.9818 66.5354 22.9804C64.8379 22.9785 63.1403 22.9818 61.4434 22.9791C60.6409 22.9778 59.8417 22.9388 59.0743 22.6742C58.0348 22.3164 57.5738 21.571 57.6845 20.4935C57.7574 19.7785 58.0173 19.1204 58.2522 18.4531C59.1897 15.7922 60.1326 13.1327 61.0682 10.4711C61.1154 10.3362 61.1728 10.2872 61.3246 10.2879C62.651 10.2945 63.9766 10.2919 65.3029 10.2919C65.3596 10.2925 65.4177 10.2925 65.4946 10.2925Z" fill="#5EEDBE"/>
<path d="M40.8711 14.9357C40.5788 15.7558 40.2933 16.5581 40.0078 17.3597C39.9207 17.6038 39.8221 17.8445 39.7492 18.0926C39.7108 18.2235 39.65 18.2573 39.5171 18.2573C37.808 18.2526 36.0983 18.2546 34.3893 18.2546C33.4167 18.2546 32.444 18.2546 31.4721 18.2546C31.4086 18.2546 31.3452 18.2546 31.2588 18.2546C31.4134 17.8221 31.5612 17.4113 31.707 17.0006C31.9365 16.355 32.1666 15.7095 32.3927 15.0626C32.4251 14.97 32.4636 14.9264 32.5763 14.9264C35.3174 14.9304 38.0578 14.9297 40.7988 14.9297C40.8157 14.9297 40.8333 14.9323 40.8711 14.9357Z" fill="#5EEDBE"/>
<path d="M16.8851 10.5955C16.1224 10.3322 15.3279 10.2965 14.5321 10.2952C11.2376 10.2899 7.94306 10.2939 4.64852 10.2899C4.51623 10.2899 4.46021 10.3223 4.41498 10.4506C3.30331 13.6175 2.18488 16.783 1.06848 19.9485C0.714119 20.9519 0.361109 21.9559 0 22.9811C0.0884212 22.9811 0.153218 22.9811 0.218016 22.9811C3.4356 22.9811 6.65386 22.9805 9.87145 22.9818C10.4789 22.9818 11.085 22.9646 11.6871 22.8773C12.5693 22.749 13.4069 22.5003 14.1481 21.9963C15.1288 21.3289 15.7437 20.3963 16.1325 19.3142C16.6704 17.8188 17.1915 16.3174 17.7133 14.8166C17.9454 14.1486 18.208 13.4905 18.2802 12.7755C18.3882 11.7053 17.9205 10.9527 16.8851 10.5955ZM13.4319 14.4879C13.357 15.0534 13.1187 15.57 12.9365 16.1031C12.7016 16.7896 12.4552 17.4722 12.2062 18.1535C12.0732 18.5166 11.9207 18.8711 11.6291 19.1496C11.2362 19.5252 10.7401 19.6291 10.2224 19.6588C9.46917 19.7018 8.71387 19.6707 8.0848 19.6787C7.20464 19.6787 6.45002 19.6741 5.69608 19.682C5.53476 19.684 5.53409 19.6416 5.58066 19.512C6.26238 17.5906 6.93938 15.6679 7.6157 13.7451C7.64877 13.6506 7.68252 13.5963 7.80604 13.597C9.26803 13.6043 10.7293 13.6023 12.1913 13.6062C12.4633 13.6069 12.732 13.6373 12.9878 13.7352C13.328 13.8662 13.4792 14.1341 13.4319 14.4879Z" fill="#5EEDBE"/>
<path d="M28.9858 13.7418C28.8171 13.6982 28.6422 13.6611 28.4681 13.6525C26.4823 13.5547 24.4925 13.5084 22.5108 13.6684C20.8241 13.8053 19.6739 14.7121 19.1076 16.2916C18.8214 17.0906 18.5406 17.8915 18.2659 18.6938C18.0331 19.3744 17.7421 20.0372 17.5855 20.7409C17.3216 21.9255 17.7772 22.5975 18.9908 22.8336C19.1414 22.8627 19.2932 22.8859 19.4458 22.9004C20.3995 22.9897 21.3553 22.9262 22.3103 22.9507C23.287 22.9282 24.2657 22.991 25.2404 22.8859C26.9001 22.706 28.0429 21.8686 28.624 20.3236C28.7752 19.9214 28.9163 19.5153 29.056 19.1092C29.4259 18.0324 29.8349 16.9669 30.1495 15.8749C30.4788 14.732 30.0543 14.019 28.9858 13.7418ZM26.0558 17.2367C25.8317 17.9319 25.5772 18.6178 25.3288 19.3056C25.1479 19.8063 24.7537 20.0239 24.2347 20.0451C23.91 20.0583 23.584 20.0478 23.2587 20.0478C22.9333 20.0478 22.6073 20.0597 22.2827 20.0451C21.7299 20.0193 21.5524 19.8037 21.7157 19.299C21.9479 18.5794 22.2172 17.8717 22.4757 17.1607C22.6505 16.6798 23.0474 16.4966 23.5246 16.4807C24.1834 16.4589 24.8435 16.4609 25.5023 16.4794C26.0463 16.4933 26.2198 16.7275 26.0558 17.2367Z" fill="#5EEDBE"/>
<path d="M78.3567 10.0007C78.2541 9.99669 78.1583 10.0212 78.1076 10.166C77.7438 11.2091 77.38 12.2521 77 13.3388C78.7542 13.3388 80.4586 13.3388 82.202 13.3388C81.0998 16.4686 80.0124 19.5574 78.9027 22.7097C80.2581 22.7097 81.5527 22.6978 82.8473 22.7183C83.1706 22.7236 83.3015 22.6244 83.4048 22.3261C84.3923 19.4767 85.4061 16.636 86.3902 13.7859L87.7219 10L78.3567 10.0007Z" fill="#5EEDBE"/>
<path d="M106.627 2.0037C106.62 1.95807 106.63 1.89325 106.57 1.87671C106.507 1.85951 106.477 1.92036 106.444 1.95873C106.352 2.06257 106.258 2.16244 106.153 2.25372C105.829 2.53614 105.465 2.75771 105.077 2.94357C104.029 3.44625 102.913 3.71809 101.764 3.87815C101.411 3.92709 101.057 3.96347 100.701 3.98133C100.322 4.00051 99.9422 4.01969 99.5622 4.00051C99.1943 3.98199 98.8271 3.96083 98.4593 3.95421C97.8619 3.94429 97.2673 3.9939 96.6767 4.08319C96.0564 4.17711 95.4422 4.30013 94.8448 4.49525C94.2367 4.69433 93.6548 4.94964 93.0987 5.26315C92.1969 5.77178 91.443 6.44708 90.7788 7.2249C90.093 8.02786 89.5422 8.91349 89.0974 9.86394C89.0536 9.9572 89.0124 10.0511 88.9732 10.1464C88.9618 10.1735 88.9516 10.2079 88.9854 10.2284C89.0124 10.2449 89.0374 10.2251 89.0596 10.2099C89.0785 10.1966 89.0961 10.1821 89.115 10.1682C89.2203 10.0908 89.3249 10.0121 89.4315 9.9367C90.253 9.35862 91.1338 8.88373 92.0558 8.48027C93.4125 7.88698 94.8198 7.45375 96.2832 7.19712C96.9554 7.07939 97.6318 7.00531 98.3142 6.98415C98.3655 6.98283 98.4147 6.98415 98.46 7.01127C98.5308 7.05426 98.5383 7.12701 98.4755 7.18125C98.4465 7.20705 98.41 7.22093 98.3722 7.23152C98.3128 7.24871 98.2534 7.26591 98.194 7.28377C96.9906 7.65218 95.8202 8.10326 94.6842 8.63901C93.4773 9.20848 92.3218 9.86328 91.2425 10.6438C90.4953 11.1841 89.796 11.7768 89.1859 12.4659C88.8085 12.8919 88.4758 13.3476 88.2294 13.8609C88.1505 14.0262 88.0857 14.1969 88.0263 14.3695C88.0047 14.4323 88.0256 14.4548 88.0911 14.4489C88.11 14.4469 88.1289 14.4409 88.1478 14.4376C88.654 14.3417 89.1636 14.2703 89.6766 14.226C90.2138 14.1797 90.7525 14.1863 91.2897 14.2392C91.8857 14.2974 92.4669 14.4178 93.0285 14.6248C93.2384 14.7022 93.4517 14.773 93.6663 14.8371C94.1752 14.9892 94.6963 15.0845 95.2228 15.1526C95.5414 15.1936 95.8606 15.2333 96.184 15.2181C96.5559 15.2009 96.9264 15.1691 97.2923 15.105C98.7812 14.8437 100.139 14.2736 101.362 13.4052C102.326 12.7206 103.137 11.8806 103.867 10.9632C103.912 10.9063 103.961 10.8521 104.001 10.7919C104.051 10.7178 104.026 10.653 103.943 10.6186C103.898 10.6008 103.852 10.6021 103.806 10.6021C103.41 10.6027 103.015 10.6041 102.62 10.6041C102.31 10.6041 102 10.6047 101.69 10.6021C101.57 10.6008 101.547 10.5756 101.547 10.4599C101.547 9.85204 101.547 9.24486 101.547 8.63702C101.547 8.56493 101.547 8.49283 101.549 8.42074C101.551 8.3202 101.576 8.29705 101.682 8.29309C101.701 8.29242 101.72 8.29309 101.74 8.29309C102.085 8.29309 102.429 8.29309 102.774 8.29309C102.774 8.28912 102.774 8.29705 102.774 8.29309C103.131 8.29309 103.487 8.2825 103.844 8.28052C103.997 8.27986 104.053 8.22364 104.054 8.07416C104.056 7.69848 104.057 7.32213 104.058 6.94645C104.059 6.8102 104.074 6.79168 104.208 6.79102C104.673 6.78903 105.138 6.78771 105.603 6.78639C105.716 6.78639 105.828 6.79035 105.94 6.78771C106.087 6.7844 106.153 6.73612 106.193 6.60053C106.257 6.38557 106.321 6.17061 106.377 5.95367C106.564 5.22677 106.678 4.4893 106.713 3.73925C106.744 3.15853 106.71 2.57979 106.627 2.0037ZM100.805 10.8865C100.805 11.0128 100.805 11.1391 100.805 11.2648C100.805 11.3958 100.805 11.5274 100.806 11.6584C100.806 11.6762 100.805 11.6934 100.805 11.7113C100.805 11.7159 100.806 11.7205 100.806 11.7252C100.806 11.7635 100.806 11.8019 100.806 11.8396C100.806 11.8793 100.805 11.919 100.806 11.9586C100.806 11.9778 100.803 11.997 100.795 12.0155C100.778 12.0539 100.724 12.0731 100.65 12.0823C100.608 12.087 100.566 12.0889 100.523 12.0889C100.372 12.0889 100.22 12.0889 100.069 12.0889C100.066 12.0889 100.062 12.0889 100.058 12.0889C99.7195 12.0896 99.3806 12.0896 99.0425 12.0889C99.0391 12.0889 99.035 12.0889 99.0317 12.0889C98.8805 12.0889 98.7286 12.0889 98.5774 12.0889C98.5383 12.0889 98.4984 12.087 98.46 12.083C98.3533 12.0711 98.3074 12.0453 98.298 11.9924C98.2953 11.9765 98.2939 11.9613 98.2939 11.9454C98.2939 11.8707 98.2939 11.7953 98.2939 11.7205C98.2939 11.7119 98.2946 11.7033 98.2966 11.6947C98.2953 11.6676 98.2939 11.6412 98.2939 11.614C98.2946 11.3667 98.2946 11.1193 98.2939 10.8719C98.2939 10.858 98.2959 10.8448 98.2966 10.8309C98.2953 10.819 98.2939 10.8078 98.2939 10.7959C98.2939 10.7211 98.2939 10.6457 98.2939 10.571C98.2939 10.5531 98.2973 10.5353 98.304 10.5174C98.3189 10.4771 98.3736 10.4566 98.4512 10.4473C98.4917 10.4427 98.5335 10.4407 98.5754 10.4407C98.7286 10.4407 98.8818 10.4407 99.0344 10.4407C99.0384 10.4407 99.0418 10.4407 99.0452 10.4407C99.3799 10.44 99.7141 10.44 100.049 10.4407C100.055 10.4407 100.062 10.44 100.068 10.44C100.221 10.44 100.374 10.44 100.527 10.44C100.573 10.44 100.619 10.4427 100.664 10.4486C100.749 10.4599 100.793 10.487 100.802 10.5287C100.805 10.5439 100.808 10.5591 100.807 10.5743C100.807 10.6127 100.807 10.651 100.807 10.6887C100.807 10.7284 100.806 10.7681 100.807 10.8078C100.807 10.8177 100.806 10.827 100.805 10.8362C100.804 10.8547 100.805 10.8706 100.805 10.8865ZM103.312 6.26056V6.26255C103.312 6.29363 103.312 6.32472 103.312 6.35647C103.312 6.39615 103.312 6.43584 103.312 6.47552C103.312 6.4947 103.31 6.51388 103.302 6.5324C103.285 6.57076 103.23 6.58995 103.156 6.59921C103.115 6.60384 103.072 6.60582 103.03 6.60582C102.878 6.60582 102.726 6.60582 102.575 6.60582C102.573 6.60582 102.57 6.60582 102.567 6.60582C102.448 6.60582 102.33 6.60582 102.211 6.60582C102.208 6.60582 102.205 6.60582 102.203 6.60582C102.051 6.60582 101.9 6.60582 101.748 6.60582C101.709 6.60582 101.669 6.60384 101.631 6.59987C101.524 6.58796 101.478 6.56217 101.469 6.50925C101.466 6.49338 101.465 6.47817 101.465 6.46229C101.465 6.38755 101.465 6.31215 101.465 6.23741V6.23477C101.465 6.23146 101.465 6.22815 101.465 6.22551C101.465 6.02708 101.465 5.82932 101.465 5.6309C101.465 5.55946 101.465 5.48803 101.465 5.41594C101.465 5.39808 101.468 5.38022 101.475 5.36236C101.49 5.32202 101.545 5.30151 101.622 5.29225C101.663 5.28762 101.705 5.28564 101.746 5.28564C101.9 5.28564 102.053 5.28564 102.205 5.28564C102.208 5.28564 102.211 5.28564 102.214 5.28564C102.33 5.28564 102.445 5.28564 102.56 5.28564C102.564 5.28564 102.569 5.28564 102.573 5.28498C102.726 5.28498 102.88 5.28498 103.032 5.28498C103.079 5.28498 103.125 5.28762 103.17 5.29357C103.254 5.30482 103.299 5.33194 103.308 5.37361C103.311 5.38882 103.313 5.40403 103.312 5.41924C103.312 5.45761 103.312 5.49597 103.312 5.53367C103.312 5.57335 103.312 5.61304 103.312 5.65272V5.65537C103.312 5.75193 103.312 5.84784 103.312 5.94441C103.312 6.05089 103.311 6.15606 103.312 6.26056ZM104.691 5.0806C104.674 5.11896 104.62 5.13814 104.545 5.1474C104.504 5.15203 104.462 5.15402 104.419 5.15402C104.268 5.15402 104.116 5.15402 103.965 5.15402C103.926 5.15402 103.886 5.15203 103.848 5.14806C103.741 5.13616 103.695 5.11036 103.686 5.05745C103.683 5.04158 103.682 5.02636 103.682 5.01049C103.682 4.93575 103.682 4.86035 103.682 4.78561C103.682 4.76775 103.685 4.74989 103.692 4.73203C103.707 4.69169 103.761 4.67118 103.839 4.66192C103.879 4.65729 103.921 4.65531 103.963 4.65531C104.116 4.65531 104.269 4.65531 104.422 4.65531C104.469 4.65531 104.514 4.65796 104.56 4.66391C104.644 4.67515 104.689 4.70227 104.697 4.74394C104.701 4.75915 104.703 4.77436 104.702 4.78958C104.702 4.82794 104.702 4.8663 104.702 4.904C104.702 4.94369 104.701 4.98337 104.702 5.02306C104.703 5.0429 104.699 5.06208 104.691 5.0806Z" fill="#5EEDBE"/>
<path d="M107.249 9.69792C107.249 9.69594 107.249 9.69462 107.249 9.69263C107.248 9.53786 107.249 9.38309 107.249 9.22898C107.249 9.08016 107.249 8.93134 107.249 8.78253C107.249 8.78054 107.249 8.77856 107.249 8.77591C107.249 8.77327 107.249 8.76996 107.249 8.76731C107.249 8.71242 107.249 8.65752 107.249 8.60196C107.249 8.54905 107.249 8.49613 107.249 8.44322C107.249 8.42206 107.247 8.40089 107.245 8.37973C107.236 8.32152 107.191 8.28448 107.107 8.26861C107.062 8.26001 107.016 8.2567 106.969 8.2567C106.816 8.25604 106.663 8.2567 106.51 8.2567C106.505 8.2567 106.5 8.25736 106.495 8.25736C106.208 8.2567 105.92 8.2567 105.632 8.25736C105.629 8.25736 105.626 8.2567 105.623 8.2567C105.47 8.25604 105.317 8.2567 105.164 8.2567C105.122 8.2567 105.081 8.25935 105.04 8.26596C104.962 8.27853 104.908 8.30697 104.893 8.36319C104.886 8.38766 104.883 8.4128 104.883 8.43727C104.883 8.54111 104.883 8.64495 104.883 8.74879C104.883 8.75144 104.883 8.75409 104.883 8.75673C104.883 8.75938 104.883 8.76202 104.883 8.76467C104.883 9.05635 104.883 9.34804 104.883 9.63972C104.883 9.65229 104.883 9.66485 104.883 9.67676C104.883 9.68073 104.883 9.68536 104.883 9.68932C104.883 9.79317 104.883 9.89701 104.883 10.0009C104.883 10.0227 104.884 10.0445 104.887 10.0663C104.896 10.1397 104.942 10.1761 105.049 10.192C105.087 10.198 105.126 10.1999 105.166 10.1999C105.317 10.1999 105.469 10.1999 105.621 10.1999C105.623 10.1999 105.627 10.1999 105.629 10.1999C105.921 10.2006 106.213 10.2006 106.504 10.1999C106.507 10.1999 106.509 10.1999 106.513 10.1999C106.664 10.1999 106.816 10.1999 106.967 10.1999C107.01 10.1999 107.052 10.1973 107.093 10.1907C107.168 10.1781 107.222 10.1517 107.239 10.0981C107.247 10.0723 107.25 10.0458 107.25 10.0194C107.249 9.96447 107.25 9.90958 107.25 9.85402C107.249 9.80243 107.249 9.75018 107.249 9.69792Z" fill="#5EEDBE"/>
<path d="M109.508 3.58583C109.507 3.54615 109.508 3.50712 109.508 3.46744C109.508 3.43701 109.508 3.40659 109.508 3.3755C109.508 3.37484 109.508 3.37418 109.508 3.37418C109.508 3.355 109.508 3.33582 109.508 3.31664C109.508 3.30076 109.508 3.28489 109.508 3.26901C109.508 3.26769 109.508 3.26571 109.508 3.26438C109.507 3.20949 109.508 3.15459 109.508 3.09903C109.508 3.04612 109.508 2.9932 109.508 2.94029C109.508 2.91913 109.506 2.89796 109.503 2.8768C109.494 2.81859 109.449 2.78155 109.365 2.76568C109.32 2.75708 109.274 2.75377 109.228 2.75377C109.074 2.75311 108.921 2.75377 108.769 2.75377C108.767 2.75377 108.765 2.75377 108.763 2.75377C108.645 2.75377 108.527 2.75377 108.41 2.75377C108.409 2.75377 108.408 2.75377 108.407 2.75377C108.254 2.75311 108.101 2.75377 107.948 2.75377C107.906 2.75377 107.864 2.75642 107.824 2.76303C107.746 2.7756 107.691 2.80404 107.677 2.86026C107.67 2.88473 107.667 2.90987 107.667 2.93434C107.667 2.97204 107.667 3.0104 107.667 3.0481C107.667 3.15525 107.667 3.2624 107.667 3.36955C107.667 3.47339 107.667 3.57723 107.667 3.68108C107.667 3.7029 107.668 3.72473 107.671 3.74656C107.68 3.81997 107.726 3.85635 107.833 3.87222C107.871 3.87818 107.91 3.88016 107.95 3.88016C108.101 3.88016 108.253 3.88016 108.404 3.88016C108.406 3.88016 108.406 3.88016 108.408 3.88016C108.528 3.88016 108.648 3.88016 108.769 3.88016C108.77 3.88016 108.771 3.88016 108.771 3.88016C108.923 3.88016 109.074 3.88016 109.226 3.88016C109.268 3.88016 109.311 3.87751 109.352 3.8709C109.426 3.85833 109.481 3.83188 109.498 3.7783C109.506 3.75251 109.509 3.72605 109.509 3.69959C109.508 3.66189 109.509 3.62485 109.509 3.58715C109.508 3.58715 109.508 3.58649 109.508 3.58583Z" fill="#5EEDBE"/>
<path d="M110 0.378623C110 0.438811 109.999 0.499 110 0.559189C110 0.588291 109.997 0.617393 109.988 0.645834C109.97 0.704038 109.91 0.733802 109.829 0.74703C109.784 0.754306 109.737 0.757613 109.691 0.757613C109.525 0.757613 109.358 0.757613 109.193 0.757613C109.15 0.757613 109.107 0.754967 109.065 0.748353C108.948 0.730495 108.897 0.69081 108.887 0.610779C108.884 0.586968 108.883 0.563157 108.883 0.539346C108.883 0.425583 108.883 0.31182 108.883 0.198057C108.883 0.170939 108.887 0.143821 108.894 0.116703C108.91 0.0558527 108.97 0.0247663 109.055 0.0108766C109.1 0.00360103 109.146 0.000293962 109.191 0.000293962C109.358 0.000293962 109.527 -0.000367452 109.694 0.000293962C109.745 0.000293962 109.795 0.00426244 109.844 0.0135222C109.937 0.030719 109.986 0.0717266 109.996 0.135222C109.999 0.158372 110.001 0.181521 110.001 0.204671C110 0.262875 110 0.320418 110 0.378623Z" fill="#5EEDBE"/>
</svg>
