<svg width="18" height="18" viewBox="0 0 18 18" fill="none" xmlns="http://www.w3.org/2000/svg">
<g clip-path="url(#clip0_825_630)">
<path d="M8.99644 0.138123C4.11168 0.138123 0.138184 4.11273 0.138184 8.99638C0.138184 13.88 4.11168 17.8535 8.99644 17.8535C13.8801 17.8535 17.8525 13.88 17.8525 8.99638C17.8525 4.11273 13.8801 0.138123 8.99644 0.138123Z" fill="white"/>
<path d="M14.6484 8.99637C14.6484 12.1194 12.1174 14.6518 8.99686 14.6518C5.87493 14.6518 3.34424 12.1194 3.34424 8.99637C3.34424 5.87612 5.87493 3.34375 8.99686 3.34375C12.1174 3.34375 14.6484 5.87612 14.6484 8.99637Z" fill="#1CADCB"/>
<path d="M7.56738 3.48075L6.5911 6.637H5.44322L3.9502 11.632C3.9502 11.632 6.07324 14.7305 8.88658 14.7305C11.6988 14.7305 13.5342 12.2628 13.8796 11.5739L12.2736 6.637H10.9533L10.1483 3.36775C10.1483 3.36775 8.54255 3.19615 7.56738 3.48075Z" fill="#4DC5E1"/>
<path d="M8.25453 3.42523L7.51067 6.69644H6.64739L4.86865 12.8359C4.86865 12.8359 6.76402 14.7299 8.82931 14.7299C10.8954 14.7299 12.6167 13.5265 13.0193 12.8359L11.1248 6.86859H10.2632L9.46073 3.48076L8.25453 3.42523Z" fill="white"/>
<path d="M5.13721 13.0195C6.15897 14.0285 7.56187 14.6518 9.10958 14.6518C10.5633 14.6518 11.8894 14.1024 12.8897 13.1992C11.8783 12.4289 10.4598 11.9473 8.88637 11.9473C7.44245 11.9473 6.12577 12.3535 5.13721 13.0195Z" fill="#99D64B"/>
<path d="M8.91518 9.71817C8.60435 9.24105 7.92439 8.47375 6.72852 8.47375C6.72852 8.47375 7.20619 10.6278 8.81808 10.8641C8.81808 10.8641 8.86133 10.8401 8.91518 10.7916C8.96903 10.8401 9.00893 10.8641 9.00893 10.8641C10.6256 10.6278 11.1018 8.47375 11.1018 8.47375C9.90737 8.47375 9.22489 9.24105 8.91518 9.71817Z" fill="#99D64B"/>
<path d="M9.17348 12.2628H8.65674V10.3677H9.17348V12.2628Z" fill="#99D64B"/>
<path d="M8.99616 3.49886C5.96324 3.49886 3.49561 5.96538 3.49561 8.99663C3.49561 12.0282 5.96324 14.4975 8.99616 14.4975C12.0291 14.4975 14.4948 12.0282 14.4948 8.99663C14.4948 5.96538 12.0291 3.49886 8.99616 3.49886ZM8.99616 14.8044C5.79415 14.8044 3.18896 12.1992 3.18896 8.99663C3.18896 5.79629 5.79415 3.1911 8.99616 3.1911C12.1971 3.1911 14.8034 5.79629 14.8034 8.99663C14.8034 12.1992 12.1971 14.8044 8.99616 14.8044Z" fill="white"/>
<path d="M2.82589 11.2271L3.18108 11.8638L3.1091 11.906C3.0957 11.8786 3.07617 11.8527 3.05218 11.8189C3.02818 11.7838 3.00781 11.7631 2.99498 11.7539C2.96875 11.7386 2.94587 11.7321 2.92299 11.731C2.90123 11.731 2.87835 11.7374 2.85212 11.7492L1.80497 12.332L1.81222 12.3474L3.31278 12.1571L3.34263 12.2104L2.34598 13.3711L2.3524 13.382L3.21456 12.9068C3.29799 12.8605 3.35714 12.8214 3.39537 12.7868C3.43276 12.7517 3.45452 12.719 3.46261 12.6839C3.46735 12.6627 3.46373 12.6236 3.45089 12.5709C3.43862 12.5181 3.42801 12.4819 3.4216 12.4696L3.49358 12.4274L3.81557 13.0123L3.74247 13.0508C3.72433 13.0215 3.70145 12.9941 3.67494 12.9648C3.64983 12.9333 3.62249 12.9121 3.5971 12.9026C3.56557 12.8912 3.52762 12.8912 3.48298 12.9009C3.43862 12.9157 3.37137 12.9478 3.27818 12.9975L2.54018 13.4079C2.4986 13.43 2.46596 13.454 2.44531 13.4799C2.42383 13.5056 2.4096 13.5318 2.40262 13.5611C2.39732 13.5935 2.39844 13.625 2.40485 13.6613C2.41323 13.6975 2.42439 13.7285 2.44057 13.7603L2.36998 13.7999L2.09654 13.3094L2.95033 12.2999L1.85073 12.445C1.80971 12.4498 1.76925 12.459 1.72712 12.4696C1.68499 12.4819 1.65988 12.4908 1.64593 12.4966L1.38672 12.0265L1.45871 11.9844C1.46903 12.0025 1.48493 12.0265 1.50781 12.053C1.5293 12.0787 1.54632 12.0963 1.55804 12.1102C1.57729 12.1267 1.60128 12.1362 1.62416 12.1325C1.64704 12.1314 1.66992 12.1202 1.6928 12.1102L2.73326 11.536C2.75725 11.5215 2.77427 11.5045 2.78823 11.4894C2.79939 11.4729 2.80413 11.45 2.80413 11.4185C2.80413 11.4032 2.79827 11.3775 2.78711 11.344C2.77427 11.3114 2.76507 11.2843 2.75502 11.2639L2.82589 11.2271Z" fill="#181210"/>
<path d="M2.64879 10.3778L2.84996 11.0907L2.76988 11.1164C2.7629 11.0971 2.75286 11.0684 2.73891 11.0304C2.72524 10.9922 2.71352 10.969 2.70487 10.952C2.68729 10.9303 2.66915 10.9191 2.64739 10.911C2.62926 10.9035 2.60526 10.9046 2.57429 10.9121L1.42418 11.2369C1.39907 11.2447 1.3773 11.255 1.36279 11.2679C1.34633 11.2827 1.33768 11.3036 1.33517 11.3387C1.33294 11.3647 1.33182 11.3945 1.33294 11.4289C1.33517 11.4665 1.33768 11.4939 1.34242 11.5179L1.26318 11.5391L1.06201 10.8284L1.14209 10.8069C1.14851 10.8284 1.15911 10.8535 1.17306 10.8853C1.18673 10.9138 1.20124 10.9414 1.21519 10.9624C1.23221 10.9883 1.25286 11.0048 1.27546 11.0081C1.29834 11.0103 1.32122 11.0092 1.34633 11.0048L2.49421 10.6803C2.51821 10.6727 2.53969 10.6616 2.55615 10.6454C2.57206 10.6289 2.58126 10.606 2.58489 10.5762C2.58712 10.5597 2.58601 10.5318 2.58238 10.4942C2.58126 10.4568 2.5768 10.4264 2.56955 10.4018L2.64879 10.3778Z" fill="#181210"/>
<path d="M0.902274 8.66241C0.904506 8.68362 0.912598 8.71878 0.927386 8.76202C0.941895 8.80416 0.955845 8.83764 0.969517 8.85577C0.989886 8.88312 1.03034 8.89484 1.08587 8.90432C1.14083 8.91018 1.21059 8.91018 1.29541 8.90432L2.49937 8.82118L2.50579 8.92246L1.2304 10.0117L2.07861 9.95204C2.17208 9.94422 2.24547 9.9325 2.29681 9.92023C2.34591 9.90404 2.37995 9.88228 2.40116 9.85605C2.41678 9.83596 2.42906 9.79802 2.44078 9.74249C2.45194 9.68502 2.45668 9.64874 2.45668 9.62893L2.53788 9.62475L2.58475 10.3014L2.50216 10.3056C2.50105 10.2843 2.48989 10.2497 2.47314 10.2012C2.45668 10.1532 2.44329 10.1211 2.42906 10.1111C2.40758 10.0848 2.37242 10.0684 2.32778 10.0609C2.28285 10.053 2.20557 10.053 2.09898 10.0642L1.28843 10.1181C1.25328 10.1211 1.21756 10.1287 1.18241 10.144C1.14809 10.1591 1.1227 10.1772 1.10456 10.1984C1.07945 10.2288 1.0602 10.2679 1.04485 10.3178C1.03146 10.3664 1.02448 10.4054 1.0256 10.4353L0.941895 10.44L0.910366 9.97129L2.09898 8.95985L1.31829 9.01426C1.22231 9.02123 1.1492 9.03239 1.09759 9.04885C1.04848 9.06476 1.015 9.08206 0.999372 9.10856C0.9857 9.13089 0.974261 9.16716 0.963658 9.21794C0.952497 9.26593 0.946638 9.30471 0.947754 9.33038L0.86656 9.33568L0.820801 8.66827L0.902274 8.66241Z" fill="#181210"/>
<path d="M2.61551 7.77427L2.51702 8.50892L2.43694 8.49776C2.43694 8.47655 2.43806 8.44781 2.4428 8.40513C2.44503 8.36829 2.4428 8.34067 2.43806 8.32142C2.43164 8.29575 2.42104 8.27399 2.40541 8.26059C2.38895 8.2472 2.36719 8.23967 2.3351 8.23492L1.15234 8.07505C1.12472 8.07337 1.10184 8.07505 1.08259 8.08035C1.06334 8.08565 1.04464 8.10379 1.02985 8.13364C1.01646 8.15652 1.00586 8.18386 0.990234 8.21735C0.979632 8.25139 0.970145 8.2804 0.964844 8.30105L0.884766 8.29101L0.980748 7.55719L1.06334 7.56751C1.06222 7.58872 1.05971 7.62025 1.05971 7.65206C1.06222 7.68693 1.06445 7.71511 1.06864 7.74078C1.0731 7.77259 1.08622 7.7924 1.10547 7.80635C1.12472 7.82002 1.1476 7.82756 1.1716 7.83035L2.35631 7.98744C2.38142 7.99134 2.40541 7.98744 2.42467 7.98158C2.44643 7.97432 2.46456 7.95619 2.47852 7.93163C2.48717 7.91461 2.49888 7.88894 2.51004 7.8563C2.52288 7.82002 2.53069 7.78766 2.53404 7.76311L2.61551 7.77427Z" fill="#181210"/>
<path d="M2.21764 6.41041C2.26451 6.38641 2.31362 6.37609 2.36273 6.3719C2.41183 6.37023 2.46457 6.37888 2.52372 6.3959C2.66351 6.44138 2.76312 6.52509 2.81864 6.65874C2.87835 6.78987 2.8831 6.93189 2.83622 7.08424C2.81474 7.15483 2.78125 7.22179 2.73689 7.28485C2.69225 7.34763 2.64732 7.40148 2.60045 7.44054L2.66602 7.51504L2.6384 7.60321L2.09403 7.44947L2.12166 7.36046C2.19364 7.36381 2.25977 7.36046 2.32311 7.35265C2.38337 7.344 2.44532 7.32698 2.50196 7.30076C2.55943 7.2762 2.60743 7.24272 2.64956 7.1978C2.69225 7.15622 2.72378 7.0993 2.74442 7.03039C2.76089 6.97988 2.7673 6.93385 2.76619 6.8892C2.76535 6.84819 2.75614 6.81136 2.73912 6.77927C2.72154 6.74942 2.69866 6.72179 2.66881 6.70087C2.64091 6.67966 2.6038 6.66153 2.56055 6.64757C2.49861 6.62944 2.43471 6.62944 2.3697 6.64757C2.30302 6.66459 2.24638 6.70533 2.19587 6.76588C2.16155 6.81136 2.12166 6.85767 2.08064 6.91208C2.03683 6.96649 1.99945 7.01337 1.96234 7.05076C1.89509 7.12693 1.82199 7.17966 1.74247 7.21119C1.66211 7.23993 1.56976 7.23686 1.4668 7.20477C1.40597 7.18719 1.35324 7.15622 1.30999 7.11465C1.26535 7.07698 1.23075 7.02843 1.20508 6.96817C1.17885 6.9132 1.16351 6.85182 1.16128 6.78848C1.15709 6.72179 1.16462 6.65874 1.18416 6.59484C1.20815 6.52285 1.24024 6.46091 1.27874 6.41236C1.32171 6.35963 1.36245 6.31554 1.40821 6.27648L1.34682 6.2098L1.37417 6.12079L1.8976 6.27536L1.8711 6.36242C1.80609 6.36074 1.74247 6.36074 1.68276 6.36549C1.61998 6.36716 1.56278 6.37888 1.50893 6.39757C1.45508 6.41738 1.40821 6.44389 1.3697 6.48295C1.33036 6.52118 1.29995 6.57196 1.27874 6.6406C1.25614 6.71119 1.26061 6.77815 1.29046 6.83898C1.3192 6.90455 1.36719 6.94473 1.4322 6.96649C1.49945 6.9877 1.56167 6.98881 1.61552 6.96956C1.66993 6.95421 1.72015 6.91794 1.76702 6.86828C1.81195 6.82196 1.85073 6.7762 1.88533 6.72933C1.9202 6.68273 1.95592 6.6406 1.99359 6.59484C2.02679 6.55857 2.06083 6.52285 2.09878 6.4877C2.13616 6.45449 2.17662 6.42855 2.21764 6.41041Z" fill="#181210"/>
<path d="M2.628 4.64898L2.58922 4.7179C2.56076 4.71148 2.52616 4.70562 2.48403 4.70171C2.44301 4.69976 2.40032 4.69976 2.35931 4.70283C2.31717 4.70562 2.27672 4.71343 2.24044 4.72375C2.20361 4.73436 2.17739 4.75138 2.16148 4.77063C2.14697 4.79184 2.13051 4.81639 2.11237 4.84457C2.09173 4.87666 2.07359 4.90819 2.05964 4.9333L2.02699 4.9944L3.17878 5.63754C3.19971 5.65149 3.22147 5.65735 3.24658 5.65902C3.26946 5.65902 3.29457 5.65149 3.31745 5.63335C3.32861 5.62415 3.3501 5.60127 3.37884 5.56499C3.40869 5.53207 3.43045 5.50473 3.44329 5.48464L3.51528 5.52454L3.13553 6.20227L3.06355 6.16181C3.07275 6.142 3.08615 6.11159 3.10317 6.07113C3.12186 6.03012 3.13079 6.00026 3.13414 5.98157C3.13777 5.95367 3.13414 5.93023 3.12298 5.9107C3.11154 5.89089 3.09201 5.87442 3.06578 5.85824L1.90562 5.20729L1.87242 5.26756C1.86182 5.28932 1.84731 5.31444 1.83029 5.34429C1.81494 5.37833 1.80155 5.40819 1.7876 5.44027C1.77755 5.46064 1.77867 5.49245 1.7876 5.5304C1.79792 5.56778 1.81271 5.60601 1.83252 5.64228C1.85317 5.67855 1.87354 5.71427 1.89976 5.74942C1.92376 5.78263 1.94664 5.81081 1.96477 5.8295L1.92515 5.90205L1.5376 5.68497L2.23933 4.43079L2.628 4.64898Z" fill="#181210"/>
<path d="M3.48075 3.62472C3.40653 3.55692 3.3298 3.52288 3.24665 3.52818C3.16546 3.53293 3.08984 3.56976 3.01897 3.64593L2.88309 3.79213L3.4029 4.27093L3.50725 4.15737C3.57924 4.07896 3.61496 3.98996 3.61356 3.89342C3.61021 3.79213 3.56613 3.70313 3.48075 3.62472ZM4.79771 4.0053L4.49805 4.33231C4.31669 4.30078 4.15848 4.27679 4.02288 4.25921C3.88644 4.24219 3.74247 4.22712 3.59263 4.21345L3.47852 4.3404L3.86133 4.69336C3.88281 4.7115 3.9029 4.72377 3.92439 4.73159C3.94503 4.73856 3.96903 4.73605 3.99526 4.7221C4.00865 4.71624 4.02874 4.70173 4.05552 4.68053C4.08315 4.65709 4.10463 4.63784 4.12221 4.61803L4.18248 4.67523L3.71373 5.18555L3.65346 5.1317C3.66462 5.11552 3.67969 5.09431 3.70145 5.06697C3.72182 5.03655 3.73354 5.01535 3.73884 5.00307C3.74721 4.97908 3.74721 4.95731 3.73996 4.93694C3.73354 4.91406 3.71736 4.89481 3.69671 4.87556L2.81641 4.06725C2.79827 4.04967 2.77679 4.03488 2.75725 4.02735C2.73689 4.02037 2.71345 4.02204 2.68527 4.03321C2.66657 4.04437 2.64509 4.05887 2.62109 4.0759C2.59598 4.09598 2.57422 4.11273 2.55943 4.12584L2.5 4.07004L3.012 3.51172C3.0611 3.46038 3.11021 3.4163 3.16071 3.38365C3.21456 3.34682 3.26842 3.32087 3.32394 3.30581C3.38142 3.29297 3.43527 3.29297 3.49247 3.30413C3.54799 3.31501 3.60324 3.34682 3.65458 3.39481C3.70145 3.4375 3.73493 3.48075 3.75893 3.53097C3.78153 3.57729 3.79269 3.62779 3.79269 3.67746C3.7952 3.72712 3.78683 3.77762 3.77232 3.83008C3.75753 3.88281 3.73661 3.93555 3.70731 3.98996C3.8418 4.0053 3.95592 4.01563 4.04688 4.02623C4.1356 4.03488 4.24693 4.04799 4.37807 4.0625C4.43527 4.06725 4.48103 4.06725 4.51562 4.0625C4.55078 4.05776 4.58287 4.04967 4.61161 4.03851C4.63198 4.03097 4.65597 4.01674 4.67997 3.99944C4.70285 3.98131 4.7221 3.96289 4.73689 3.95145L4.79771 4.0053Z" fill="#181210"/>
<path d="M5.0927 1.94839C5.08322 1.95592 5.06982 1.97043 5.05169 1.99638C5.03188 2.01982 5.02072 2.03851 5.01486 2.05414C5.00146 2.08539 4.99198 2.10938 4.98723 2.12501C4.98612 2.1384 4.98333 2.17356 4.98082 2.22629C4.97859 2.32981 4.98082 2.43221 4.98723 2.53405C4.99561 2.63422 5.00593 2.76256 5.01821 2.91742C5.02183 2.97378 5.02769 3.01759 5.03774 3.048C5.04694 3.07953 5.06759 3.1172 5.09968 3.16519L5.27658 3.42495C5.29276 3.44895 5.31229 3.46429 5.33266 3.47462C5.35303 3.48578 5.37702 3.48885 5.40827 3.48243C5.42641 3.47936 5.45264 3.47127 5.49421 3.45369C5.53048 3.43723 5.56369 3.42272 5.58433 3.40989L5.63121 3.47825L4.99421 3.91017L4.94761 3.84181C4.96463 3.82869 4.98975 3.80721 5.02295 3.78154C5.05643 3.75168 5.07792 3.73159 5.08796 3.71541C5.10498 3.69142 5.11196 3.66742 5.10721 3.64398C5.1061 3.6211 5.09745 3.59711 5.08043 3.57311L4.85498 3.24415C4.84689 3.23187 4.82987 3.21653 4.79778 3.19727C4.76653 3.1797 4.73165 3.161 4.6912 3.13645C4.60219 3.09013 4.50509 3.03879 4.40074 2.98494C4.29388 2.9297 4.20292 2.8831 4.12702 2.84543C4.08015 2.82395 4.04443 2.80749 4.01458 2.79995C3.98472 2.79354 3.95654 2.78935 3.92557 2.78935C3.90269 2.79047 3.88009 2.79521 3.8561 2.8047C3.82959 2.81446 3.80811 2.82562 3.79053 2.83511L3.74365 2.76759L4.32485 2.37278L4.37172 2.43751C4.30615 2.48606 4.26514 2.52177 4.24226 2.54716C4.22049 2.57172 4.21463 2.59208 4.22412 2.60687C4.22635 2.61134 4.23277 2.61775 4.24449 2.62306C4.25342 2.63087 4.26737 2.64008 4.28439 2.65068C4.30364 2.66128 4.32652 2.66937 4.35275 2.68388C4.37926 2.70034 4.40325 2.71262 4.42725 2.72629C4.49672 2.76256 4.5648 2.79828 4.63428 2.83316C4.70515 2.86943 4.79639 2.91463 4.90771 2.97211C4.89711 2.74136 4.88902 2.56167 4.88149 2.43583C4.872 2.30944 4.8614 2.23689 4.84912 2.21876C4.83991 2.20453 4.82513 2.19588 4.80811 2.19476C4.79053 2.19476 4.77239 2.19588 4.75091 2.20397C4.73026 2.20927 4.70766 2.22043 4.68366 2.23522C4.6619 2.2475 4.64014 2.26089 4.61921 2.2701L4.57345 2.20062L5.04694 1.88031L5.0927 1.94839Z" fill="#181210"/>
<path d="M7.50682 2.43246C7.53082 2.35406 7.53891 2.27035 7.53528 2.17716C7.53082 2.08704 7.5138 1.98882 7.48506 1.88168C7.45409 1.77286 7.4167 1.678 7.36982 1.5915C7.32295 1.5078 7.2691 1.43637 7.21051 1.38531C7.15275 1.33034 7.08578 1.2963 7.01631 1.27956C6.94321 1.2578 6.86871 1.2631 6.78751 1.28346C6.69739 1.30941 6.62764 1.3521 6.57602 1.41098C6.52468 1.46845 6.48952 1.53765 6.46915 1.6155C6.44907 1.69139 6.44376 1.77761 6.44907 1.86996C6.45604 1.96315 6.47194 2.0583 6.49957 2.15512C6.52942 2.26282 6.56625 2.35573 6.60838 2.43776C6.65275 2.51896 6.70437 2.58759 6.76463 2.64368C6.82323 2.69864 6.88796 2.73687 6.95883 2.75501C7.03138 2.77537 7.10866 2.77314 7.19349 2.75026C7.27384 2.72906 7.34109 2.68944 7.39382 2.63447C7.44934 2.57811 7.48506 2.5131 7.50682 2.43246ZM7.36285 1.26114C7.45409 1.31583 7.53193 1.38642 7.60169 1.48185C7.66782 1.57197 7.72167 1.68274 7.75599 1.80913C7.79003 1.93441 7.80286 2.05439 7.79003 2.16739C7.77886 2.28207 7.74566 2.38614 7.69516 2.47822C7.64382 2.5689 7.57881 2.64535 7.49734 2.71287C7.41782 2.77314 7.32462 2.81918 7.22111 2.85155C7.11117 2.88028 7.00403 2.88782 6.89856 2.87247C6.79337 2.8574 6.696 2.81918 6.60838 2.76533C6.52105 2.71287 6.44516 2.63949 6.37708 2.5449C6.31095 2.45422 6.25961 2.3482 6.22725 2.23101C6.19349 2.10238 6.18037 1.97989 6.19349 1.86996C6.20437 1.7564 6.23562 1.65233 6.28807 1.55746C6.33746 1.46566 6.40219 1.38642 6.4859 1.32281C6.56737 1.2578 6.65861 1.21455 6.76045 1.18413C6.86536 1.1554 6.97055 1.14954 7.0749 1.16126C7.17842 1.17521 7.27496 1.20813 7.36285 1.26114Z" fill="#181210"/>
<path d="M9.3381 1.32419L9.2516 1.32754C9.23152 1.26671 9.19524 1.20366 9.14028 1.13558C9.08643 1.06833 9.0362 1.02983 8.98821 1.02509C8.96533 1.02509 8.93659 1.02202 8.90255 1.02202C8.87047 1.02034 8.83196 1.02202 8.79039 1.02509L8.51416 1.03318L8.53676 1.69333L8.72649 1.68831C8.78397 1.68692 8.82945 1.67882 8.86042 1.66711C8.88972 1.6526 8.91846 1.63251 8.94022 1.60628C8.95417 1.58926 8.96645 1.56303 8.97928 1.52732C8.99044 1.48909 8.99742 1.4517 9.00105 1.41069L9.08754 1.4079L9.10931 2.0541L9.02253 2.05522C9.01807 2.02341 9.00914 1.98435 8.99519 1.94222C8.97928 1.89953 8.96422 1.87023 8.9472 1.84847C8.92432 1.82336 8.89335 1.80299 8.85819 1.79406C8.82136 1.78346 8.78034 1.78067 8.73124 1.78234L8.54039 1.79015L8.55852 2.356C8.56215 2.38055 8.56662 2.40622 8.57778 2.42576C8.58838 2.44501 8.60763 2.4584 8.63274 2.47235C8.6439 2.47654 8.67041 2.48407 8.70836 2.48881C8.74826 2.49467 8.77811 2.4983 8.79848 2.49942L8.80071 2.58061L8.08726 2.60461L8.08615 2.52341C8.10791 2.51923 8.13777 2.51588 8.17683 2.51281C8.21449 2.50695 8.23961 2.50109 8.25133 2.49635C8.27532 2.48407 8.29095 2.469 8.30043 2.44836C8.31048 2.42855 8.31494 2.40622 8.31383 2.37581L8.27281 1.18719C8.27281 1.16153 8.26835 1.14088 8.25774 1.12051C8.24881 1.10126 8.23012 1.08703 8.20222 1.07531C8.18101 1.06499 8.15423 1.05717 8.11851 1.04964C8.0828 1.04378 8.05573 1.03904 8.03341 1.03904L8.03174 0.955889L9.32359 0.913757L9.3381 1.32419Z" fill="#181210"/>
<path d="M11.5091 2.55414L11.347 3.01256L10.0337 2.63952L10.0566 2.56167C10.0795 2.56586 10.1099 2.5706 10.1489 2.57646C10.1852 2.5812 10.2128 2.58232 10.2245 2.5812C10.2497 2.57646 10.2725 2.56697 10.287 2.55079C10.2999 2.53768 10.311 2.51619 10.3205 2.48745L10.6436 1.34683C10.6506 1.32283 10.6528 1.29995 10.6495 1.27958C10.6459 1.25671 10.6347 1.23662 10.6121 1.21736C10.5956 1.20034 10.5705 1.18528 10.5387 1.16881C10.5077 1.15179 10.4815 1.14063 10.4623 1.13254L10.4837 1.05414L11.707 1.40012L11.5993 1.78405L11.5139 1.76117C11.5161 1.69923 11.501 1.63003 11.4695 1.55386C11.4397 1.47378 11.4014 1.42579 11.3593 1.40765C11.3364 1.40012 11.3091 1.38952 11.2781 1.37892C11.2477 1.36831 11.2095 1.35604 11.171 1.34627L10.9215 1.27373L10.7418 1.90347L10.9193 1.95313C10.9779 1.9696 11.0211 1.97713 11.051 1.97406C11.0808 1.9696 11.1076 1.95844 11.1353 1.93779C11.1556 1.91965 11.1802 1.89566 11.2031 1.86189C11.2237 1.83092 11.2393 1.79912 11.2536 1.76396L11.3378 1.78991L11.1604 2.41379L11.0761 2.38924C11.0825 2.35297 11.0861 2.31251 11.0836 2.2687C11.0825 2.22573 11.0783 2.19476 11.0691 2.17021C11.0543 2.13505 11.0345 2.10827 11.0063 2.09181C10.9812 2.07367 10.9422 2.0586 10.8953 2.04493L10.7162 1.99527L10.5808 2.47043C10.5686 2.51619 10.5605 2.55665 10.5594 2.58762C10.5582 2.61441 10.5663 2.63952 10.5808 2.66017C10.5967 2.67942 10.6196 2.697 10.6528 2.71095C10.6841 2.72322 10.7307 2.73689 10.7935 2.75503C10.8149 2.76201 10.8484 2.77121 10.8883 2.78377C10.9299 2.79354 10.9637 2.8047 10.9924 2.80637C11.0211 2.81335 11.051 2.81474 11.0836 2.81642C11.116 2.81642 11.1411 2.81335 11.1556 2.80302C11.2031 2.77707 11.2522 2.73215 11.3113 2.66937C11.3688 2.60855 11.4073 2.56167 11.4291 2.53014L11.5091 2.55414Z" fill="#181210"/>
<path d="M12.9914 2.99188C13.0464 2.89646 13.0827 2.80466 13.1033 2.71231C13.122 2.61856 13.1231 2.53011 13.1078 2.44473C13.0944 2.36214 13.0612 2.28848 13.0132 2.21538C12.9638 2.14451 12.8966 2.08535 12.8154 2.03848C12.7889 2.02397 12.7573 2.00528 12.7227 1.98714C12.6865 1.96956 12.6613 1.9531 12.6438 1.94557L12.0093 3.04183C11.9741 3.1007 11.9671 3.15343 11.9889 3.19752C12.0118 3.24244 12.0584 3.28513 12.1329 3.3267C12.2188 3.37832 12.3009 3.40567 12.3834 3.41153C12.4635 3.41738 12.5391 3.40762 12.6097 3.37637C12.6842 3.34372 12.7515 3.29517 12.8128 3.23379C12.8751 3.17213 12.9339 3.09038 12.9914 2.99188ZM13.2361 3.1353C13.1652 3.25779 13.0815 3.34791 12.9844 3.41153C12.8873 3.47319 12.7855 3.51281 12.6817 3.52815C12.5729 3.54266 12.4658 3.53848 12.3569 3.51169C12.2492 3.48602 12.1479 3.4478 12.0497 3.38948L11.4585 3.04824L11.5006 2.9757C11.5188 2.98853 11.5464 3.00137 11.5799 3.01588C11.6131 3.02815 11.636 3.03708 11.6482 3.03708C11.6733 3.04294 11.6962 3.03708 11.7155 3.02536C11.7342 3.01253 11.7501 2.99607 11.7635 2.9704L12.3594 1.94194C12.3751 1.91794 12.382 1.89702 12.3846 1.87302C12.3879 1.85182 12.3787 1.82726 12.3639 1.80327C12.3488 1.78094 12.3296 1.76058 12.3089 1.743C12.2875 1.72123 12.2679 1.7084 12.2492 1.69612L12.2933 1.62469L12.9147 1.98574C13.0009 2.03457 13.0768 2.0993 13.146 2.1738C13.2121 2.24746 13.2649 2.32419 13.3011 2.40622C13.3502 2.51309 13.3706 2.63083 13.362 2.75304C13.3536 2.87888 13.3128 3.00472 13.2361 3.1353Z" fill="#181210"/>
<path d="M15.2035 3.98883C15.1888 3.97544 15.1625 3.95479 15.1268 3.93079C15.0905 3.90987 15.0571 3.89452 15.025 3.88699C14.9957 3.87946 14.9563 3.89452 14.9097 3.92549C14.8629 3.95646 14.8101 4.00167 14.754 4.05914L14.2465 4.56528C14.1804 4.62918 14.112 4.67131 14.0386 4.69335C13.9622 4.71344 13.8888 4.7179 13.8135 4.70451C13.7415 4.68944 13.6729 4.6635 13.6131 4.63197C13.5518 4.59569 13.5015 4.55663 13.458 4.51255C13.3869 4.44112 13.3347 4.37025 13.2979 4.29659C13.2616 4.22404 13.2404 4.15317 13.2362 4.0837C13.2306 4.01562 13.2376 3.95256 13.2616 3.89452C13.2831 3.83593 13.3149 3.78264 13.3587 3.73939L14.0498 3.05161C14.0685 3.03236 14.0822 3.01422 14.0891 2.99609C14.0956 2.97572 14.0944 2.95172 14.0866 2.92075C14.0797 2.89954 14.0685 2.87722 14.0523 2.84821C14.0342 2.82393 14.0205 2.80468 14.0077 2.78766L14.0652 2.73102L14.5473 3.214L14.4876 3.27064C14.4731 3.25613 14.4502 3.24134 14.4226 3.22265C14.3975 3.2034 14.376 3.19112 14.3623 3.18331C14.3372 3.17187 14.3132 3.17047 14.2923 3.17745C14.2694 3.18805 14.2513 3.20144 14.232 3.22097L13.5869 3.86299C13.5554 3.89452 13.5266 3.92912 13.499 3.96902C13.4706 4.0092 13.4535 4.05775 13.4429 4.10574C13.434 4.15736 13.4371 4.21177 13.4558 4.26924C13.4728 4.32421 13.5149 4.38448 13.5794 4.45061C13.6396 4.50976 13.7016 4.55189 13.7585 4.57477C13.8193 4.59681 13.8771 4.60155 13.9323 4.59681C13.9848 4.5876 14.0306 4.57477 14.0727 4.55189C14.1154 4.52733 14.1528 4.50027 14.1862 4.46874L14.665 3.98995C14.7259 3.92912 14.7716 3.87694 14.8015 3.82895C14.8305 3.78152 14.8447 3.74357 14.8389 3.71372C14.8341 3.68079 14.8182 3.64396 14.7931 3.60295C14.768 3.56221 14.7476 3.53292 14.7301 3.51422L14.7884 3.45674L15.2633 3.93079L15.2035 3.98883Z" fill="#181210"/>
<path d="M14.4388 5.79437C14.3897 5.71011 14.3563 5.61943 14.3429 5.52093C14.33 5.42439 14.3381 5.32785 14.3657 5.23131C14.3931 5.13366 14.4411 5.04298 14.5097 4.95202C14.5781 4.86441 14.6699 4.786 14.7829 4.71792C14.8959 4.64956 15.0083 4.60631 15.1213 4.58706C15.2343 4.5653 15.342 4.5653 15.4439 4.58706C15.5468 4.60799 15.6392 4.649 15.7246 4.71039C15.8097 4.76954 15.8802 4.8446 15.9355 4.93974C15.9776 5.01061 16.0061 5.0773 16.0242 5.14342C16.0401 5.20844 16.0496 5.27819 16.046 5.34599H16.1408L16.1863 5.42746L15.6897 5.73522L15.6403 5.65737C15.6824 5.61469 15.726 5.56781 15.7703 5.51396C15.8166 5.45844 15.8493 5.40347 15.871 5.35073C15.8973 5.29326 15.9115 5.23243 15.9115 5.17579C15.909 5.11552 15.8914 5.05916 15.8576 5.00308C15.8205 4.93974 15.7703 4.88673 15.71 4.85157C15.6481 4.81111 15.5772 4.78991 15.4977 4.78237C15.4199 4.77707 15.3337 4.786 15.2366 4.81474C15.1417 4.84208 15.041 4.88673 14.9391 4.95034C14.8479 5.00308 14.7737 5.06167 14.7098 5.13171C14.6478 5.19979 14.6021 5.27066 14.5705 5.34599C14.5382 5.42439 14.5237 5.50057 14.5278 5.57897C14.529 5.65403 14.5518 5.73187 14.5945 5.79967C14.6272 5.85352 14.6654 5.89845 14.7087 5.93304C14.7519 5.96708 14.7977 5.99275 14.8456 6.00922C14.8948 6.02428 14.9464 6.03489 14.9977 6.03796C15.0504 6.03907 15.1032 6.03489 15.157 6.02428L15.1657 6.12082C14.9907 6.14789 14.8456 6.13254 14.7301 6.07646C14.6127 6.01675 14.5167 5.923 14.4388 5.79437Z" fill="#181210"/>
<path d="M15.7419 7.03291L16.2782 6.59513L15.5898 6.55718L15.7419 7.03291ZM15.2994 7.86689L15.0929 7.21427L15.1702 7.19027C15.1925 7.24552 15.2151 7.29267 15.2391 7.32448C15.2609 7.36075 15.2812 7.3747 15.2972 7.3694C15.3041 7.36773 15.3111 7.3655 15.32 7.3588C15.3306 7.35489 15.3387 7.35127 15.344 7.34373L15.6554 7.10378L15.4791 6.55132C15.4194 6.54351 15.3703 6.54016 15.3281 6.54016H15.2118C15.1749 6.54016 15.1462 6.54016 15.127 6.54351C15.1052 6.54658 15.0893 6.55132 15.0753 6.55467C15.0472 6.56471 15.031 6.59513 15.0296 6.64786C15.0273 6.69809 15.0354 6.75305 15.0502 6.8122L14.9729 6.83815L14.7852 6.24747L14.863 6.2218C14.87 6.24105 14.8823 6.26449 14.8998 6.2896C14.9155 6.31723 14.9325 6.33815 14.9495 6.35517C14.9771 6.37638 15.0056 6.39089 15.0332 6.40149C15.0619 6.41181 15.0951 6.41711 15.1398 6.4213C15.3616 6.43469 15.6102 6.45115 15.887 6.46929C16.1627 6.48743 16.4099 6.50333 16.6247 6.51617L16.6521 6.60573L15.4615 7.55969C15.4375 7.57783 15.4182 7.59959 15.406 7.61884C15.3909 7.63865 15.3809 7.66432 15.3714 7.69418C15.368 7.71427 15.3644 7.73994 15.368 7.76868C15.3703 7.79853 15.3714 7.82309 15.3786 7.84066L15.2994 7.86689Z" fill="#181210"/>
<path d="M16.5752 9.09291L16.5693 9.01283C16.5944 9.00391 16.6279 8.98884 16.6642 8.96708C16.6999 8.94671 16.734 8.92271 16.7672 8.89509C16.8018 8.87221 16.8294 8.84291 16.8545 8.81306C16.8785 8.7832 16.8908 8.75586 16.8941 8.72991C16.8941 8.70787 16.8941 8.67606 16.8919 8.64062C16.8919 8.60184 16.8908 8.56864 16.8871 8.53683L16.8813 8.4707L15.5679 8.57617C15.5417 8.57952 15.5177 8.58538 15.4982 8.59766C15.4789 8.61133 15.4619 8.63281 15.4527 8.65988C15.4502 8.67271 15.4432 8.7048 15.4393 8.74833C15.4335 8.79381 15.4309 8.83008 15.4321 8.85296L15.352 8.85937L15.2881 8.08566L15.3701 8.0798C15.3723 8.09905 15.3796 8.13058 15.3866 8.17801C15.3941 8.21959 15.4036 8.25195 15.4106 8.26702C15.4229 8.29213 15.4393 8.30859 15.4597 8.31975C15.4789 8.33036 15.5054 8.33315 15.5375 8.33203L16.862 8.22489L16.8573 8.15653C16.8545 8.13365 16.8534 8.10435 16.8475 8.0692C16.8439 8.03404 16.8391 8.00084 16.8333 7.96735C16.828 7.94336 16.8104 7.91825 16.78 7.89369C16.7501 7.86858 16.7181 7.84515 16.6818 7.8245C16.6449 7.80469 16.6076 7.78823 16.566 7.7726C16.5272 7.7567 16.494 7.7486 16.4664 7.74275L16.46 7.66127L16.9042 7.625L17.0188 9.05776L16.5752 9.09291Z" fill="#181210"/>
<path d="M15.271 10.0098L15.3444 9.27094L15.4267 9.27875C15.4256 9.29967 15.4256 9.33009 15.4245 9.36943C15.4233 9.41044 15.4256 9.43667 15.4292 9.45369C15.4367 9.48131 15.4507 9.50057 15.4655 9.51284C15.4825 9.52791 15.5051 9.53517 15.5349 9.53851L16.725 9.65626C16.7501 9.66072 16.7729 9.65626 16.7928 9.6504C16.812 9.64454 16.829 9.6264 16.8461 9.59599C16.8567 9.57423 16.8689 9.54605 16.8795 9.51117C16.8913 9.47769 16.8999 9.44951 16.901 9.42495L16.9836 9.43556L16.9116 10.1713L16.829 10.1635C16.829 10.1395 16.829 10.1111 16.8279 10.077C16.8279 10.046 16.8232 10.0137 16.8193 9.98969C16.812 9.95983 16.7981 9.93835 16.7788 9.92607C16.7596 9.91323 16.7367 9.90682 16.7127 9.90375L15.5238 9.78544C15.4987 9.78321 15.4747 9.78544 15.4538 9.79493C15.4345 9.80358 15.415 9.8206 15.4016 9.84822C15.3946 9.86441 15.384 9.88924 15.3728 9.92495C15.3625 9.96178 15.3567 9.99164 15.3536 10.0156L15.271 10.0098Z" fill="#181210"/>
<path d="M15.2095 11.3552C15.2644 11.4166 15.3306 11.4715 15.4098 11.5178C15.4899 11.5622 15.5811 11.6015 15.686 11.632C15.7937 11.6646 15.8967 11.6853 15.9927 11.6917C16.0898 11.6998 16.1765 11.6933 16.2519 11.6724C16.3286 11.6507 16.3936 11.6144 16.4486 11.5647C16.5024 11.5137 16.5409 11.45 16.5663 11.3716C16.5926 11.2826 16.5962 11.2012 16.5755 11.125C16.5527 11.0502 16.5142 10.9835 16.4581 10.9233C16.4053 10.8658 16.3378 10.813 16.2555 10.7692C16.1729 10.7243 16.085 10.6855 15.9879 10.6557C15.8827 10.6225 15.7826 10.6043 15.6905 10.5954C15.5993 10.589 15.5139 10.5937 15.4349 10.6147C15.3582 10.6359 15.2909 10.671 15.2346 10.7207C15.1796 10.7692 15.14 10.8337 15.1135 10.9202C15.0884 11.0005 15.0847 11.0753 15.1018 11.149C15.1193 11.2268 15.1545 11.2943 15.2095 11.3552ZM16.2736 11.8655C16.1799 11.9135 16.0758 11.9392 15.9606 11.9492C15.8462 11.9562 15.7262 11.9392 15.6029 11.9023C15.4782 11.8638 15.3705 11.8063 15.2815 11.7374C15.1913 11.6646 15.1219 11.5817 15.0714 11.4869C15.0211 11.3973 14.9924 11.3008 14.9807 11.1964C14.972 11.094 14.9807 10.9911 15.0142 10.8898C15.0474 10.7798 15.1001 10.6844 15.1698 10.6043C15.2393 10.524 15.3214 10.4626 15.4157 10.4182C15.508 10.3767 15.611 10.349 15.7251 10.3421C15.8403 10.3373 15.9547 10.3518 16.0727 10.387C16.2005 10.4263 16.3082 10.4835 16.3959 10.5563C16.4832 10.6241 16.5527 10.7079 16.6054 10.7991C16.657 10.8917 16.6849 10.9899 16.6966 11.094C16.705 11.1964 16.6966 11.3008 16.6645 11.4001C16.6319 11.5044 16.5825 11.5979 16.5142 11.68C16.4475 11.7578 16.3654 11.8217 16.2736 11.8655Z" fill="#181210"/>
<path d="M15.1798 14.0312C15.192 14.0131 15.2038 13.981 15.2171 13.9364C15.2347 13.8926 15.2406 13.8585 15.2411 13.8362C15.2395 13.7999 15.2171 13.7673 15.1761 13.7285C15.1351 13.6911 15.079 13.649 15.0082 13.6041L13.9897 12.9562L14.0447 12.8719L15.718 12.7531L15.0001 12.2958C14.9203 12.2461 14.8536 12.2104 14.8056 12.1934C14.7565 12.1752 14.7155 12.1719 14.6834 12.1811C14.6605 12.1869 14.6279 12.2104 14.5849 12.2478C14.5416 12.2882 14.5154 12.3139 14.5054 12.3292L14.4359 12.2854L14.7992 11.7129L14.8689 11.7581C14.8594 11.7762 14.8461 11.8114 14.8307 11.8599C14.8162 11.9096 14.8081 11.9411 14.8115 11.9587C14.8151 11.9939 14.8321 12.0268 14.8653 12.0572C14.8988 12.0921 14.9591 12.1362 15.0503 12.1939L15.735 12.6311C15.766 12.6512 15.7995 12.6629 15.8357 12.6733C15.8714 12.6805 15.9044 12.6805 15.9317 12.6752C15.9685 12.6646 16.0062 12.6448 16.0458 12.615C16.0899 12.5873 16.1173 12.5569 16.1343 12.534L16.204 12.5787L15.9524 12.9738L14.3954 13.0812L15.0562 13.5008C15.1376 13.5541 15.2024 13.5871 15.2529 13.6046C15.302 13.6217 15.3394 13.625 15.3681 13.6138C15.3899 13.6046 15.4219 13.5823 15.4607 13.5497C15.4987 13.5145 15.5249 13.4874 15.5397 13.4665L15.6092 13.5114L15.2503 14.0762L15.1798 14.0312Z" fill="#181210"/>
<path d="M8.99637 0.138114C4.11161 0.138114 0.138114 4.11272 0.138114 8.99637C0.138114 13.88 4.11161 17.8535 8.99637 17.8535C13.88 17.8535 17.8524 13.88 17.8524 8.99637C17.8524 4.11272 13.88 0.138114 8.99637 0.138114ZM8.99637 17.9905C4.03599 17.9905 0 13.9548 0 8.99637C0 4.0385 4.03599 0 8.99637 0C13.9554 0 17.9905 4.0385 17.9905 8.99637C17.9905 13.9548 13.9554 17.9905 8.99637 17.9905Z" fill="#181210"/>
<path d="M6.18982 14.6169L6.25483 14.6546C6.30171 14.7171 6.21856 14.8147 6.00372 14.9506L6.15885 15.0583L6.72832 15.3778C6.70545 15.519 6.62397 15.5525 6.48949 15.478C6.49423 15.457 6.32793 15.3574 5.99088 15.1761L5.79417 15.0999L5.62844 15.1864C5.51906 15.1532 5.46633 15.0684 5.46995 14.9325L5.49813 14.877C5.68815 14.9102 5.91889 14.8237 6.18982 14.6169ZM6.11672 15.4311L6.19094 15.4763C6.25595 15.5078 6.19345 15.625 6.00372 15.824C5.93926 15.9141 5.81705 16.0315 5.63681 16.1814C5.70628 16.4233 5.82989 16.6317 6.0079 16.8067L6.11086 16.9091C6.06398 17.0435 5.90411 17.0466 5.62983 16.9183C5.57012 16.8973 5.50037 16.6878 5.41834 16.2927L5.41248 16.2874C5.32654 16.3284 5.1954 16.36 5.01683 16.3823C4.95963 16.3823 4.89936 16.3706 4.83854 16.3449C4.73837 16.2762 4.69428 16.1557 4.7074 15.9855L4.74702 15.9099L4.76236 15.9065C4.94735 16.0608 5.15327 16.1044 5.38039 16.0382L5.32431 15.457L5.34886 15.4096C5.37676 15.3826 5.40438 15.3778 5.42615 15.3901L5.48335 15.4247C5.50399 15.4266 5.51906 15.5095 5.53022 15.6769L5.57933 15.9568C5.71465 15.9035 5.87899 15.7313 6.07347 15.4395L6.11672 15.4311ZM5.16555 14.3145L5.00762 14.5475L5.09942 14.6024C5.20656 14.5807 5.32124 14.5427 5.44122 14.4852L5.43898 14.4749L5.16555 14.3145ZM5.19428 13.906L5.27436 13.9529C5.3324 14.0131 5.32431 14.0868 5.25037 14.1699L5.51683 14.3466C5.54361 14.363 5.54947 14.3982 5.53245 14.4467L5.7233 14.3588L5.77018 14.3848C5.79641 14.4978 5.64127 14.6046 5.30478 14.7118L5.45712 14.8136C5.40438 14.9459 5.31426 14.9629 5.18257 14.8569L5.06036 14.7768L4.7805 14.8136L5.26041 15.1052C5.32012 15.18 5.2593 15.2182 5.07542 15.2093L4.72191 15.262L4.74479 15.457L5.02046 15.5793C5.04668 15.7029 4.94484 15.7132 4.71605 15.6139L4.70154 15.6379C4.6728 15.7601 4.58965 15.9018 4.45098 16.0634C4.23139 16.1814 4.00567 16.1242 3.77074 15.8918L3.80059 15.625H3.82598L4.03469 15.7963C4.20851 15.8853 4.33686 15.8731 4.41806 15.7553L4.52185 15.5745C4.4281 15.5355 4.15941 15.4752 3.7194 15.3948C3.67252 15.3719 3.65438 15.3446 3.66024 15.3089L3.70461 15.2257C3.71047 15.1398 3.88095 15.1591 4.21437 15.2877L4.58156 15.4007C4.60556 15.3901 4.58017 15.2785 4.50009 15.0684L4.52185 15.0262L4.55031 15.0173C4.58268 15.0215 4.62481 15.0625 4.67503 15.1398L4.90857 15.0871L4.9161 15.0731C4.73 14.901 4.47247 14.8044 4.14713 14.7799L4.02966 14.7442C3.94819 14.6803 3.91024 14.5837 3.91722 14.4632L3.94596 14.4099C3.95768 14.3945 4.01543 14.4317 4.11616 14.5092C4.27827 14.6228 4.50706 14.6697 4.80199 14.6504L4.82375 14.6381L4.38123 14.3848L4.17866 14.3L4.14713 14.2319L4.18117 14.1652C4.22498 14.1326 4.26711 14.1194 4.30701 14.1278C4.34021 14.1663 4.51934 14.274 4.84412 14.4414L4.96075 14.1923L4.56984 14.0201L4.55394 13.954L4.58965 13.8906L4.6968 13.8563L5.03971 14.0505L5.13569 13.9135L5.19428 13.906Z" fill="#181210"/>
<path d="M9.10275 15.5625C9.02267 15.6473 8.8879 15.7525 8.69957 15.875V15.8825C8.81592 15.9406 9.122 15.9406 9.61837 15.8825L9.62535 15.8474L9.42167 15.5689L9.10275 15.5625ZM9.02379 16.4024L8.65046 16.4456L8.64348 16.5954L9.74672 16.6007V16.4305L9.71212 16.4024H9.02379ZM9.73947 16.7587L8.63511 16.8067L8.61223 16.9623L9.72663 16.9702L9.73947 16.7587ZM9.85247 16.2302H9.93394C10.0151 16.2238 10.0151 16.3549 9.93394 16.6166L9.92557 17.1259C9.95319 17.1984 9.95319 17.3153 9.92557 17.4769C9.75063 17.5636 9.68338 17.4453 9.72663 17.1259C9.38316 17.1058 8.98528 17.1259 8.53439 17.1719C8.39293 17.3834 8.18394 17.5003 7.90716 17.5137C7.78132 17.471 7.68171 17.3926 7.60498 17.2796V17.2146C7.60498 17.19 7.64181 17.1842 7.7138 17.19C7.86503 17.2006 8.04415 17.1738 8.25119 17.1058C8.46826 17.038 8.53216 16.7665 8.44315 16.2963L8.49477 16.245C8.49951 16.2595 8.65688 16.2595 8.96715 16.245L9.78411 16.2467L9.85247 16.2302ZM9.09689 15.0474H9.19399C9.28355 15.0427 9.29834 15.1546 9.23863 15.3823L10.3589 15.3781L10.6633 15.3611C10.7317 15.4596 10.6463 15.5578 10.4063 15.6526L9.67111 15.5818L9.92334 15.9534C9.9292 16.0424 9.89069 16.0815 9.80448 16.074L8.92027 16.0804C8.91915 16.0611 8.78746 16.0611 8.52909 16.0804C8.43729 16.0996 8.37591 16.0851 8.33545 16.0307V15.961C8.3162 15.9353 8.4133 15.8622 8.62646 15.7391L8.79834 15.5625C8.65576 15.553 8.33126 15.5787 7.82568 15.6378C7.76067 15.6697 7.6912 15.6638 7.62033 15.618L7.60498 15.5262L7.7138 15.4191C7.71854 15.4319 7.94817 15.4266 8.40102 15.3979L9.05838 15.3823L9.00928 15.1546V15.1351C9.02379 15.0807 9.05253 15.0522 9.09689 15.0474Z" fill="#181210"/>
<path d="M12.8405 14.4526L13.5364 15.2391C13.6739 15.1443 13.7688 15.0237 13.8193 14.8739L13.8249 14.7573L13.7641 14.6697C13.7027 14.6099 13.5961 14.5988 13.4418 14.6351C13.4164 14.6228 13.3732 14.6842 13.316 14.8178C13.2889 14.8452 13.259 14.8527 13.2303 14.834L13.1907 14.7896L13.2158 14.1669L13.1982 14.1652L12.8405 14.4526ZM12.5925 14.449L13.3093 13.8742C13.444 13.8362 13.4798 13.9643 13.4136 14.2634L13.4041 14.4389C13.4078 14.457 13.4605 14.457 13.5618 14.4389C13.7917 14.4361 13.9404 14.5168 14.0113 14.6825C14.0796 14.9177 13.9608 15.1496 13.6536 15.3747L13.9608 15.7101C13.9943 15.7559 14.0054 15.8044 13.9965 15.8594C13.9496 15.9308 13.8888 15.9339 13.8157 15.8717C13.7582 15.7921 13.4477 15.4247 12.8863 14.7715L12.7099 14.5865C12.6991 14.6228 12.662 14.644 12.6053 14.6484L12.5456 14.5893C12.5275 14.5491 12.5434 14.5056 12.5925 14.449ZM12.4209 16.0684C12.367 16.0896 12.3935 16.1521 12.4929 16.2598L12.6544 16.4534L12.7172 16.4489L13.09 16.1392L13.1753 16.0801C13.2088 16.0592 13.1525 15.9643 13.0015 15.798L12.9273 15.7101C12.9033 15.6822 12.7744 15.7712 12.5397 15.9735L12.4209 16.0684ZM12.1686 16.0533C12.1846 16.0274 12.2459 15.9942 12.3548 15.952L12.8213 15.5857C12.8282 15.5533 12.8539 15.5265 12.8991 15.5006C12.9524 15.4568 13.0554 15.5597 13.2052 15.8044L13.3645 15.993C13.4111 16.0315 13.4078 16.0801 13.3598 16.1365C13.3433 16.1152 13.148 16.2668 12.7769 16.5865L12.6667 16.6736L12.614 16.6644C12.6282 16.6496 12.5311 16.5321 12.3296 16.3114L12.1547 16.1183L12.1686 16.0533ZM11.7579 14.8873L11.8235 14.834C11.8824 14.7813 11.9602 14.8452 12.0503 15.0271L12.4362 14.7118C12.5356 14.7983 12.5216 14.8798 12.3935 14.9551L11.7398 15.4796L11.5992 15.6247L11.533 15.6272L11.4915 15.5793C11.4781 15.5324 11.4814 15.4897 11.501 15.4598C11.5593 15.4358 11.694 15.3256 11.9078 15.1348L11.7398 15.0008C11.7217 14.9534 11.7275 14.9177 11.7579 14.8873ZM12.3606 15.0686L12.422 15.0201C12.4895 14.9721 12.5526 15.0611 12.6095 15.2829L12.6246 15.3041L12.8528 15.1063C12.9502 15.1256 12.9689 15.1864 12.9103 15.2846L12.4689 15.6323C12.3707 15.6875 12.1703 15.8625 11.869 16.161C11.8358 16.1755 11.8118 16.1766 11.7936 16.1632L11.7549 16.1169C11.7362 16.0631 11.7443 16.0198 11.7766 15.9852C11.814 15.9643 11.9078 15.8881 12.0598 15.7581C12.0679 15.7388 12.0118 15.7084 11.8907 15.6652L11.7923 15.6077C11.783 15.5728 11.79 15.543 11.8082 15.5212L11.8801 15.4643C11.9147 15.4082 12.006 15.4702 12.1536 15.6504L12.1639 15.6727L12.5157 15.3906L12.3489 15.1225L12.3606 15.0686Z" fill="#181210"/>
</g>
<defs>
<clipPath id="clip0_825_630">
<rect width="18" height="18" fill="white"/>
</clipPath>
</defs>
</svg>
