<svg width="41" height="18" viewBox="0 0 41 18" fill="none" xmlns="http://www.w3.org/2000/svg">
<g clip-path="url(#clip0_825_513)">
<path d="M17.0353 15.8323C16.9815 15.8143 16.9302 15.804 16.8841 15.804C16.8149 15.804 16.7586 15.822 16.7176 15.8554C16.6766 15.8888 16.6561 15.9351 16.6561 15.9943C16.6561 16.0277 16.6637 16.0585 16.6766 16.0843C16.6919 16.11 16.7099 16.1331 16.7355 16.1537C16.7611 16.1743 16.7867 16.1897 16.8201 16.2051C16.8508 16.2205 16.8816 16.236 16.9174 16.2488C16.9533 16.2643 16.9892 16.2823 17.0225 16.3003C17.0558 16.3183 17.0891 16.3388 17.1147 16.362C17.1429 16.3851 17.1634 16.4134 17.1814 16.4468C17.1993 16.4803 17.207 16.5188 17.207 16.5625C17.207 16.668 17.166 16.7477 17.084 16.8017C17.002 16.8583 16.8969 16.884 16.7662 16.884C16.6817 16.884 16.5894 16.8711 16.4895 16.8403L16.4844 16.8351L16.5228 16.5651L16.5587 16.56L16.6151 16.7837C16.6714 16.8068 16.7278 16.8171 16.7868 16.8171C16.8662 16.8171 16.9277 16.7991 16.9713 16.7657C17.0148 16.7323 17.0379 16.6808 17.0379 16.6165C17.0379 16.5831 17.0302 16.5523 17.0174 16.5265C17.0046 16.5008 16.9841 16.4803 16.961 16.4597C16.9379 16.4417 16.9098 16.4237 16.879 16.4108C16.8483 16.3954 16.8175 16.38 16.7842 16.3671C16.7483 16.3517 16.7124 16.3337 16.6766 16.3157C16.6407 16.2977 16.6099 16.2771 16.5817 16.2514C16.5536 16.2283 16.5305 16.1974 16.5151 16.1614C16.4972 16.1254 16.4895 16.0843 16.4895 16.038C16.4895 15.9428 16.5279 15.8683 16.6099 15.8168C16.6894 15.7654 16.7893 15.7397 16.9046 15.7397C16.9866 15.7397 17.0737 15.75 17.166 15.768L17.1711 15.7731L17.125 16.02L17.0942 16.0251L17.0353 15.8323Z" fill="white"/>
<path d="M17.4173 16.4931C17.4173 16.5908 17.4352 16.6731 17.4711 16.7348C17.507 16.7965 17.5634 16.8274 17.6351 16.8274C17.7017 16.8274 17.7555 16.7991 17.7889 16.7451C17.8247 16.6911 17.8427 16.6088 17.8427 16.5034C17.8427 16.4031 17.8247 16.3234 17.7863 16.2643C17.7479 16.2051 17.694 16.1768 17.6249 16.1768C17.5582 16.1768 17.507 16.2025 17.4711 16.2565C17.4352 16.308 17.4173 16.3877 17.4173 16.4931ZM18.0041 16.4854C18.0041 16.6063 17.9682 16.704 17.8965 16.776C17.8247 16.8505 17.7325 16.8865 17.6197 16.8865C17.5095 16.8865 17.4224 16.8505 17.3558 16.7811C17.2892 16.7117 17.2559 16.6191 17.2559 16.5085C17.2559 16.3928 17.2917 16.2977 17.3609 16.2231C17.4327 16.1485 17.5249 16.1125 17.6402 16.1125C17.7504 16.1125 17.8375 16.146 17.9042 16.2154C17.9708 16.2848 18.0041 16.3748 18.0041 16.4854Z" fill="white"/>
<path d="M18.0708 16.1691C18.1579 16.1511 18.2425 16.1331 18.3219 16.1151L18.3296 16.1203V16.2128C18.4219 16.1485 18.5064 16.1151 18.5859 16.1151C18.6602 16.1151 18.7191 16.1357 18.7627 16.1768C18.8037 16.218 18.8267 16.2771 18.8267 16.3543V16.6345C18.8267 16.7014 18.8267 16.7503 18.8293 16.7811C18.8293 16.7965 18.837 16.8043 18.8498 16.8094L18.9369 16.8351L18.9395 16.8685C18.8703 16.866 18.8088 16.866 18.7576 16.866C18.7063 16.866 18.6474 16.866 18.5859 16.8685L18.5833 16.8351L18.6627 16.812C18.6756 16.8068 18.6807 16.7991 18.6832 16.7863C18.6832 16.7785 18.6832 16.7631 18.6832 16.7374V16.3928C18.6832 16.3285 18.6679 16.2823 18.6371 16.254C18.6064 16.2257 18.5602 16.2128 18.5013 16.2128C18.4475 16.2128 18.3937 16.2283 18.3373 16.2591V16.6037C18.3373 16.6705 18.3373 16.7297 18.3399 16.7837C18.3399 16.7991 18.3476 16.8068 18.3578 16.812L18.4398 16.8351L18.4424 16.8685C18.3783 16.866 18.3194 16.866 18.2681 16.866C18.2169 16.866 18.1554 16.866 18.0836 16.8685L18.0811 16.8351L18.1733 16.8094C18.1861 16.8043 18.1912 16.7965 18.1912 16.7837C18.1912 16.7503 18.1912 16.7168 18.1912 16.686V16.416C18.1912 16.3465 18.1912 16.2823 18.1887 16.2231L18.0836 16.1948L18.0708 16.1691Z" fill="white"/>
<path d="M19.165 16.3748C19.165 16.4443 19.1778 16.4957 19.2034 16.5343C19.229 16.5703 19.2675 16.5908 19.3187 16.5908C19.3674 16.5908 19.4033 16.5728 19.4263 16.5394C19.4494 16.5034 19.4622 16.452 19.4622 16.3851C19.4622 16.3208 19.4494 16.2694 19.4238 16.2308C19.3982 16.1923 19.3597 16.1743 19.3085 16.1743C19.2598 16.1743 19.2239 16.1923 19.2008 16.2257C19.1778 16.2591 19.165 16.3105 19.165 16.3748ZM19.1778 16.902C19.1445 16.9534 19.1291 17.0023 19.1291 17.0485C19.1291 17.0948 19.147 17.1308 19.1803 17.1565C19.2137 17.1823 19.2598 17.1951 19.3187 17.1951C19.3879 17.1951 19.4494 17.1771 19.5007 17.1437C19.5519 17.1103 19.5775 17.0614 19.5775 16.9997C19.5775 16.9688 19.5647 16.9431 19.5391 16.9251C19.5135 16.9071 19.4648 16.8994 19.393 16.8994C19.3674 16.8994 19.3392 16.8994 19.311 16.902C19.2803 16.902 19.2521 16.9045 19.2239 16.9045C19.2111 16.9045 19.1957 16.902 19.1778 16.902ZM19.5673 16.2154C19.6083 16.2591 19.6288 16.3105 19.6288 16.3723C19.6288 16.4571 19.6006 16.524 19.5468 16.5754C19.493 16.6268 19.4238 16.65 19.3418 16.65C19.2957 16.65 19.2547 16.6423 19.2162 16.6268C19.1906 16.6731 19.1778 16.7091 19.1778 16.7348C19.1778 16.7503 19.1855 16.758 19.1983 16.7631C19.2111 16.7683 19.2393 16.7708 19.2752 16.7708C19.3033 16.7708 19.3367 16.7708 19.3751 16.7683C19.4135 16.7657 19.4494 16.7657 19.4827 16.7657C19.5622 16.7657 19.6262 16.7811 19.6749 16.8145C19.721 16.8454 19.7441 16.8943 19.7441 16.956C19.7441 17.0511 19.698 17.1257 19.6057 17.1797C19.5135 17.2337 19.4058 17.262 19.288 17.262C19.1906 17.262 19.1137 17.2465 19.0573 17.2157C18.9984 17.1848 18.9702 17.1437 18.9702 17.0923C18.9702 17.0254 19.0138 16.9585 19.0983 16.8917C19.0445 16.8711 19.0163 16.8428 19.0163 16.8068C19.0163 16.758 19.0548 16.6911 19.1291 16.6063C19.0471 16.5548 19.0061 16.4828 19.0061 16.3877C19.0061 16.3054 19.0368 16.2385 19.0958 16.1897C19.1547 16.1408 19.2316 16.1151 19.3264 16.1151C19.352 16.1151 19.3853 16.1177 19.4263 16.1254C19.4673 16.1331 19.4981 16.1357 19.5212 16.1357C19.6006 16.1357 19.6749 16.1357 19.7415 16.1331L19.7467 16.164L19.5673 16.2154Z" fill="white"/>
<path d="M20.1948 16.1948C20.164 16.1871 20.1307 16.182 20.0948 16.182C20.0462 16.182 20.0077 16.1922 19.977 16.2102C19.9462 16.2282 19.9334 16.2565 19.9334 16.29C19.9334 16.3234 19.9437 16.3465 19.9616 16.3645C19.9795 16.3825 20.0154 16.4005 20.0641 16.4185L20.1282 16.4417C20.1973 16.4674 20.246 16.4957 20.2793 16.5265C20.3127 16.56 20.328 16.6011 20.328 16.6525C20.328 16.7245 20.2973 16.7837 20.2332 16.8274C20.1692 16.8685 20.0948 16.8917 20.0077 16.8917C19.9283 16.8917 19.8463 16.8762 19.7617 16.8428C19.7797 16.7734 19.795 16.7065 19.8053 16.6422L19.836 16.6371L19.8924 16.8068C19.9232 16.8171 19.959 16.8248 20.0077 16.8248C20.0564 16.8248 20.0948 16.8145 20.123 16.794C20.1512 16.7734 20.1666 16.7451 20.1666 16.7091C20.1666 16.6757 20.1563 16.6474 20.1384 16.6294C20.1179 16.6114 20.0897 16.5934 20.0462 16.5805L19.9642 16.5522C19.8924 16.5291 19.8437 16.5008 19.8155 16.4674C19.7873 16.434 19.7745 16.3928 19.7745 16.3414C19.7745 16.272 19.8078 16.218 19.8745 16.1768C19.9411 16.1357 20.0154 16.1177 20.1025 16.1177C20.182 16.1177 20.2537 16.128 20.3203 16.1511C20.305 16.2102 20.2922 16.2745 20.2793 16.3414L20.2435 16.3465L20.1948 16.1948Z" fill="white"/>
<path d="M20.3589 15.7294C20.4434 15.7114 20.5306 15.6934 20.6177 15.6729L20.6254 15.6806C20.6228 15.7294 20.6228 15.8014 20.6203 15.8914V16.2026C20.7125 16.1434 20.7971 16.1151 20.8765 16.1151C20.9483 16.1151 21.0072 16.1357 21.0508 16.1769C21.0943 16.218 21.1148 16.2771 21.1148 16.3569V16.6371C21.1148 16.6989 21.1148 16.7477 21.1174 16.7837C21.1174 16.7966 21.1251 16.8069 21.1379 16.812L21.225 16.8377L21.2276 16.8711C21.1584 16.8686 21.0969 16.8686 21.0456 16.8686C20.9944 16.8686 20.9354 16.8686 20.8739 16.8711L20.8714 16.8377L20.9508 16.8146C20.9636 16.8094 20.9713 16.8017 20.9713 16.7889C20.9713 16.7811 20.9713 16.7657 20.9713 16.74V16.3954C20.9713 16.3311 20.956 16.2849 20.9252 16.2566C20.8945 16.2283 20.8483 16.2154 20.7894 16.2154C20.7381 16.2154 20.6818 16.2283 20.6254 16.254V16.6089C20.6254 16.6731 20.6254 16.7349 20.6279 16.7889C20.6279 16.8043 20.6356 16.812 20.6485 16.8171L20.7305 16.8403L20.733 16.8737C20.6664 16.8711 20.6075 16.8711 20.5562 16.8711C20.505 16.8711 20.4434 16.8711 20.3717 16.8737L20.3691 16.8403L20.4588 16.8146C20.4716 16.8094 20.4793 16.8017 20.4793 16.7889C20.4793 16.7374 20.4819 16.6731 20.4819 16.596V16.2643C20.4819 16.1563 20.4819 16.0611 20.4819 15.9789C20.4819 15.8966 20.4793 15.8349 20.4793 15.7911L20.3743 15.7603L20.3589 15.7294Z" fill="white"/>
<path d="M21.6993 16.5085C21.5891 16.5085 21.5148 16.5188 21.4738 16.542C21.4328 16.5651 21.4123 16.6037 21.4123 16.6551C21.4123 16.7065 21.4251 16.74 21.4533 16.7605C21.4789 16.7811 21.5148 16.7914 21.5635 16.7914C21.6147 16.7914 21.6609 16.7811 21.6993 16.7631V16.5085ZM21.3175 16.182C21.42 16.1383 21.5122 16.1151 21.5891 16.1151C21.6711 16.1151 21.7326 16.1357 21.7813 16.1794C21.8274 16.2205 21.8505 16.2823 21.8505 16.362L21.8454 16.6911C21.8454 16.7194 21.8454 16.74 21.8479 16.7554C21.8505 16.7708 21.8556 16.7837 21.8633 16.794C21.871 16.8017 21.8812 16.8094 21.8966 16.812C21.912 16.8145 21.9325 16.8171 21.9581 16.8171L21.9607 16.848C21.9376 16.8583 21.9094 16.866 21.8787 16.8763C21.8454 16.8865 21.8249 16.8891 21.812 16.8891C21.7608 16.8891 21.7249 16.8634 21.707 16.8094C21.6327 16.8634 21.5635 16.8891 21.4969 16.8891C21.4225 16.8891 21.3636 16.8711 21.32 16.8351C21.2739 16.7991 21.2534 16.7477 21.2534 16.6808C21.2534 16.5985 21.2893 16.5394 21.361 16.5008C21.4328 16.4623 21.5455 16.4417 21.7019 16.4417V16.38C21.7019 16.3208 21.6865 16.2771 21.6557 16.2488C21.625 16.2205 21.5789 16.2051 21.5148 16.2051C21.4661 16.2051 21.4072 16.2128 21.3354 16.2334L21.3175 16.182Z" fill="white"/>
<path d="M21.9937 16.1691C22.0833 16.1511 22.1653 16.1331 22.2448 16.1151L22.2525 16.1203V16.2128C22.3447 16.1485 22.4293 16.1151 22.5087 16.1151C22.583 16.1151 22.642 16.1357 22.6855 16.1768C22.7265 16.218 22.7496 16.2771 22.7496 16.3543V16.6345V16.7811C22.7496 16.7965 22.7573 16.8043 22.7701 16.8094L22.8572 16.8351L22.8598 16.8685C22.7906 16.866 22.7291 16.866 22.6778 16.866C22.6266 16.866 22.5677 16.866 22.5062 16.8685L22.5036 16.8351L22.583 16.812C22.5958 16.8068 22.601 16.7991 22.6035 16.7863C22.6035 16.7785 22.6035 16.7631 22.6035 16.7374V16.3928C22.6035 16.3285 22.5882 16.2823 22.5574 16.254C22.5267 16.2257 22.4805 16.2128 22.419 16.2128C22.3652 16.2128 22.3114 16.2283 22.255 16.2591V16.6037C22.255 16.6705 22.255 16.7297 22.2576 16.7837C22.2576 16.7991 22.2627 16.8068 22.2755 16.812L22.3575 16.8351L22.3601 16.8685C22.296 16.866 22.2371 16.866 22.1833 16.866C22.132 16.866 22.0705 16.866 22.0013 16.8685L21.9988 16.8351L22.091 16.8094C22.1013 16.8043 22.109 16.7965 22.109 16.7837C22.109 16.7503 22.109 16.7168 22.109 16.686V16.416C22.109 16.3465 22.109 16.2823 22.1064 16.2231L22.0013 16.1948L21.9937 16.1691Z" fill="white"/>
<path d="M24.1183 16.0354L24.0876 16.0406L24.0312 15.8323C23.9671 15.8168 23.9056 15.8091 23.8544 15.8091C23.7263 15.8091 23.6238 15.8554 23.552 15.9454C23.4777 16.0354 23.4418 16.1511 23.4418 16.2951C23.4418 16.4494 23.4828 16.5728 23.5674 16.6628C23.652 16.7554 23.7673 16.7991 23.9159 16.7991C24.0005 16.7991 24.0876 16.7837 24.1798 16.7503L24.1875 16.7863C24.085 16.8583 23.9671 16.8943 23.8365 16.8943C23.6673 16.8943 23.529 16.8428 23.4239 16.7374C23.3188 16.6345 23.2676 16.4957 23.2676 16.326C23.2676 16.146 23.3265 16.002 23.4418 15.8965C23.5571 15.7911 23.7083 15.7371 23.8928 15.7371C23.9825 15.7371 24.0722 15.7474 24.167 15.7706L24.1721 15.7783L24.1183 16.0354Z" fill="white"/>
<path d="M24.7946 16.7965C24.7126 16.8583 24.6306 16.8891 24.5486 16.8891C24.4666 16.8891 24.4051 16.8685 24.3641 16.8248C24.3231 16.7837 24.3026 16.7245 24.3026 16.6474V16.4803C24.3026 16.3671 24.3026 16.2823 24.3 16.2257L24.1949 16.1974L24.1924 16.1691C24.2846 16.1511 24.3692 16.1331 24.4486 16.1151L24.4563 16.1203C24.4538 16.182 24.4512 16.2617 24.4512 16.3594V16.6114C24.4512 16.6757 24.4666 16.722 24.4948 16.7503C24.5255 16.7785 24.5665 16.794 24.6203 16.794C24.6741 16.794 24.7305 16.7785 24.7869 16.7503V16.4134C24.7869 16.3388 24.7843 16.2771 24.7843 16.2283L24.6793 16.2L24.6741 16.1717C24.7664 16.1537 24.8509 16.1357 24.9304 16.1177L24.9381 16.1228C24.9355 16.1845 24.9329 16.2668 24.9329 16.3645C24.9329 16.5548 24.9329 16.6731 24.9355 16.7143C24.9355 16.7348 24.9381 16.7528 24.9406 16.7657C24.9432 16.7785 24.9483 16.7888 24.956 16.7965C24.9637 16.8043 24.9739 16.8094 24.9893 16.812C25.0047 16.8145 25.0226 16.8171 25.0483 16.8171L25.0534 16.848C25.0303 16.8583 25.0021 16.866 24.9688 16.8763C24.9381 16.884 24.915 16.8891 24.9048 16.8891C24.8484 16.8865 24.8125 16.8583 24.7946 16.7965Z" fill="white"/>
<path d="M25.0896 15.7577L25.0845 15.732C25.1767 15.714 25.2638 15.696 25.3433 15.6754L25.351 15.6831C25.3484 15.768 25.3458 15.8888 25.3458 16.0406V16.5548C25.3458 16.65 25.3458 16.7246 25.3484 16.7837C25.351 16.7991 25.3587 16.8094 25.3715 16.812L25.456 16.8377L25.4586 16.8711C25.3894 16.8686 25.3253 16.8686 25.2741 16.8686C25.2228 16.8686 25.1613 16.8686 25.0922 16.8711L25.0896 16.8377L25.1793 16.812C25.1921 16.8068 25.1998 16.7991 25.1998 16.7863C25.1998 16.7271 25.2023 16.6603 25.2023 16.5857V16.2617C25.2023 16.0663 25.2023 15.9094 25.1998 15.7886L25.0896 15.7577Z" fill="white"/>
<path d="M25.7427 16.2205C25.7401 16.398 25.7376 16.542 25.7376 16.6525C25.7376 16.7065 25.7453 16.7451 25.7606 16.7657C25.7786 16.7863 25.8093 16.7965 25.8529 16.7965C25.8888 16.7965 25.9374 16.7914 25.9938 16.7837L25.9989 16.8197C25.9093 16.866 25.8273 16.8891 25.7555 16.8891C25.6966 16.8891 25.653 16.8737 25.6248 16.8428C25.5966 16.812 25.5813 16.7657 25.5813 16.704C25.5813 16.6011 25.5838 16.4391 25.5864 16.218L25.4788 16.1897L25.4736 16.1588L25.5966 16.1485L25.653 15.9583C25.6838 15.9505 25.7094 15.9428 25.735 15.9351L25.7427 15.9403C25.7401 16.0045 25.7401 16.0637 25.7401 16.1203V16.1485H25.9784V16.2231H25.7427V16.2205Z" fill="white"/>
<path d="M26.6166 16.7965C26.5346 16.8583 26.4526 16.8891 26.3706 16.8891C26.2886 16.8891 26.2271 16.8685 26.1835 16.8248C26.1425 16.7837 26.122 16.7245 26.122 16.6474V16.4803C26.122 16.3671 26.122 16.2823 26.1195 16.2257L26.0144 16.1974L26.0093 16.1691C26.1015 16.1511 26.1861 16.1331 26.2655 16.1151L26.2732 16.1203C26.2707 16.182 26.2681 16.2617 26.2681 16.3594V16.6114C26.2681 16.6757 26.2835 16.722 26.3142 16.7503C26.345 16.7785 26.386 16.794 26.4398 16.794C26.4936 16.794 26.55 16.7785 26.6089 16.7503V16.4134C26.6089 16.3388 26.6063 16.2771 26.6063 16.2283L26.5013 16.2L26.4962 16.1717C26.5884 16.1537 26.673 16.1357 26.7524 16.1177L26.7601 16.1228C26.7575 16.1845 26.755 16.2668 26.755 16.3645C26.755 16.5548 26.755 16.6731 26.7575 16.7143C26.7575 16.7348 26.7601 16.7528 26.7627 16.7657C26.7652 16.7785 26.7703 16.7888 26.778 16.7965C26.7857 16.8043 26.796 16.8094 26.8113 16.812C26.8267 16.8145 26.8447 16.8171 26.8703 16.8171L26.8754 16.848C26.8523 16.8583 26.8242 16.866 26.7908 16.8763C26.7601 16.884 26.737 16.8891 26.7268 16.8891C26.6678 16.8865 26.6345 16.8583 26.6166 16.7965Z" fill="white"/>
<path d="M26.9141 16.1691C27.0012 16.1511 27.0858 16.1331 27.1652 16.1151L27.1729 16.1203V16.2128C27.2703 16.1485 27.3651 16.1151 27.4599 16.1151L27.465 16.1203C27.4496 16.2 27.4343 16.2797 27.4189 16.3645L27.3881 16.3697C27.3727 16.326 27.3599 16.29 27.3446 16.2617C27.3318 16.2334 27.3087 16.2205 27.2805 16.2205C27.2523 16.2205 27.2164 16.2334 27.1729 16.2591V16.6011C27.1729 16.6834 27.1729 16.7425 27.1754 16.7785C27.1754 16.7914 27.1831 16.8017 27.1959 16.8068L27.301 16.8377L27.3036 16.8711C27.2216 16.8685 27.1549 16.8685 27.1037 16.8685C27.0524 16.8685 26.9909 16.8685 26.9192 16.8711L26.9166 16.8377L27.0089 16.812C27.0217 16.8068 27.0294 16.7991 27.0294 16.7863C27.0294 16.7631 27.0294 16.7323 27.0294 16.6885V16.4185C27.0294 16.3337 27.0294 16.2694 27.0268 16.2257L26.9217 16.1974L26.9141 16.1691Z" fill="white"/>
<path d="M27.9029 16.5085C27.7927 16.5085 27.7158 16.5188 27.6774 16.542C27.6364 16.5651 27.6159 16.6037 27.6159 16.6551C27.6159 16.7065 27.6287 16.74 27.6569 16.7605C27.6825 16.7811 27.721 16.7914 27.7645 16.7914C27.8158 16.7914 27.8619 16.7811 27.9003 16.7631L27.9029 16.5085ZM27.5211 16.182C27.6236 16.1383 27.7133 16.1151 27.7927 16.1151C27.8722 16.1151 27.9362 16.1357 27.9823 16.1794C28.0285 16.2205 28.0515 16.2823 28.0515 16.362L28.049 16.6911C28.049 16.7194 28.049 16.74 28.0515 16.7554C28.0541 16.7708 28.0592 16.7837 28.0669 16.794C28.0746 16.8017 28.0874 16.8094 28.1002 16.812C28.1156 16.8145 28.1361 16.8171 28.1617 16.8171L28.1668 16.848C28.1438 16.8583 28.1156 16.866 28.0848 16.8763C28.0541 16.8865 28.031 16.8891 28.0182 16.8891C27.967 16.8891 27.9311 16.8634 27.9132 16.8094C27.8388 16.8634 27.7697 16.8891 27.703 16.8891C27.6287 16.8891 27.5698 16.8711 27.5237 16.8351C27.4775 16.7991 27.457 16.7477 27.457 16.6808C27.457 16.5985 27.4929 16.5394 27.5647 16.5008C27.6364 16.4623 27.7492 16.4417 27.9055 16.4417V16.38C27.908 16.3208 27.8927 16.2771 27.8619 16.2488C27.8312 16.2205 27.785 16.2051 27.721 16.2051C27.6723 16.2051 27.6133 16.2128 27.5416 16.2334L27.5211 16.182Z" fill="white"/>
<path d="M28.1975 15.7577L28.1924 15.732C28.2846 15.714 28.3718 15.696 28.4512 15.6754L28.4589 15.6831C28.4563 15.768 28.4538 15.8888 28.4538 16.0406V16.5548C28.4538 16.65 28.4538 16.7246 28.4563 16.7837C28.4589 16.7991 28.4666 16.8094 28.4794 16.812L28.5639 16.8377L28.5665 16.8711C28.4948 16.8686 28.4333 16.8686 28.382 16.8686C28.3308 16.8686 28.2693 16.8686 28.1975 16.8711L28.1949 16.8377L28.2846 16.812C28.2974 16.8068 28.3051 16.7991 28.3051 16.7863C28.3051 16.7271 28.3077 16.6603 28.3077 16.5857V16.2617C28.3077 16.0663 28.3077 15.9094 28.3051 15.7886L28.1975 15.7577Z" fill="white"/>
<path d="M29.3765 16.5085C29.2664 16.5085 29.192 16.5188 29.151 16.542C29.11 16.5651 29.0895 16.6037 29.0895 16.6551C29.0895 16.7065 29.1024 16.74 29.1305 16.7605C29.1587 16.7811 29.1946 16.7914 29.2407 16.7914C29.292 16.7914 29.3381 16.7811 29.3765 16.7631V16.5085ZM28.9947 16.182C29.0972 16.1383 29.1869 16.1151 29.2664 16.1151C29.3484 16.1151 29.4099 16.1357 29.4585 16.1794C29.5047 16.2205 29.5303 16.2823 29.5277 16.362L29.5226 16.6911C29.5226 16.7194 29.5226 16.74 29.5252 16.7554C29.5277 16.7708 29.5303 16.7837 29.538 16.794C29.5457 16.8017 29.5585 16.8094 29.5739 16.812C29.5892 16.8145 29.6097 16.8171 29.6354 16.8171L29.6405 16.848C29.6174 16.8583 29.5892 16.866 29.5585 16.8763C29.5252 16.8865 29.5047 16.8891 29.4919 16.8891C29.4406 16.8891 29.4047 16.8634 29.3868 16.8094C29.3125 16.8634 29.2433 16.8891 29.1767 16.8891C29.1024 16.8891 29.0434 16.8711 28.9973 16.8351C28.9512 16.7991 28.9307 16.7477 28.9307 16.6808C28.9307 16.5985 28.9665 16.5394 29.0383 16.5008C29.11 16.4623 29.2228 16.4417 29.3765 16.4417L29.3791 16.38C29.3791 16.3208 29.3637 16.2771 29.333 16.2488C29.3022 16.2205 29.2561 16.2051 29.192 16.2051C29.1434 16.2051 29.0844 16.2128 29.0127 16.2334L28.9947 16.182Z" fill="white"/>
<path d="M29.6709 16.1691C29.7606 16.1511 29.8426 16.1331 29.9195 16.1151L29.9271 16.1203V16.2128C30.0194 16.1485 30.104 16.1151 30.1834 16.1151C30.2577 16.1151 30.3166 16.1357 30.3602 16.1768C30.4038 16.218 30.4243 16.2771 30.4243 16.3543V16.6345C30.4243 16.7014 30.4243 16.7503 30.4268 16.7811C30.4268 16.7965 30.4345 16.8043 30.4473 16.8094L30.5345 16.8351L30.537 16.8685C30.4678 16.866 30.4063 16.866 30.3551 16.866C30.3038 16.866 30.2449 16.866 30.1834 16.8685L30.1808 16.8351L30.2603 16.812C30.2731 16.8068 30.2782 16.7991 30.2808 16.7863C30.2808 16.7785 30.2808 16.7631 30.2808 16.7374V16.3928C30.2808 16.3285 30.2654 16.2823 30.2346 16.254C30.2039 16.2257 30.1578 16.2128 30.0988 16.2128C30.045 16.2128 29.9912 16.2283 29.9348 16.2591V16.6037C29.9348 16.6705 29.9348 16.7297 29.9374 16.7837C29.9374 16.7991 29.9451 16.8068 29.9553 16.812L30.0373 16.8351L30.0399 16.8685C29.9758 16.866 29.9169 16.866 29.8656 16.866C29.8144 16.866 29.7529 16.866 29.6837 16.8685L29.6811 16.8351L29.7734 16.8094C29.7836 16.8043 29.7913 16.7965 29.7913 16.7837C29.7913 16.7503 29.7913 16.7168 29.7913 16.686V16.416C29.7913 16.3465 29.7913 16.2823 29.7888 16.2231L29.6837 16.1948L29.6709 16.1691Z" fill="white"/>
<path d="M31.1369 16.2026C31.101 16.1923 31.0626 16.1871 31.019 16.1871C30.9293 16.1871 30.8627 16.2129 30.814 16.2643C30.7679 16.3157 30.7448 16.3929 30.7448 16.4983C30.7448 16.5883 30.7653 16.6603 30.8063 16.7143C30.8473 16.7683 30.9063 16.794 30.9831 16.794C31.0318 16.794 31.0831 16.7811 31.1369 16.7529V16.2026ZM31.0241 15.7294C31.1164 15.7114 31.2035 15.6934 31.2829 15.6729L31.2906 15.6806C31.2881 15.7937 31.2855 15.9146 31.2855 16.0457V16.4751V16.6911C31.2855 16.7169 31.2855 16.74 31.2881 16.7554C31.2906 16.7709 31.2958 16.7837 31.3034 16.794C31.3111 16.8017 31.3214 16.8094 31.3368 16.812C31.3521 16.8146 31.3726 16.8171 31.3982 16.8171L31.4034 16.848C31.3803 16.8583 31.3521 16.866 31.3188 16.8763C31.2881 16.8866 31.265 16.8891 31.2522 16.8891C31.1984 16.8891 31.1625 16.8583 31.1446 16.7991C31.0626 16.8609 30.9831 16.8891 30.9062 16.8891C30.8089 16.8891 30.732 16.8531 30.6731 16.7863C30.6141 16.7169 30.5859 16.632 30.5859 16.5291C30.5859 16.398 30.6244 16.2977 30.7012 16.2257C30.7781 16.1537 30.8857 16.1177 31.0241 16.1177C31.0574 16.1177 31.0959 16.1203 31.1369 16.128C31.1369 16.0123 31.1343 15.8991 31.1343 15.7886L31.0267 15.7577L31.0241 15.7294Z" fill="white"/>
<path d="M32.6951 16.0354L32.6644 16.0406L32.608 15.8323C32.5414 15.8168 32.485 15.8091 32.4312 15.8091C32.303 15.8091 32.2005 15.8554 32.1262 15.9454C32.0519 16.0354 32.016 16.1511 32.016 16.2951C32.016 16.4494 32.057 16.5728 32.1416 16.6628C32.2262 16.7554 32.3415 16.7991 32.4901 16.7991C32.5747 16.7991 32.6618 16.7837 32.754 16.7503L32.7617 16.7863C32.6592 16.8583 32.5414 16.8943 32.4107 16.8943C32.2415 16.8943 32.1032 16.8428 31.9981 16.7374C31.893 16.6345 31.8418 16.4957 31.8418 16.326C31.8418 16.146 31.9007 16.002 32.016 15.8965C32.1314 15.7911 32.2825 15.7371 32.467 15.7371C32.5567 15.7371 32.6464 15.7474 32.7387 15.7706L32.7438 15.7783L32.6951 16.0354Z" fill="white"/>
<path d="M32.8203 16.1691C32.9074 16.1511 32.992 16.1331 33.0714 16.1151L33.0791 16.1203V16.2128C33.1765 16.1485 33.2713 16.1151 33.3661 16.1151L33.3712 16.1203C33.3559 16.2 33.3405 16.2797 33.3277 16.3645L33.2969 16.3697C33.2816 16.326 33.2688 16.29 33.2534 16.2617C33.2406 16.2334 33.2175 16.2205 33.1893 16.2205C33.1611 16.2205 33.1252 16.2334 33.0842 16.2591V16.6011C33.0842 16.6834 33.0842 16.7425 33.0868 16.7785C33.0868 16.7914 33.0945 16.8017 33.1073 16.8068L33.2124 16.8377L33.2149 16.8711C33.1329 16.8685 33.0663 16.8685 33.0151 16.8685C32.9638 16.8685 32.9023 16.8685 32.8306 16.8711L32.828 16.8377L32.9202 16.812C32.9331 16.8068 32.9408 16.7991 32.9408 16.7863C32.9408 16.7631 32.9408 16.7323 32.9408 16.6885V16.4185C32.9408 16.3337 32.9407 16.2694 32.9382 16.2257L32.8331 16.1974L32.8203 16.1691Z" fill="white"/>
<path d="M33.8918 16.4083V16.3851C33.8918 16.3105 33.879 16.2565 33.8559 16.2257C33.8328 16.1923 33.797 16.1768 33.7508 16.1768C33.6893 16.1768 33.6432 16.2 33.6099 16.2437C33.5766 16.29 33.5587 16.344 33.5561 16.4083H33.8918ZM34.0481 16.8094C34.0045 16.8377 33.9558 16.8583 33.9097 16.8685C33.8636 16.8814 33.8175 16.8865 33.779 16.8865C33.6637 16.8865 33.5689 16.8531 33.4997 16.7863C33.428 16.7194 33.3921 16.6294 33.3921 16.5111C33.3921 16.3954 33.4254 16.2977 33.492 16.2231C33.5587 16.1485 33.6483 16.1125 33.7585 16.1125C33.8508 16.1125 33.9251 16.1408 33.9763 16.1948C34.0276 16.2514 34.0532 16.3285 34.0532 16.4263C34.0532 16.4417 34.0532 16.4571 34.0507 16.4725H33.5535C33.5535 16.5857 33.5792 16.668 33.633 16.7168C33.6868 16.7657 33.7688 16.7888 33.8815 16.7888C33.9328 16.7888 33.9866 16.7837 34.043 16.7734L34.0481 16.8094Z" fill="white"/>
<path d="M34.5502 16.5085C34.4401 16.5085 34.3632 16.5188 34.3247 16.542C34.2837 16.5651 34.2632 16.6037 34.2632 16.6551C34.2632 16.7065 34.2761 16.74 34.3042 16.7605C34.3299 16.7811 34.3683 16.7914 34.4144 16.7914C34.4657 16.7914 34.5118 16.7811 34.5502 16.7631V16.5085ZM34.1684 16.182C34.2709 16.1383 34.3606 16.1151 34.4401 16.1151C34.5221 16.1151 34.5836 16.1357 34.6322 16.1794C34.6784 16.2205 34.704 16.2823 34.7014 16.362L34.6989 16.6911C34.6989 16.7194 34.6989 16.74 34.7014 16.7554C34.704 16.7708 34.7091 16.7837 34.7168 16.794C34.7245 16.8017 34.7347 16.8094 34.7501 16.812C34.7655 16.8145 34.786 16.8171 34.8116 16.8171L34.8142 16.848C34.7911 16.8583 34.7629 16.866 34.7322 16.8763C34.6989 16.8865 34.6784 16.8891 34.6656 16.8891C34.6143 16.8891 34.5784 16.8634 34.5605 16.8094C34.4862 16.8634 34.417 16.8891 34.3504 16.8891C34.2761 16.8891 34.2171 16.8711 34.1736 16.8351C34.13 16.7991 34.1069 16.7477 34.1069 16.6808C34.1069 16.5985 34.1428 16.5394 34.2146 16.5008C34.2863 16.4623 34.3991 16.4417 34.5554 16.4417V16.38C34.5554 16.3208 34.54 16.2771 34.5092 16.2488C34.4785 16.2205 34.4324 16.2051 34.3683 16.2051C34.3196 16.2051 34.2607 16.2128 34.1889 16.2334L34.1684 16.182Z" fill="white"/>
<path d="M35.083 16.2205C35.0805 16.398 35.0779 16.542 35.0779 16.6525C35.0779 16.7065 35.0856 16.7451 35.1035 16.7657C35.1189 16.7863 35.1497 16.7965 35.1958 16.7965C35.2317 16.7965 35.2778 16.7914 35.3367 16.7837L35.3418 16.8197C35.2522 16.866 35.1702 16.8891 35.0984 16.8891C35.0395 16.8891 34.9959 16.8737 34.9677 16.8428C34.9395 16.812 34.9242 16.7657 34.9242 16.704C34.9242 16.6011 34.9267 16.4391 34.9293 16.218L34.8191 16.1897L34.814 16.1588L34.9344 16.1485L34.9908 15.9583C35.0215 15.9505 35.0472 15.9428 35.0728 15.9351L35.0805 15.9403C35.0779 16.0045 35.0779 16.0637 35.0779 16.1203V16.1485H35.3162V16.2231H35.083V16.2205Z" fill="white"/>
<path d="M35.6391 15.8348C35.6391 15.8631 35.6288 15.8862 35.6134 15.9042C35.5955 15.9222 35.5724 15.9299 35.5468 15.9299C35.5212 15.9299 35.5007 15.9222 35.4827 15.9042C35.4648 15.8888 35.4571 15.8657 35.4571 15.8399C35.4571 15.8117 35.4648 15.7885 35.4827 15.7731C35.5007 15.7551 35.5237 15.7474 35.5519 15.7474C35.5776 15.7474 35.5981 15.7551 35.616 15.7705C35.6314 15.7859 35.6391 15.8065 35.6391 15.8348ZM35.3726 16.1691C35.4648 16.1511 35.5494 16.1331 35.6288 16.1151L35.6365 16.1202C35.6339 16.1897 35.6314 16.2642 35.6314 16.3465V16.6499C35.6314 16.7117 35.6314 16.7554 35.6339 16.7811C35.6339 16.7965 35.6416 16.8042 35.6544 16.8094L35.7467 16.8351L35.7492 16.8685C35.6775 16.8659 35.6134 16.8659 35.5622 16.8659C35.5109 16.8659 35.4494 16.8659 35.3777 16.8685L35.3751 16.8351L35.4674 16.8094C35.4802 16.8042 35.4853 16.7965 35.4879 16.7837C35.4879 16.7631 35.4879 16.7297 35.4879 16.6808V16.4159C35.4879 16.3465 35.4879 16.2822 35.4853 16.2257L35.3802 16.1974L35.3726 16.1691Z" fill="white"/>
<path d="M35.7031 16.1331C35.7697 16.1357 35.8287 16.1357 35.8799 16.1357C35.9261 16.1357 35.985 16.1357 36.0491 16.1331L36.0516 16.1665L35.9594 16.1923C36.0029 16.3157 36.0516 16.4443 36.1106 16.5831C36.1259 16.6191 36.1388 16.6551 36.149 16.6885C36.1618 16.6551 36.1746 16.6217 36.19 16.5857C36.2387 16.4674 36.2874 16.3363 36.3412 16.1948L36.2515 16.1691L36.2489 16.1357C36.2925 16.1383 36.3361 16.1383 36.3822 16.1383C36.4283 16.1383 36.4744 16.1383 36.518 16.1357L36.5206 16.1691L36.4411 16.1923C36.4283 16.1974 36.4181 16.2077 36.4104 16.2231C36.3694 16.3208 36.3207 16.434 36.2669 16.5677C36.2131 16.7014 36.1695 16.8043 36.1439 16.8763L36.0772 16.884C36.0491 16.8068 36.0055 16.704 35.9517 16.5703C35.8979 16.4365 35.8517 16.3234 35.8133 16.2283C35.8056 16.2103 35.7928 16.1974 35.7774 16.1923L35.7057 16.1691L35.7031 16.1331Z" fill="white"/>
<path d="M36.9894 16.4083V16.3851C36.9894 16.3105 36.9792 16.2565 36.9536 16.2257C36.9305 16.1923 36.8946 16.1768 36.8485 16.1768C36.787 16.1768 36.7409 16.2 36.7076 16.2437C36.6742 16.29 36.6563 16.344 36.6537 16.4083H36.9894ZM37.1457 16.8094C37.1022 16.8377 37.0561 16.8583 37.0074 16.8685C36.9612 16.8814 36.9177 16.8865 36.8767 16.8865C36.7614 16.8865 36.6666 16.8531 36.5974 16.7863C36.5256 16.7194 36.4897 16.6294 36.4897 16.5111C36.4897 16.3954 36.5231 16.2977 36.5897 16.2231C36.6563 16.1485 36.746 16.1125 36.8562 16.1125C36.9484 16.1125 37.0227 16.1408 37.074 16.1948C37.1252 16.2514 37.1509 16.3285 37.1509 16.4263C37.1509 16.4417 37.1509 16.4571 37.1483 16.4725H36.6512C36.6512 16.5857 36.6768 16.668 36.7306 16.7168C36.7844 16.7657 36.8664 16.7888 36.9792 16.7888C37.0304 16.7888 37.0842 16.7837 37.1406 16.7734L37.1457 16.8094Z" fill="white"/>
<path d="M37.8377 16.3311C37.8761 16.3388 37.912 16.3414 37.9479 16.3414C38.0324 16.3414 38.0965 16.3208 38.14 16.2771C38.1836 16.2334 38.2067 16.1665 38.2067 16.0765C38.2067 15.9917 38.1862 15.9274 38.1452 15.8837C38.1042 15.8425 38.0375 15.8194 37.9479 15.8194C37.912 15.8194 37.8761 15.822 37.8402 15.8271V16.3311H37.8377ZM37.8377 16.6243V16.7091C37.8377 16.7348 37.8377 16.758 37.8402 16.7785C37.8402 16.7914 37.8479 16.7991 37.8607 16.8017L37.9684 16.8351V16.8685C37.8915 16.866 37.8223 16.866 37.7608 16.866C37.6967 16.866 37.6327 16.866 37.566 16.8685L37.5635 16.8351L37.6609 16.8068C37.6737 16.8017 37.6814 16.794 37.6814 16.7837C37.6814 16.7631 37.6814 16.7374 37.6814 16.7117C37.6814 16.686 37.6814 16.6577 37.6814 16.6243V15.9814C37.6814 15.9557 37.6814 15.93 37.6814 15.9094C37.6814 15.8888 37.6814 15.8683 37.6814 15.8503C37.6814 15.8374 37.6737 15.8271 37.6634 15.8245L37.566 15.7937L37.5635 15.7603C37.6327 15.7628 37.6967 15.7628 37.7634 15.7628C37.8069 15.7628 37.8479 15.7628 37.8889 15.7603C37.9299 15.7577 37.9658 15.7577 37.9991 15.7577C38.1247 15.7577 38.2169 15.7834 38.281 15.8297C38.345 15.8785 38.3758 15.9505 38.3758 16.0483C38.3758 16.1614 38.3374 16.2488 38.2656 16.3131C38.1913 16.3748 38.0888 16.4083 37.9555 16.4083C37.9197 16.4083 37.8787 16.4057 37.8377 16.4005V16.6243Z" fill="white"/>
<path d="M38.8502 16.5085C38.74 16.5085 38.6631 16.5188 38.6247 16.542C38.5837 16.5651 38.5632 16.6037 38.5632 16.6551C38.5632 16.7065 38.576 16.74 38.6042 16.7605C38.6324 16.7811 38.6682 16.7914 38.7144 16.7914C38.7656 16.7914 38.8117 16.7811 38.8502 16.7631V16.5085ZM38.4684 16.182C38.5709 16.1383 38.6605 16.1151 38.74 16.1151C38.822 16.1151 38.886 16.1357 38.9322 16.1794C38.9783 16.2205 39.0014 16.2823 39.0014 16.362L38.9988 16.6911C38.9988 16.7194 38.9988 16.74 39.0014 16.7554C39.0039 16.7708 39.0065 16.7837 39.0142 16.794C39.0219 16.8017 39.0347 16.8094 39.0475 16.812C39.0629 16.8145 39.0834 16.8171 39.109 16.8171L39.1141 16.848C39.091 16.8583 39.0629 16.866 39.0321 16.8763C38.9988 16.8865 38.9757 16.8891 38.9655 16.8891C38.9142 16.8891 38.8784 16.8634 38.8604 16.8094C38.7861 16.8634 38.7169 16.8891 38.6503 16.8891C38.576 16.8891 38.517 16.8711 38.4709 16.8351C38.4274 16.7991 38.4043 16.7477 38.4043 16.6808C38.4043 16.5985 38.4402 16.5394 38.5119 16.5008C38.5837 16.4623 38.6964 16.4417 38.8527 16.4417V16.38C38.8527 16.3208 38.8374 16.2771 38.8066 16.2488C38.7759 16.2205 38.7297 16.2051 38.6657 16.2051C38.617 16.2051 38.558 16.2128 38.4863 16.2334L38.4684 16.182Z" fill="white"/>
<path d="M39.1445 16.1691C39.2317 16.1511 39.3162 16.1331 39.3957 16.1151L39.4033 16.1203V16.2128C39.5007 16.1485 39.5955 16.1151 39.6903 16.1151L39.6955 16.1203C39.6801 16.2 39.6647 16.2797 39.6493 16.3645L39.6186 16.3697C39.6032 16.326 39.5904 16.29 39.575 16.2617C39.5622 16.2334 39.5392 16.2205 39.511 16.2205C39.4828 16.2205 39.4469 16.2334 39.4033 16.2591V16.6011V16.7785C39.4033 16.7914 39.411 16.8017 39.4238 16.8068L39.5289 16.8377L39.5315 16.8711C39.4495 16.8685 39.3828 16.8685 39.3316 16.8685C39.2803 16.8685 39.2188 16.8685 39.1497 16.8711L39.1471 16.8377L39.2393 16.812C39.2522 16.8068 39.2598 16.7991 39.2598 16.7863C39.2598 16.7631 39.2598 16.7323 39.2598 16.6885V16.4185C39.2598 16.3337 39.2598 16.2694 39.2573 16.2257L39.1522 16.1974L39.1445 16.1691Z" fill="white"/>
<path d="M40.5335 16.8686C40.4643 16.866 40.4105 16.866 40.3772 16.866C40.3541 16.866 40.3259 16.866 40.2875 16.8686C40.267 16.8377 40.2439 16.8017 40.2183 16.7657C40.1466 16.6628 40.0671 16.5651 39.9851 16.4674L40.2696 16.1897L40.1824 16.164L40.1799 16.1331C40.2491 16.1357 40.2977 16.1357 40.3285 16.1357C40.3567 16.1357 40.4131 16.1357 40.4925 16.1331L40.4951 16.1666C40.4412 16.1794 40.4054 16.1923 40.3797 16.2026C40.3567 16.2128 40.3285 16.2334 40.2977 16.2617L40.1286 16.4186L40.3823 16.7374C40.4105 16.7734 40.4336 16.7966 40.4489 16.8068C40.4643 16.8197 40.4925 16.83 40.5309 16.8377L40.5335 16.8686ZM39.7058 15.7577L39.7007 15.732C39.7929 15.714 39.8801 15.696 39.9595 15.6754L39.9672 15.6831C39.9646 15.7603 39.9621 15.8786 39.9621 16.0406V16.5574C39.9621 16.6346 39.9621 16.7117 39.9646 16.7863C39.9646 16.8017 39.9723 16.812 39.9851 16.8146L40.062 16.8377L40.0646 16.8711C40.0031 16.8686 39.9441 16.8686 39.8929 16.8686C39.8416 16.8686 39.7801 16.8686 39.7109 16.8711L39.7084 16.8377L39.8006 16.8094C39.8109 16.8068 39.816 16.7991 39.8186 16.7863C39.8186 16.7271 39.8211 16.6603 39.8211 16.5857V16.2617C39.8211 15.9891 39.8211 15.8297 39.8186 15.7886L39.7058 15.7577Z" fill="white"/>
<path d="M17.3171 11.5688V14.8551C17.3171 15.1148 16.9404 15.0763 16.9404 15.0763V11.3554H17.066C17.066 11.3554 17.3171 11.3606 17.3171 11.5688Z" fill="white"/>
<path d="M21.0842 12.3917V14.85C21.0842 15.1097 20.7075 15.0711 20.7075 15.0711V12.1808H20.8331C20.8331 12.1808 21.0842 12.186 21.0842 12.3917Z" fill="white"/>
<path d="M23.7673 12.4097V14.8679C23.7673 15.1277 23.3906 15.0891 23.3906 15.0891V12.1962H23.5162C23.5162 12.1962 23.7673 12.2014 23.7673 12.4097Z" fill="white"/>
<path d="M31.2317 11.8954V13.9011C31.2317 14.1609 30.855 14.1223 30.855 14.1223V11.6846H30.9805C30.9805 11.6846 31.2317 11.6871 31.2317 11.8954Z" fill="white"/>
<path d="M33.0998 11.6048V14.8526C33.0998 15.1123 32.7231 15.0737 32.7231 15.0737V11.3914H32.8487C32.8487 11.3914 33.0998 11.3966 33.0998 11.6048Z" fill="white"/>
<path d="M35.9748 11.6048V14.8526C35.9748 15.1123 35.5981 15.0737 35.5981 15.0737V11.3914H35.7237C35.7237 11.3914 35.9748 11.3966 35.9748 11.6048Z" fill="white"/>
<path d="M30.4783 12.6925V13.5745C30.4783 13.8214 30.1221 13.7828 30.1221 13.7828V12.4894H30.2425C30.2399 12.492 30.4783 12.4971 30.4783 12.6925Z" fill="white"/>
<path d="M29.4172 14.1325V14.8731C29.4172 15.12 29.061 15.0814 29.061 15.0814V13.9294H29.1789C29.1789 13.932 29.4172 13.9345 29.4172 14.1325Z" fill="white"/>
<path d="M30.509 14.1325V14.8731C30.509 15.12 30.1528 15.0814 30.1528 15.0814V13.9294H30.2733C30.2733 13.932 30.509 13.9345 30.509 14.1325Z" fill="white"/>
<path d="M17.6199 12.1269C17.6199 12.1269 17.7224 12.1371 17.7685 12.0214H17.8736C17.8736 12.0214 17.9325 12.2837 17.7019 12.2837H16.4001L16.3335 12.132L17.6199 12.1269Z" fill="white"/>
<path d="M18.9959 11.5225C18.9959 11.5225 19.0984 11.5303 19.1445 11.4171H19.2521C19.2521 11.4171 19.3111 11.6794 19.0804 11.6794H18.5218L18.4526 11.5277L18.9959 11.5225Z" fill="white"/>
<path d="M23.4878 14.5157C23.4878 14.5157 23.5903 14.5259 23.6364 14.4077H23.7441C23.7441 14.4077 23.803 14.6699 23.5724 14.6699H21.0637L20.9971 14.5182L23.4878 14.5157Z" fill="white"/>
<path d="M27.7979 12.1345C27.7979 12.1345 27.9004 12.1448 27.9466 12.0266H28.0542C28.0542 12.0266 28.1131 12.2888 27.8825 12.2888H24.5769L24.5103 12.1371L27.7979 12.1345Z" fill="white"/>
<path d="M39.8314 11.5405C39.8314 11.5405 39.9339 11.5508 39.98 11.4351H40.0851C40.0851 11.4351 40.144 11.6974 39.9134 11.6974H36.9793L36.9102 11.5457L39.8314 11.5405Z" fill="white"/>
<path d="M39.9442 14.7085C39.9442 14.7085 40.0467 14.7162 40.0928 14.6005H40.2005C40.2005 14.6005 40.2594 14.8602 40.0288 14.8602H37.0921L37.0229 14.7085H39.9442Z" fill="white"/>
<path d="M35.1241 12.0677C35.1241 12.0677 35.2266 12.0754 35.2727 11.9597H35.3803C35.3803 11.9597 35.4392 12.2219 35.2086 12.2219H33.3739L33.3047 12.0702L35.1241 12.0677Z" fill="white"/>
<path d="M35.2574 12.5151C35.2574 12.5151 35.3599 12.5228 35.406 12.4071H35.5136C35.5136 12.4071 35.5726 12.6694 35.3419 12.6694H33.2176L33.1484 12.5177L35.2574 12.5151Z" fill="white"/>
<path d="M16.9278 12.2348C16.9278 12.2348 16.9022 12.9754 16.2642 14.0014V14.1017C16.2642 14.1017 16.9278 13.5462 17.0022 13.0242V12.2168L16.9278 12.2348Z" fill="white"/>
<path d="M17.2838 12.6565C17.2838 12.6565 17.3863 12.6977 17.4786 13.0397C17.558 13.3251 17.7912 13.1528 17.7758 12.9728C17.763 12.8237 17.6092 12.6257 17.271 12.6077L17.2838 12.6565Z" fill="white"/>
<path d="M18.0837 11.7411C18.0837 11.7411 18.0068 12.8365 17.6045 13.4408V13.5154C17.6045 13.5154 18.2912 13.0191 18.4347 11.8748L18.0837 11.7411Z" fill="white"/>
<path d="M19.0649 11.6486C19.0649 11.6486 19.0675 12.8546 19.7389 13.2583L20.0284 12.852C20.0284 12.852 19.3084 12.6926 19.1546 11.6486" fill="white"/>
<path d="M18.5113 12.7645C18.5113 12.7645 18.4728 13.7905 17.9629 14.5414L18.0372 14.5491C18.0372 14.5491 18.788 13.9397 18.888 12.9162L18.5113 12.7645Z" fill="white"/>
<path d="M17.7402 14.5234C17.7402 14.5234 18.9984 14.5157 19.434 14.4565L19.4417 14.5491C19.4417 14.5491 18.4219 14.8551 17.8658 14.9323L17.7402 14.5234Z" fill="white"/>
<path d="M19.1162 13.6646V13.7648C19.1162 13.7648 19.4519 14.3974 19.4929 14.8423C19.5236 15.1688 19.9285 15.0454 19.844 14.6494C19.762 14.256 19.4442 13.9088 19.1162 13.6646Z" fill="white"/>
<path d="M22.4245 14.5825V11.6177C22.4245 11.4094 22.1734 11.4042 22.1734 11.4042H22.0479V14.5825H22.4245Z" fill="white"/>
<path d="M25.8018 11.3348V11.4197C25.8018 11.4197 26.1144 11.7103 26.1964 11.9083C26.2809 12.1114 26.5654 12.0523 26.5654 11.8337C26.5628 11.52 26.2194 11.4531 25.8018 11.3348Z" fill="white"/>
<path d="M26.8986 12.2348C26.8986 12.2348 26.814 14.0194 24.4565 14.9451V15.0197C24.4565 15.0197 26.814 14.6494 27.3086 12.2348H26.8986Z" fill="white"/>
<path d="M25.4403 12.2683C25.4403 12.2683 26.104 14.3383 28.0566 14.5414L27.7388 14.9708C27.7388 14.9708 25.717 14.4411 25.3813 12.2606L25.4403 12.2683Z" fill="white"/>
<path d="M29.474 11.3271L29.802 11.5534C29.802 11.5534 29.3485 12.4277 28.6182 12.6977V12.6462C28.6182 12.6462 29.1896 12.1834 29.474 11.3271Z" fill="white"/>
<path d="M29.7429 11.5688C29.7429 11.5688 30.5552 11.7283 30.6321 12.0394C30.7064 12.3506 30.4476 12.4688 30.2708 12.1474C30.094 11.8286 29.7173 11.61 29.7173 11.61L29.7429 11.5688Z" fill="white"/>
<path d="M29.474 11.9828C29.474 11.9828 30.0019 12.0677 30.0019 12.3351C30.0019 12.6051 29.7841 12.6206 29.7251 12.4534C29.6662 12.2863 29.6149 12.1577 29.4561 12.0317L29.474 11.9828Z" fill="white"/>
<path d="M28.8613 12.9162C28.8613 12.9162 28.9792 14.1197 28.5103 14.8937V14.9862C28.5103 14.9862 29.1739 14.5748 29.1893 13.1682L29.1996 12.7825C29.1996 12.7825 29.2021 12.546 28.9741 12.546H28.8459L28.8613 12.9162Z" fill="white"/>
<path d="M30.2298 12.6462H29.0049L29.0715 12.798H30.2298V12.6462Z" fill="white"/>
<path d="M30.4016 13.1066H29.1768L29.2434 13.2583H30.4016V13.1066Z" fill="white"/>
<path d="M35.665 11.5354H33L33.0692 11.6871H35.665V11.5354Z" fill="white"/>
<path d="M35.665 14.7111H33L33.0692 14.8628H35.665V14.7111Z" fill="white"/>
<path d="M37.2483 11.6048V14.8526C37.2483 15.1123 36.8716 15.0737 36.8716 15.0737V11.3914H36.9971C36.9971 11.3914 37.2483 11.3966 37.2483 11.6048Z" fill="white"/>
<path d="M30.2835 13.5668H29.0586L29.1252 13.7185H30.2835V13.5668Z" fill="white"/>
<path d="M30.3299 14.022H29.105L29.1716 14.1737H30.3299V14.022Z" fill="white"/>
<path d="M30.3299 14.7754H29.105L29.1716 14.9271H30.3299V14.7754Z" fill="white"/>
<path d="M33.8225 12.9882V13.4665C33.8225 13.7134 33.4663 13.6748 33.4663 13.6748V12.7877H33.5867C33.5842 12.7877 33.8225 12.7902 33.8225 12.9882Z" fill="white"/>
<path d="M35.196 12.9882V13.4665C35.196 13.7134 34.8398 13.6748 34.8398 13.6748V12.7877H34.9603C34.9577 12.7877 35.196 12.7902 35.196 12.9882Z" fill="white"/>
<path d="M34.9371 12.8777H33.5098L33.579 13.0294H34.9371V12.8777Z" fill="white"/>
<path d="M34.9371 13.4382L33.5098 13.4408L33.579 13.5925H34.9371V13.4382Z" fill="white"/>
<path d="M38.2916 12.1448V12.7645C38.2916 13.0243 37.9175 12.9831 37.9175 12.9831V11.9314H38.043C38.043 11.934 38.2916 11.9391 38.2916 12.1448Z" fill="white"/>
<path d="M39.4649 12.1448V12.7645C39.4649 13.0243 39.0908 12.9831 39.0908 12.9831V11.9314H39.2164C39.2138 11.934 39.4649 11.9391 39.4649 12.1448Z" fill="white"/>
<path d="M39.2651 12.0291H37.9634L38.0351 12.1885H39.2651V12.0291Z" fill="white"/>
<path d="M39.2651 12.6874H37.9634L38.0351 12.8468H39.2651V12.6874Z" fill="white"/>
<path d="M37.8429 13.3457V14.2225C37.8429 14.4823 37.4688 14.4411 37.4688 14.4411V13.1323H37.5943C37.5943 13.1348 37.8429 13.14 37.8429 13.3457Z" fill="white"/>
<path d="M38.5812 13.3457V14.2225C38.5812 14.4823 38.207 14.4411 38.207 14.4411V13.1323H38.3326C38.33 13.1348 38.5812 13.14 38.5812 13.3457Z" fill="white"/>
<path d="M38.3837 13.23H37.5176L37.5868 13.3894H38.3837V13.23Z" fill="white"/>
<path d="M38.3837 14.1454H37.5176L37.5868 14.3048H38.3837V14.1454Z" fill="white"/>
<path d="M39.1754 13.3457V14.2225C39.1754 14.4823 38.8013 14.4411 38.8013 14.4411V13.1323H38.9268C38.9243 13.1348 39.1754 13.14 39.1754 13.3457Z" fill="white"/>
<path d="M39.9107 13.3457V14.2225C39.9107 14.4823 39.5366 14.4411 39.5366 14.4411V13.1323H39.6622C39.6622 13.1348 39.9107 13.14 39.9107 13.3457Z" fill="white"/>
<path d="M39.7138 13.23H38.8477L38.9194 13.3894H39.7138V13.23Z" fill="white"/>
<path d="M39.7138 14.1454H38.8477L38.9194 14.3048H39.7138V14.1454Z" fill="white"/>
<path d="M31.7031 11.3554H31.5775V14.6391C31.475 14.6057 31.2854 14.5671 30.9497 14.5723V14.634C30.9497 14.634 31.4494 14.6777 31.4853 14.9966C31.5058 15.1817 31.9542 15.0711 31.9542 14.8526V11.5688C31.9516 11.3606 31.7031 11.3554 31.7031 11.3554Z" fill="white"/>
<path d="M34.5194 12.5974V11.9699C34.5194 11.7668 34.2734 11.7617 34.2734 11.7617H34.1504V12.5974H34.5194Z" fill="white"/>
<path d="M34.1504 13.5179V14.6057C34.1504 14.6057 34.5194 14.6442 34.5194 14.3897V13.5179H34.1504Z" fill="white"/>
<path d="M34.0324 13.5617C34.0324 13.5617 33.9658 13.8754 33.1816 14.3254V14.4051C33.1816 14.4051 34.1759 14.0014 34.222 13.788L34.3117 13.5077L34.0324 13.5617Z" fill="white"/>
<path d="M34.4888 13.7288C34.4888 13.7288 35.3651 13.9062 35.3908 14.256C35.4087 14.5028 35.1525 14.454 35.0756 14.2945C34.9961 14.13 34.6092 13.8008 34.4939 13.8008L34.4888 13.7288Z" fill="white"/>
<path d="M35.214 13.5411C35.214 13.5411 35.0807 13.7931 34.8911 13.8754L34.9654 13.9371C34.9654 13.9371 35.2575 13.86 35.4267 13.7083L35.214 13.5411Z" fill="white"/>
<path d="M10.683 4.67223L16.9227 1.08508H6.82643L0.466309 4.67223H10.683Z" fill="white"/>
<path d="M22.7035 6.04024L26.6343 3.52795H20.0923L22.7035 6.04024Z" fill="white"/>
<path d="M30.1812 7.00196L32.5925 5.12482H28.2798L30.1812 7.00196Z" fill="white"/>
<path d="M34.4426 7.34398L36.139 6.02484H33.105L34.4426 7.34398Z" fill="white"/>
<path d="M37.5715 7.86082L38.9809 6.76282H36.4619L37.5715 7.86082Z" fill="white"/>
<path d="M39.0627 7.68082C39.0627 7.76311 39.0217 7.82996 38.9679 7.82996C38.9166 7.82996 38.873 7.76311 38.873 7.68082C38.873 7.59853 38.914 7.53168 38.9679 7.53168C39.0217 7.53168 39.0627 7.59853 39.0627 7.68082Z" fill="white"/>
<path d="M38.9782 7.53424C38.9962 7.56253 39.0064 7.59853 39.0064 7.64224C39.0064 7.72453 38.9654 7.79138 38.9116 7.79138C38.9091 7.79138 38.9039 7.79138 38.9014 7.78881C38.9193 7.81453 38.9424 7.82996 38.9654 7.82996C39.0167 7.82996 39.0602 7.7631 39.0602 7.68081C39.0628 7.60367 39.0269 7.54196 38.9782 7.53424Z" fill="white"/>
<path d="M36.2182 7.18194C36.2182 7.28994 36.1618 7.37737 36.0952 7.37737C36.026 7.37737 35.9722 7.28994 35.9722 7.18194C35.9722 7.07394 36.0285 6.98651 36.0952 6.98651C36.1618 6.98651 36.2182 7.07394 36.2182 7.18194Z" fill="white"/>
<path d="M36.1081 6.98914C36.1312 7.02514 36.1466 7.07399 36.1466 7.13056C36.1466 7.23856 36.0927 7.32599 36.0236 7.32599C36.0184 7.32599 36.0133 7.32342 36.0107 7.32342C36.0312 7.35685 36.062 7.37742 36.0953 7.37742C36.1645 7.37742 36.2183 7.28999 36.2183 7.18199C36.2183 7.08171 36.1696 7.00199 36.1081 6.98914Z" fill="white"/>
<path d="M32.7719 6.56999C32.7719 6.70884 32.7001 6.81941 32.613 6.81941C32.5259 6.81941 32.4541 6.70884 32.4541 6.56999C32.4541 6.43113 32.5259 6.32056 32.613 6.32056C32.7001 6.32056 32.7719 6.4337 32.7719 6.56999Z" fill="white"/>
<path d="M32.6306 6.32312C32.6613 6.36941 32.6793 6.43112 32.6793 6.50312C32.6793 6.64198 32.6075 6.75255 32.5204 6.75255C32.5153 6.75255 32.5101 6.74998 32.5024 6.74998C32.5306 6.79369 32.5691 6.81941 32.6126 6.81941C32.6998 6.81941 32.7715 6.70883 32.7715 6.56998C32.7715 6.44141 32.71 6.33855 32.6306 6.32312Z" fill="white"/>
<path d="M27.0343 5.54143C27.0343 5.73428 26.9343 5.89114 26.8113 5.89114C26.6883 5.89114 26.5884 5.73428 26.5884 5.54143C26.5884 5.34857 26.6883 5.19171 26.8113 5.19171C26.9343 5.19171 27.0343 5.34857 27.0343 5.54143Z" fill="white"/>
<path d="M26.8371 5.19427C26.8807 5.25856 26.9063 5.34856 26.9063 5.44627C26.9063 5.63913 26.8063 5.79599 26.6833 5.79599C26.6757 5.79599 26.6654 5.79342 26.6577 5.79085C26.6987 5.84999 26.7525 5.88856 26.8115 5.88856C26.9345 5.88856 27.0344 5.7317 27.0344 5.53885C27.0344 5.36142 26.9473 5.21485 26.8371 5.19427Z" fill="white"/>
<path d="M17.5862 3.88539C17.5862 4.16054 17.4452 4.38425 17.2684 4.38425C17.0942 4.38425 16.9507 4.16054 16.9507 3.88539C16.9507 3.61025 17.0916 3.38654 17.2684 3.38654C17.4427 3.38654 17.5862 3.61025 17.5862 3.88539Z" fill="white"/>
<path d="M17.3046 3.39166C17.3661 3.48166 17.402 3.61023 17.402 3.75166C17.402 4.02681 17.261 4.25052 17.0842 4.25052C17.0714 4.25052 17.0612 4.24795 17.0483 4.24538C17.1047 4.33023 17.1816 4.38423 17.2662 4.38423C17.4404 4.38423 17.5813 4.16052 17.5813 3.88538C17.5865 3.62823 17.4635 3.41995 17.3046 3.39166Z" fill="white"/>
<path d="M40.2287 8.50368C40.1646 8.50368 40.1005 8.47797 40.0518 8.42654L38.95 7.20254L37.7072 8.16426C37.6047 8.24397 37.456 8.22597 37.3766 8.12311L36.0697 6.45426L34.5399 7.74511C34.4887 7.78626 34.4246 7.80683 34.3605 7.79911C34.2965 7.7914 34.2375 7.75797 34.1965 7.70397L32.5924 5.53626L30.3502 7.25911C30.2554 7.33368 30.1196 7.3234 30.035 7.23597L26.7909 3.84683L22.7293 6.34883C22.6371 6.4054 22.5192 6.39254 22.4398 6.31797L17.2533 1.27026L10.9495 4.9114C10.8368 4.97568 10.6907 4.93711 10.6267 4.82397C10.5626 4.71083 10.601 4.56426 10.7138 4.49997L17.1713 0.768827C17.2635 0.714827 17.3788 0.730256 17.4557 0.804827L22.6397 5.8474L26.7089 3.34026C26.8037 3.28111 26.9267 3.29654 27.0036 3.37883L30.2323 6.75511L32.4976 5.01426C32.5488 4.97568 32.6103 4.95768 32.6744 4.96797C32.7359 4.97568 32.7948 5.01168 32.8307 5.06311L34.4272 7.22311L35.9518 5.9374C36.0005 5.89626 36.0646 5.87568 36.1287 5.8834C36.1927 5.89111 36.2517 5.92197 36.2901 5.9734L37.6047 7.64997L38.8347 6.69854C38.932 6.62397 39.073 6.63426 39.155 6.72683L40.4029 8.11283C40.49 8.21054 40.4823 8.35968 40.385 8.44968C40.3414 8.48568 40.285 8.50368 40.2287 8.50368Z" fill="white"/>
</g>
<defs>
<clipPath id="clip0_825_513">
<rect width="41" height="18" fill="white"/>
</clipPath>
</defs>
</svg>
