<svg width="47" height="18" viewBox="0 0 47 18" fill="none" xmlns="http://www.w3.org/2000/svg">
<path d="M12.576 13.144C12.6286 13.2358 12.688 13.3237 12.7321 13.4205C12.8535 13.6867 12.8297 13.945 12.697 14.1999C12.5592 14.4649 12.3566 14.6667 12.0947 14.81C11.9596 14.884 11.8179 14.9456 11.6809 15.0153C11.4573 15.1288 11.3503 15.314 11.3191 15.5538C11.2863 15.8036 11.3066 16.0519 11.3367 16.2998C11.3624 16.5113 11.3913 16.7232 11.357 16.9371C11.3425 17.0281 11.3179 17.116 11.2735 17.1978C11.0962 17.5228 10.7688 17.4821 10.583 17.3256C10.3999 17.1718 10.3441 16.9665 10.3503 16.7391C10.3566 16.5082 10.446 16.3037 10.5564 16.1054C10.679 15.8854 10.8187 15.6758 10.9425 15.4569C11.019 15.3213 11.0818 15.18 11.1025 15.0235C11.108 14.9824 11.1068 14.9413 11.0923 14.9018C11.0799 14.8681 11.0588 14.8588 11.0256 14.8782C10.9749 14.9076 10.9475 14.9561 10.9202 15.0041C10.8621 15.1056 10.8168 15.2144 10.7426 15.3066C10.6813 15.3826 10.6142 15.4503 10.5252 15.4953C10.4034 15.5569 10.2785 15.5402 10.193 15.4476C10.1052 15.3527 10.0939 15.2117 10.1649 15.1013C10.2352 14.9925 10.3433 14.9274 10.4487 14.8596C10.5119 14.8189 10.5724 14.7763 10.6263 14.7244C10.7664 14.5896 10.7813 14.3986 10.6645 14.2441C10.4471 13.9567 10.0869 13.8536 9.74807 13.9814C9.58414 14.0434 9.44167 14.1414 9.30115 14.2421C9.07165 14.4068 8.86009 14.5946 8.63058 14.7593C8.42762 14.9045 8.21996 15.0424 7.97406 15.1091C7.85345 15.1416 7.73089 15.1598 7.60599 15.1319C7.30778 15.0649 7.18093 14.7686 7.34174 14.5098C7.44166 14.3491 7.5853 14.2359 7.75392 14.1538C8.01895 14.0252 8.30115 13.9392 8.57242 13.8261C8.88859 13.694 9.19343 13.5406 9.45455 13.3148C9.53535 13.2451 9.60756 13.1672 9.6583 13.0723C9.76759 12.8689 9.68289 12.6648 9.46002 12.6001C9.31989 12.5594 9.18211 12.5834 9.04666 12.6237C8.93503 12.657 8.82887 12.7058 8.72855 12.7628C8.49787 12.8937 8.2629 13.0161 8.0248 13.1335C7.87102 13.2094 7.74182 13.3202 7.61067 13.4283C7.5088 13.5123 7.40341 13.5925 7.27578 13.6336C7.10091 13.6898 6.93307 13.6812 6.78436 13.5608C6.70786 13.4988 6.66531 13.4147 6.63214 13.3241C6.58803 13.2021 6.56071 13.075 6.51465 12.9538C6.37491 12.5873 6.00177 12.4401 5.64423 12.6105C5.51386 12.6725 4.21565 13.3547 4.00449 13.3899C3.8913 13.4089 3.78318 13.3895 3.69223 13.3194C3.48497 13.1594 3.508 12.8631 3.73673 12.7256C3.85343 12.6555 4.71722 12.3576 4.84876 12.3332C5.03182 12.2995 5.61144 12.1732 5.70512 12.1105C5.87959 11.9931 5.95297 11.8242 5.95571 11.6208C5.95766 11.4945 5.95337 11.3683 5.96976 11.2424C6.0084 10.948 6.11613 10.6838 6.2949 10.444C6.47444 10.2034 6.70317 10.0156 6.93268 9.8277C7.18015 9.62511 7.45649 9.46512 7.73987 9.31676C7.94791 9.20752 8.14932 9.08628 8.34448 8.95496C8.48421 8.86122 8.62512 8.7698 8.76641 8.67838C9.02129 8.51375 9.28437 8.36267 9.55135 8.21819C9.81365 8.07602 10.0795 7.94006 10.3488 7.81106C10.558 7.71073 10.7653 7.60731 10.9834 7.52712C11.2293 7.43648 11.4823 7.38573 11.7457 7.40781C12.0775 7.4357 12.3632 7.56392 12.5943 7.80409C12.9073 8.12948 13.1255 8.50832 13.2274 8.94799C13.3277 9.38029 13.2122 9.76378 12.9397 10.1062C12.8164 10.2612 12.6634 10.3843 12.4971 10.4924C12.2641 10.6435 12.0272 10.7891 11.8156 10.9697C11.7137 11.0564 11.6181 11.149 11.5572 11.2703C11.4928 11.3985 11.5174 11.4794 11.6458 11.5422C11.8437 11.6386 12.0514 11.6355 12.2621 11.5956C12.4846 11.5538 12.6603 11.4268 12.8293 11.2877C13.0037 11.144 13.1568 10.979 13.316 10.8197C13.5319 10.604 13.7578 10.3995 14.0268 10.2499C14.1962 10.1558 14.3785 10.0985 14.576 10.1271C15.0494 10.1953 15.2703 10.6799 15.0295 11.0781C14.9136 11.2695 14.7469 11.4144 14.5693 11.5472C14.1927 11.8292 13.7723 12.0097 13.3066 12.088C13.0939 12.1236 12.8867 12.1794 12.6997 12.2914C12.6048 12.3483 12.5225 12.42 12.4628 12.5145C12.3785 12.6477 12.3726 12.7849 12.4483 12.9232C12.4893 12.9983 12.5338 13.0711 12.5767 13.1447L12.576 13.144ZM8.78749 11.2482C8.75431 11.2672 8.71997 11.2838 8.68835 11.3055C8.57789 11.381 8.4686 11.4581 8.40537 11.5809C8.34213 11.7041 8.37961 11.7889 8.51271 11.8261C8.6259 11.8579 8.73987 11.8505 8.85307 11.8285C9.10795 11.7793 9.34487 11.6789 9.57906 11.5709C9.9284 11.4093 10.2684 11.2319 10.581 11.0065C10.8878 10.7853 11.1556 10.5269 11.3546 10.2038C11.4456 10.0562 11.5221 9.90246 11.5381 9.72582C11.5631 9.44769 11.4788 9.19978 11.3156 8.97936C11.1353 8.7361 10.8866 8.62647 10.5818 8.64584C10.4374 8.65514 10.2988 8.68922 10.1645 8.74074C9.8074 8.87749 9.47173 9.05839 9.13917 9.24394C8.98695 9.32877 8.83784 9.4198 8.69225 9.51664C8.47562 9.66036 8.27422 9.8215 8.11184 10.0256C7.9483 10.2309 7.83901 10.4622 7.78905 10.7198C7.78046 10.7647 7.78788 10.8077 7.81013 10.848C7.83706 10.8953 7.87453 10.9104 7.92683 10.8926C8.03105 10.8573 8.12902 10.8089 8.21957 10.7469C8.42644 10.6055 8.62902 10.4579 8.83238 10.3119C9.06072 10.1481 9.26564 9.96134 9.43308 9.73434C9.54237 9.58598 9.66337 9.45002 9.83394 9.36325C10.0658 9.24549 10.3667 9.28616 10.5506 9.46861C10.688 9.60457 10.7473 9.77579 10.7703 9.96134C10.8172 10.3355 10.6606 10.6059 10.3176 10.7562C10.1396 10.8341 9.95182 10.8755 9.76173 10.9065C9.41591 10.9635 9.09077 11.0773 8.78593 11.2482H8.78749Z" fill="white"/>
<path d="M5.74025 7.66076C5.79724 7.76613 5.8593 7.86839 5.92682 7.96717C6.05056 8.14962 6.22659 8.21741 6.44205 8.19804C6.62784 8.18139 6.7789 8.09617 6.8999 7.95981C7.04275 7.79867 7.18015 7.63249 7.32222 7.47057C7.50763 7.25945 7.72543 7.08669 7.96196 6.93484C8.12394 6.83102 8.29256 6.73883 8.45923 6.64354C8.75002 6.47658 8.88195 6.22169 8.89132 5.8963C8.89522 5.76189 8.87063 5.62863 8.86712 5.4946C8.86282 5.33152 8.87844 5.1727 8.9565 5.02511C9.06852 4.81439 9.26564 4.71173 9.48968 4.75551C9.65401 4.78766 9.76954 4.89147 9.86127 5.02511C9.93933 5.139 9.98188 5.26838 10.0244 5.39738C10.0869 5.58796 10.1899 5.58331 10.3433 5.49073C10.444 5.42991 10.5299 5.34857 10.615 5.26799C10.7172 5.17115 10.816 5.07005 10.9335 4.98986C11.0982 4.87753 11.2789 4.83066 11.4768 4.86552C11.6134 4.88954 11.7422 4.93602 11.8425 5.03712C11.9873 5.18316 12.0369 5.3629 12.0213 5.56278C12.0014 5.82503 11.8621 5.99392 11.6115 6.07643C11.4565 6.12756 11.2941 6.14306 11.1361 6.17947C11.074 6.1938 11.0139 6.21317 10.9561 6.24067C10.8215 6.30498 10.7571 6.41654 10.7352 6.55793C10.7219 6.64431 10.7274 6.73108 10.7266 6.81785C10.7247 7.08514 10.6501 7.32724 10.4428 7.51047C10.2781 7.65612 10.0838 7.73669 9.85815 7.72352C9.76915 7.71809 9.68913 7.68207 9.61029 7.64295C9.5334 7.6046 9.45689 7.56625 9.37141 7.54882C9.2266 7.51899 9.09819 7.56896 8.9729 7.63055C8.68015 7.77426 8.40732 7.95284 8.12668 8.11747C8.05291 8.16086 7.98343 8.2116 7.91434 8.26196C7.78124 8.3588 7.70942 8.49167 7.66805 8.64197C7.65322 8.69659 7.62941 8.74849 7.59623 8.7942C7.30934 9.19242 6.91043 9.4105 6.46508 9.44692C6.34369 9.4566 6.22308 9.43684 6.10598 9.40314C5.95493 9.35937 5.80387 9.36479 5.65009 9.44111C5.54041 9.49534 5.44634 9.56932 5.35227 9.64447C5.17858 9.78276 5.01347 9.9319 4.81363 10.0346C4.70824 10.0888 4.59778 10.1291 4.47873 10.1395C4.28942 10.1558 4.12861 10.0965 4.02791 9.93268C3.92799 9.76998 3.94126 9.59799 4.03845 9.43762C4.16023 9.23696 4.35031 9.12308 4.57085 9.05335C4.75664 8.99447 4.94946 8.96968 5.13955 8.93017C5.29958 8.89685 5.44673 8.83449 5.58412 8.74849C5.67702 8.69039 5.71098 8.56992 5.65594 8.4754C5.48615 8.18332 5.23478 7.9877 4.91667 7.87459C4.79684 7.83198 4.67311 7.80099 4.55601 7.75063C4.26561 7.62629 4.12432 7.38147 4.11573 7.07661C4.11183 6.94142 4.17506 6.85465 4.3269 6.78454C4.52947 6.69118 4.73088 6.72101 4.92409 6.82134C5.16414 6.94568 5.34681 7.13627 5.5205 7.33731C5.60598 7.43648 5.67819 7.54572 5.74025 7.66076Z" fill="white"/>
<path d="M3.23165 7.76225C3.28942 7.86103 3.33743 7.96407 3.36202 8.07602C3.37568 8.13839 3.39637 8.2085 3.32299 8.2484C3.25156 8.28675 3.1774 8.28675 3.10792 8.23562C2.86202 8.05394 2.58255 7.97027 2.27927 7.95129C2.04742 7.93657 1.83079 7.99584 1.61767 8.07486C1.50721 8.11553 1.39597 8.15195 1.27965 8.1717C0.979106 8.22245 0.653188 8.03612 0.543507 7.75025C0.422507 7.43493 0.520088 7.13472 0.808926 6.96195C0.949051 6.87828 1.10713 6.83373 1.27029 6.82715C1.98536 6.79848 2.59621 7.03052 3.08528 7.55656C3.12314 7.59724 3.15554 7.64256 3.18833 7.68749C3.2055 7.71073 3.21799 7.73746 3.23282 7.76303L3.23165 7.76225Z" fill="white"/>
<path d="M6.22269 7.34467C6.17234 7.24783 6.15985 7.12736 6.23869 7.00921C6.30934 6.90346 6.44283 6.85736 6.57632 6.88797C6.73479 6.92438 6.85852 7.05802 6.88194 7.21762C6.9159 7.44926 6.70005 7.62784 6.47445 7.55618C6.37023 7.52325 6.2906 7.46204 6.22269 7.34467Z" fill="white"/>
<path d="M4.6696 11.8056C4.57475 11.856 4.48771 11.885 4.39286 11.8734C4.17194 11.8467 4.06382 11.6247 4.17779 11.4333C4.23127 11.3435 4.30777 11.2827 4.4155 11.2699C4.52596 11.2567 4.63642 11.2466 4.7461 11.2796C4.86788 11.3164 4.92487 11.4136 4.8913 11.5356C4.85617 11.663 4.76015 11.7401 4.6696 11.8056Z" fill="white"/>
<path d="M12.5002 15.9741C12.583 16.1162 12.5377 16.3289 12.403 16.4304L12.3991 16.4331C12.2797 16.5206 12.2141 16.5075 12.1478 16.373C12.0931 16.2619 12.0779 16.1445 12.1228 16.0244C12.1669 15.9063 12.2801 15.8416 12.3839 15.8749C12.4366 15.8916 12.4737 15.9268 12.5002 15.9741Z" fill="white"/>
<path d="M25.5085 9.83196C25.2286 9.84358 24.9488 9.85481 24.6689 9.86644C24.5206 9.87263 24.3719 9.87767 24.2235 9.88542C23.978 9.8982 23.7329 9.91214 23.4874 9.9257C23.3762 9.9319 23.2649 9.93849 23.1537 9.94352C22.9078 9.95437 22.6619 9.9594 22.416 9.95166C22.1096 9.94236 21.8051 9.91524 21.5096 9.82615C21.3242 9.76998 21.1451 9.70026 20.9897 9.58095C20.8797 9.4965 20.802 9.38959 20.7434 9.26447C20.6802 9.13044 20.6896 8.99137 20.6958 8.85115C20.6993 8.77251 20.6954 8.69542 20.665 8.62144C20.6459 8.57534 20.6115 8.54939 20.5627 8.54048C20.4991 8.52847 20.4347 8.52769 20.3707 8.52343C20.165 8.50987 20.012 8.37856 19.9999 8.18875C19.9901 8.03225 20.0545 7.90171 20.1751 7.79905C20.252 7.73359 20.3406 7.68711 20.4316 7.64604C20.6345 7.55424 20.7356 7.39154 20.7665 7.17965C20.7875 7.03555 20.7856 6.89145 20.7598 6.74774C20.7333 6.60054 20.6915 6.55599 20.5444 6.52965C20.4402 6.51106 20.3352 6.4975 20.2372 6.45411C20.0397 6.36696 19.9242 6.20814 19.8488 6.01561C19.8012 5.89398 19.7762 5.76692 19.7961 5.63599C19.8274 5.43263 19.9542 5.29162 20.1127 5.17309C20.1974 5.10956 20.2899 5.05804 20.3847 5.01117C20.6373 4.88605 20.8156 4.68849 20.9554 4.45065C21.0233 4.33521 21.0756 4.21203 21.1455 4.09776C21.2173 3.98 21.3051 3.87928 21.4464 3.84016C21.4952 3.8266 21.5452 3.82234 21.5947 3.82234C21.6533 3.82234 21.7118 3.82582 21.77 3.83163C21.8153 3.83628 21.8574 3.84868 21.8949 3.88006C21.9648 3.93816 22.0432 3.98581 22.099 4.05979C22.1127 4.07761 22.1369 4.08614 22.1533 4.10512C22.1841 4.14075 22.2103 4.17794 22.2294 4.22171C22.2649 4.30306 22.3383 4.34451 22.4156 4.37666C22.5592 4.43632 22.711 4.45375 22.8652 4.44794C23.0311 4.44174 23.1966 4.44135 23.3625 4.44794C23.5538 4.45568 23.745 4.46769 23.9367 4.45413C24.0237 4.44794 24.1107 4.45065 24.1982 4.44484C24.3094 4.43787 24.421 4.43632 24.5323 4.43515C25.0885 4.42857 25.64 4.3786 26.1826 4.25154C26.5959 4.15509 27.0151 4.14385 27.4363 4.15509C27.6353 4.16051 27.8325 4.1791 28.0206 4.25464C28.2938 4.36388 28.4222 4.5839 28.3719 4.87094C28.3325 5.096 28.2173 5.27807 28.0374 5.41907C27.9117 5.51785 27.7618 5.55193 27.6061 5.5682C27.4332 5.58602 27.2641 5.56201 27.0947 5.53179C27.0331 5.52095 26.9706 5.50971 26.9074 5.52211C26.8434 5.5345 26.8282 5.56859 26.8672 5.62127C26.9211 5.69449 26.9874 5.75414 27.0741 5.78784C27.2099 5.84052 27.3508 5.87849 27.4835 5.93969C27.8106 6.09076 27.9777 6.34449 27.987 6.70125C27.9886 6.76091 27.9886 6.82018 27.9812 6.87983C27.9781 6.90656 27.9792 6.93367 27.9796 6.96079C27.982 7.10722 28.0483 7.16687 28.2103 7.15564C28.2759 7.15099 28.3407 7.13898 28.4058 7.13085C28.6225 7.10334 28.8231 7.20716 28.9273 7.40007C29.0795 7.68129 29.0132 8.08726 28.7782 8.30418C28.667 8.40722 28.5288 8.44983 28.382 8.47152C28.3368 8.47811 28.2919 8.48702 28.2493 8.50523C28.1908 8.53002 28.1486 8.57069 28.1279 8.62996C28.0971 8.71983 28.0951 8.81125 28.1268 8.9015C28.1556 8.9844 28.2126 9.04173 28.2977 9.06807C28.3578 9.08667 28.4187 9.10216 28.4796 9.11765C28.683 9.16917 28.7887 9.27609 28.8114 9.45466C28.8368 9.65648 28.7478 9.83273 28.5745 9.92609C28.4866 9.97335 28.3914 9.98846 28.2938 9.99504C28.2349 9.99892 28.2158 10.0136 28.2005 10.0702C28.1912 10.1058 28.1822 10.1419 28.1783 10.1787C28.1455 10.4669 27.9827 10.6605 27.7329 10.795C27.5432 10.8972 27.341 10.9538 27.1256 10.9553C26.9769 10.9565 26.8289 10.941 26.6869 10.891C26.473 10.8159 26.2911 10.8693 26.1361 11.0282C26.0417 11.125 25.9499 11.2249 25.8508 11.3167C25.5401 11.6053 25.1744 11.7909 24.7556 11.8637C24.478 11.9121 24.2243 11.8443 24.0139 11.6561C23.736 11.4078 23.6997 11.0464 23.9316 10.7458C24.0834 10.5494 24.2946 10.4432 24.5288 10.375C24.7723 10.3042 25.0175 10.3177 25.2634 10.3634C25.4339 10.3952 25.6061 10.4134 25.7786 10.3766C25.8079 10.3704 25.8364 10.3603 25.8641 10.3487C26.0206 10.2825 26.037 10.1306 25.9624 10.0249C25.9269 9.97451 25.9082 9.90556 25.8422 9.87535C25.7755 9.84474 25.7064 9.83312 25.6342 9.83312C25.5928 9.83312 25.551 9.83312 25.5097 9.83312V9.83119L25.5085 9.83196ZM23.8992 5.22732C23.7353 5.23119 23.4823 5.22267 23.229 5.23352C22.9776 5.24398 22.7271 5.26257 22.4776 5.29588C22.2954 5.3199 22.117 5.35864 21.9527 5.44502C21.827 5.51087 21.7173 5.59609 21.64 5.71695C21.5822 5.8076 21.5994 5.8506 21.7005 5.88585C21.7922 5.91761 21.8879 5.91684 21.9808 5.90483C22.2138 5.87539 22.4484 5.8719 22.6822 5.86725C22.9851 5.86105 23.2879 5.84711 23.5908 5.84866C24.0225 5.8506 24.4542 5.8475 24.8855 5.83355C25.236 5.82232 25.3227 5.78978 25.6732 5.77971C26.0171 5.77002 26.1541 5.46904 25.7208 5.36019C25.2493 5.21919 25.0491 5.23623 24.5581 5.2281C24.368 5.225 24.1783 5.22732 23.8992 5.22732ZM25.6474 9.24432C25.809 9.24626 25.9261 9.24432 26.0413 9.21798C26.1689 9.18893 26.2673 9.12114 26.2938 8.98711C26.3223 8.84456 26.2938 8.71557 26.1693 8.62221C26.1115 8.57883 26.0467 8.549 25.9792 8.52498C25.7177 8.43124 25.4464 8.39521 25.1701 8.39715C24.8012 8.39947 24.4324 8.38902 24.0635 8.38398C23.962 8.38243 23.8605 8.38166 23.7591 8.37546C23.5163 8.36035 23.2735 8.35183 23.0307 8.3557C22.8683 8.35841 22.7091 8.37817 22.567 8.4785C22.4585 8.5552 22.4011 8.65204 22.3836 8.77638C22.3535 8.98982 22.4382 9.10022 22.6521 9.13664C22.7313 9.14981 22.8114 9.156 22.891 9.15678C23.0998 9.15872 23.3082 9.17227 23.5167 9.17615C23.5873 9.17731 23.6576 9.1684 23.7161 9.12346C23.7751 9.07776 23.7965 9.03592 23.7505 8.96852C23.6986 8.89259 23.7107 8.81473 23.7735 8.74656C23.8207 8.69542 23.8769 8.65669 23.9417 8.63151C24.1857 8.53622 24.4343 8.54357 24.6837 8.60362C24.7907 8.62957 24.889 8.67528 24.9659 8.75702C25.0339 8.82945 25.0553 8.91351 25.0237 9.0088C25.0147 9.03553 25.0034 9.06187 24.9921 9.08783C24.9769 9.12269 24.9874 9.14787 25.019 9.16724C25.0577 9.19087 25.1002 9.2021 25.1439 9.21023C25.3246 9.24394 25.5089 9.23619 25.6474 9.24432ZM23.6931 6.47852C23.4761 6.47309 23.2048 6.49944 22.9347 6.54011C22.7743 6.56413 22.6424 6.63618 22.5506 6.76478C22.4464 6.91082 22.432 7.07778 22.4796 7.24899C22.496 7.30787 22.5327 7.35474 22.5846 7.38999C22.6658 7.445 22.7583 7.46204 22.8531 7.46476C22.9936 7.4694 23.1326 7.45042 23.2715 7.43454C23.3664 7.42369 23.4628 7.41827 23.5538 7.38535C23.6459 7.35203 23.6517 7.31833 23.5803 7.25519C23.494 7.17888 23.4862 7.10567 23.5553 7.0127C23.6279 6.91508 23.7243 6.84768 23.8383 6.80701C24.069 6.7245 24.3071 6.71016 24.5483 6.73922C24.6443 6.75084 24.7368 6.77834 24.8164 6.83451C24.925 6.91121 24.9905 7.00921 24.9027 7.14983C24.8707 7.20096 24.8863 7.2304 24.9456 7.24783C25.005 7.26526 25.067 7.26836 25.1283 7.26875C25.35 7.27068 25.5709 7.25713 25.7915 7.2335C25.8894 7.22304 25.9878 7.21103 26.0803 7.17462C26.1791 7.13627 26.2267 7.06693 26.2271 6.96234C26.2278 6.76904 26.1271 6.63695 25.9382 6.58427C25.7856 6.54166 25.6291 6.52655 25.4718 6.52307C25.213 6.51725 24.9546 6.51648 24.6958 6.51338C24.6615 6.51299 24.6271 6.51338 24.5928 6.51144C24.3118 6.49711 24.0315 6.47852 23.6931 6.47852Z" fill="white"/>
<path d="M20.4011 2.56029C20.5385 2.56494 20.674 2.58896 20.8098 2.60755C20.9355 2.62499 21.0604 2.62576 21.1849 2.59864C21.3293 2.56727 21.4245 2.48437 21.4644 2.34143C21.4792 2.28798 21.4944 2.23491 21.5124 2.18261C21.6041 1.92075 21.8465 1.82817 22.14 1.956C22.1771 1.97227 22.2126 1.99203 22.247 2.01411C22.3894 2.10591 22.528 2.20275 22.6783 2.28255C22.9909 2.44912 23.3258 2.4836 23.6728 2.4619C24.0136 2.4406 24.3516 2.37978 24.6947 2.39992C24.8047 2.40651 24.9152 2.40109 25.0245 2.40961C25.1502 2.41929 25.2766 2.39799 25.3887 2.3395C25.6205 2.21864 25.786 1.94748 26.085 2.08732C26.1939 2.13845 26.2891 2.12141 26.3797 2.04703C26.4242 2.01023 26.5612 1.80415 26.6154 1.7813C26.7489 1.72513 26.9035 1.7782 26.9835 1.89828C27.0171 1.94903 26.9816 2.06834 26.9749 2.12296C26.9566 2.27326 27.1771 2.32904 27.2919 2.33872C27.4164 2.34918 27.5366 2.32749 27.6545 2.28836C27.7837 2.24575 27.914 2.20856 28.0522 2.21089C28.1143 2.21205 28.1752 2.22019 28.2345 2.23491C28.3231 2.2566 28.4129 2.27442 28.4987 2.30734C28.7111 2.38947 28.8204 2.54984 28.8524 2.76637C28.9148 3.18744 28.6275 3.54731 28.2001 3.59379C27.9792 3.61781 27.7778 3.54266 27.5694 3.47758C27.5471 3.47061 27.5249 3.46247 27.5026 3.45511C27.2958 3.38461 27.1326 3.45318 26.9929 3.6058C26.9238 3.68134 26.8551 3.7592 26.7759 3.8235C26.6752 3.90485 26.5538 3.95133 26.4257 3.97457C26.1045 4.03345 25.85 3.92073 25.6556 3.66817C25.5826 3.57326 25.5058 3.48882 25.3801 3.46712C25.3047 3.45395 25.229 3.45318 25.1533 3.45899C24.9261 3.47642 24.6997 3.47874 24.4726 3.45899C24.3231 3.4462 24.1724 3.44504 24.0241 3.4218C23.8871 3.40049 23.7509 3.37377 23.6143 3.35052C23.5221 3.33503 23.4296 3.3269 23.3371 3.34433C23.2622 3.35827 23.2025 3.39546 23.1595 3.46015C23.1232 3.51516 23.0959 3.57442 23.0662 3.63253C23.0268 3.71 22.9726 3.77547 22.9027 3.8266C22.8668 3.85294 22.8207 3.85953 22.7782 3.87037C22.61 3.91298 22.4433 3.90601 22.2817 3.84132C22.1236 3.77818 22.0034 3.6732 21.9487 3.50818C21.9027 3.36834 21.7926 3.3021 21.6634 3.26182C21.471 3.20139 21.279 3.22076 21.0893 3.27847C20.9772 3.31256 20.8664 3.3513 20.7544 3.38539C20.6006 3.43226 20.4441 3.45318 20.2852 3.41289C20.0807 3.36098 19.9429 3.18589 19.955 2.98562C19.971 2.72764 20.1252 2.5541 20.4011 2.56029Z" fill="white"/>
<path d="M28.0225 0.389486C28.0241 0.572711 27.9386 0.70093 27.809 0.807069C27.745 0.859751 27.6759 0.90546 27.6041 0.946521C27.3902 1.06815 27.2154 1.22969 27.0858 1.43848C27.0682 1.46676 27.0499 1.49426 27.0093 1.48884C26.9659 1.48303 26.9332 1.46792 26.9148 1.42221C26.8809 1.33699 26.8691 1.24944 26.873 1.15957C26.8844 0.906235 26.9484 0.666454 27.0756 0.445267C27.1693 0.282573 27.2868 0.141184 27.4601 0.0559627C27.5389 0.0172259 27.6225 -0.00834034 27.7122 0.00250595C27.8551 0.0199375 27.9449 0.102059 27.9937 0.232602C28.014 0.286059 28.0249 0.341453 28.0225 0.389486Z" fill="white"/>
<path d="M39.4812 15.0153C39.5769 14.8429 39.6725 14.7 39.7697 14.5586C39.9129 14.3506 40.0671 14.1499 40.2244 13.9516C40.4356 13.6859 40.6491 13.4225 40.8649 13.1606C40.9785 13.0227 41.0905 12.8833 41.192 12.7361C41.2498 12.6524 41.2986 12.566 41.3274 12.4703C41.3704 12.3289 41.3368 12.1988 41.2435 12.0868C41.144 11.9675 41.0121 11.9028 40.8559 11.9021C40.7021 11.9013 40.5765 11.9865 40.5343 12.1686C40.505 12.2952 40.4801 12.4231 40.4309 12.5447C40.4012 12.6179 40.3696 12.69 40.3321 12.7589C40.272 12.8701 40.208 12.9789 40.142 13.087C40.0515 13.2346 39.9594 13.381 39.8649 13.5263C39.7892 13.6433 39.7119 13.7599 39.6307 13.873C39.5245 14.0206 39.4172 14.167 39.306 14.3103C39.1775 14.4757 39.0441 14.6365 38.8977 14.7864C38.6463 15.044 38.3567 15.2474 38.0191 15.3795C37.9024 15.4252 37.7814 15.4639 37.6557 15.4674C37.4531 15.4736 37.2798 15.4062 37.1444 15.2477C37.0788 15.171 37.0277 15.0878 36.991 14.9956C36.9582 14.9127 36.9672 14.8255 36.9777 14.7395C36.9957 14.5927 37.0464 14.4575 37.1284 14.3339C37.2056 14.217 37.3126 14.1356 37.4379 14.0725C37.6311 13.9752 37.8224 13.8738 38.0031 13.7548C38.2607 13.5852 38.4933 13.3853 38.7154 13.1726C38.9098 12.9871 39.0971 12.7949 39.2716 12.5904C39.3797 12.4637 39.4836 12.3336 39.5823 12.1992C39.621 12.1465 39.6592 12.0923 39.6904 12.0369C39.7978 11.8455 39.9059 11.6514 39.8899 11.4202C39.8817 11.3028 39.8208 11.2091 39.7486 11.1203C39.6463 10.9948 39.5589 10.862 39.5191 10.7012C39.4637 10.4769 39.5601 10.2461 39.765 10.1376C39.9761 10.026 40.1955 10.0733 40.3786 10.205C40.6241 10.382 40.8075 10.6206 41.0222 10.8279C41.1588 10.96 41.3091 11.0739 41.4804 11.156C41.6315 11.2284 41.7939 11.2726 41.9543 11.321C42.112 11.3683 42.2654 11.4252 42.416 11.4918C42.6436 11.5929 42.8684 11.7014 43.1139 11.758C43.3532 11.8133 43.58 11.7905 43.7954 11.67C43.925 11.5976 44.039 11.5035 44.1623 11.4225C44.3134 11.3233 44.4699 11.2346 44.662 11.2497C44.7111 11.2536 44.7576 11.2675 44.804 11.283C44.8774 11.3078 44.9012 11.3981 44.8946 11.4647C44.8868 11.5437 44.8431 11.603 44.7798 11.6479C44.6826 11.7173 44.571 11.756 44.4551 11.7777C44.2861 11.8091 44.1155 11.8343 43.9457 11.8618C43.7982 11.8854 43.6499 11.9071 43.5058 11.9466C43.4356 11.966 43.3669 11.9915 43.3036 12.0295C43.1826 12.1019 43.1323 12.21 43.1358 12.3464C43.1378 12.4169 43.135 12.4862 43.1046 12.5509C43.064 12.6369 42.9945 12.6896 42.9102 12.7337C42.7658 12.8093 42.621 12.7849 42.4738 12.755C42.3766 12.7353 42.279 12.7213 42.1787 12.7217C42.0136 12.7229 41.8801 12.7895 41.7744 12.9111C41.6424 13.0622 41.5437 13.2361 41.4523 13.4124C41.3462 13.6177 41.2509 13.8292 41.176 14.0485C41.1135 14.2305 41.0644 14.4161 41.03 14.6055C41.0062 14.7368 40.9859 14.8685 40.9789 15.0014C40.9699 15.1738 40.9699 15.3458 41.0015 15.5174C41.0367 15.7083 41.1096 15.883 41.2189 16.043C41.3169 16.1863 41.4383 16.3103 41.5644 16.4292C41.6869 16.5447 41.8126 16.6578 41.9246 16.7837C41.9836 16.8495 42.0339 16.9216 42.0706 17.0021C42.1233 17.1183 42.1167 17.2349 42.0749 17.3515C42.0328 17.4693 41.9664 17.5731 41.8614 17.6452C41.7201 17.7424 41.5667 17.7687 41.4008 17.7126C41.231 17.6549 41.135 17.5204 41.046 17.3798C40.9859 17.2853 40.9328 17.1857 40.8907 17.0815C40.8231 16.9146 40.7345 16.7569 40.6772 16.5857C40.6444 16.4877 40.5796 16.4083 40.4863 16.356C40.1889 16.1891 40.0925 16.8937 39.5277 16.8507C39.2888 16.8325 39.0581 16.5675 39.0253 16.3428C38.9882 16.0895 39.1206 15.8176 39.2103 15.5867C39.2619 15.4538 39.3173 15.3237 39.3829 15.197C39.4184 15.1281 39.4574 15.0614 39.4812 15.0153Z" fill="white"/>
<path d="M35.3547 12.8228C35.4617 12.6164 35.6303 12.4703 35.8087 12.3336C36.0187 12.1724 36.2373 12.0233 36.4445 11.8587C36.6744 11.6754 36.8875 11.4752 37.0698 11.2439C37.1588 11.1308 37.2431 11.0146 37.3259 10.8964C37.5101 10.6326 37.6627 10.3503 37.8224 10.0721C37.9059 9.92609 37.9824 9.77579 38.0608 9.62666C38.1186 9.51664 38.1779 9.40741 38.2326 9.29584C38.3255 9.10565 38.4199 8.91584 38.5066 8.72254C38.6229 8.46223 38.7096 8.19185 38.8048 7.92417C38.8774 7.72042 38.9664 7.5248 39.1354 7.3776C39.3048 7.22962 39.5058 7.16687 39.7279 7.16067C39.8852 7.15641 40.037 7.18856 40.1865 7.23272C40.2993 7.26604 40.3954 7.3315 40.4867 7.40278C40.7267 7.59104 40.9508 7.79828 41.1873 7.99119C41.3555 8.12832 41.5257 8.26273 41.6982 8.39405C41.8321 8.49632 41.9664 8.59819 42.1096 8.68806C42.1756 8.72912 42.2412 8.77057 42.3083 8.8097C42.434 8.88291 42.5671 8.93753 42.71 8.96968C42.8661 9.00493 43.0183 9.0549 43.1772 9.07814C43.3641 9.10565 43.5515 9.10216 43.7388 9.09325C43.9504 9.08318 44.162 9.07001 44.3727 9.11107C44.6487 9.16491 44.8439 9.31095 44.9496 9.57359C45.0078 9.71769 45.0433 9.86411 45.0343 10.0202C45.0265 10.1562 44.9656 10.2716 44.8883 10.3778C44.7787 10.5284 44.6296 10.6326 44.4567 10.7028C44.2947 10.7682 44.1237 10.7864 43.9508 10.7984C43.8548 10.805 43.763 10.7802 43.6702 10.7659C43.5253 10.7438 43.3817 10.7128 43.2467 10.6559C43.0952 10.592 42.9461 10.5222 42.8122 10.4239C42.7584 10.3843 42.6986 10.3534 42.6428 10.3158C42.5382 10.2453 42.4371 10.1697 42.338 10.0923C42.1873 9.97451 42.0386 9.85443 41.8899 9.73434C41.742 9.61542 41.5886 9.5027 41.4293 9.40043C41.1096 9.1959 40.836 8.93753 40.5527 8.69039C40.464 8.61291 40.3696 8.54396 40.2564 8.50523C40.1135 8.45603 39.943 8.51297 39.8302 8.64313C39.7084 8.78336 39.6303 8.94915 39.5464 9.11146C39.5347 9.13431 39.5206 9.15639 39.5082 9.17924C39.4141 9.34891 39.3282 9.52284 39.2466 9.69871C39.2021 9.79477 39.151 9.88813 39.1042 9.98303C38.9812 10.2321 38.8548 10.4796 38.7084 10.7163C38.6022 10.8879 38.4949 11.0591 38.3864 11.2296C38.3376 11.3067 38.2935 11.3865 38.2427 11.462C38.0487 11.7518 37.8704 12.0512 37.7041 12.3568C37.5179 12.6993 37.3184 13.0339 37.1209 13.3694C36.9835 13.6026 36.8165 13.8149 36.5975 13.9814C36.3907 14.1383 36.1592 14.2317 35.8969 14.2173C35.5948 14.2007 35.3661 14.0581 35.2474 13.7761C35.1463 13.5352 35.1611 13.2881 35.2466 13.0436C35.2743 12.9646 35.3102 12.8902 35.3547 12.8228Z" fill="white"/>
<path d="M33.4226 13.1711C33.2357 13.0653 33.0842 12.9232 32.9804 12.7357C32.9008 12.592 32.8684 12.4351 32.8719 12.2716C32.8766 12.0481 32.9215 11.8316 33.0081 11.6266C33.0835 11.4492 33.174 11.278 33.3247 11.1486C33.3992 11.0843 33.48 11.0289 33.5838 11.0258C33.6525 11.0239 33.7115 11.0514 33.7708 11.0859C33.8774 11.1478 33.9648 11.2377 34.0831 11.2819C34.1885 11.321 34.2946 11.3237 34.4027 11.3078C34.6533 11.271 34.8637 11.1475 35.0655 11.0041C35.2302 10.8871 35.3805 10.7492 35.5667 10.6633C35.6213 10.6381 35.6771 10.6203 35.7369 10.6141C35.8438 10.6024 35.9402 10.6815 35.9597 10.7857C35.9929 10.965 35.9422 11.132 35.886 11.2966C35.8415 11.4264 35.7829 11.5515 35.7236 11.6758C35.6463 11.8389 35.5421 11.9834 35.4375 12.1287C35.2634 12.3696 35.0815 12.604 34.8692 12.8135C34.6924 12.9878 34.4941 13.1323 34.2622 13.2268C34.0163 13.3272 33.7693 13.3295 33.523 13.2272C33.4878 13.2129 33.4558 13.1904 33.4226 13.1711Z" fill="white"/>
<path d="M36.2888 7.94083C36.4746 8.05162 36.6436 8.181 36.7595 8.3681C36.8223 8.4692 36.8661 8.57844 36.9059 8.69C36.9398 8.7849 36.9613 8.88175 36.9754 8.98091C37.0003 9.16065 36.966 9.33497 36.907 9.5027C36.8594 9.63828 36.7849 9.75914 36.6545 9.83738C36.5554 9.89665 36.4777 9.8889 36.3973 9.80446C36.3344 9.7386 36.2837 9.66152 36.215 9.60109C36.0878 9.48914 35.9441 9.40353 35.7935 9.32412C35.5913 9.21798 35.4035 9.0886 35.3141 8.86393C35.2361 8.66869 35.2166 8.46688 35.2997 8.27164C35.3832 8.07602 35.5144 7.91604 35.7361 7.86336C35.8563 7.83508 35.9793 7.8006 36.1042 7.85019C36.1682 7.87575 36.2306 7.90364 36.2888 7.94083Z" fill="white"/>
<path d="M36.7412 6.059C36.8423 5.87577 37.0015 5.76228 37.2006 5.71308C37.345 5.67744 37.489 5.69681 37.626 5.76809C37.859 5.88894 38.0015 6.08185 38.0878 6.32009C38.1963 6.62068 38.2283 6.92941 38.1725 7.24551C38.1506 7.37024 38.1069 7.48839 38.0468 7.59879C38.014 7.65844 37.9715 7.71577 37.9094 7.75373C37.8426 7.79479 37.7712 7.78976 37.7135 7.73514C37.6444 7.67006 37.5952 7.5891 37.5355 7.51666C37.4512 7.41401 37.3532 7.32647 37.249 7.24473C37.0858 7.1169 36.902 7.0127 36.77 6.84807C36.5897 6.62301 36.5679 6.44714 36.6799 6.18063C36.6978 6.13841 36.7181 6.09851 36.7412 6.059Z" fill="white"/>
<path d="M43.2068 8.08183C43.1811 8.06711 43.1557 8.05162 43.1296 8.03767C43.089 8.01637 43.0808 7.98228 43.089 7.94587C43.0968 7.91023 43.1268 7.8959 43.1631 7.89822C43.3251 7.90868 43.4851 7.89667 43.6436 7.87846C44.014 7.83585 44.3661 7.74598 44.685 7.5647C44.9512 7.41362 45.1705 7.21026 45.3981 7.0158C45.4996 6.92903 45.605 6.84807 45.7389 6.80584C45.8563 6.76866 45.975 6.77253 46.0921 6.81514C46.242 6.86937 46.3591 6.96505 46.4317 7.10489C46.5109 7.2579 46.509 7.41169 46.4489 7.56082C46.3349 7.8436 46.1081 8.02373 45.8411 8.16473C45.6432 8.26893 45.4262 8.32975 45.2026 8.36848C44.9812 8.40683 44.7545 8.41536 44.5265 8.4049C44.2143 8.39095 43.9051 8.34718 43.603 8.24995C43.4664 8.20618 43.3317 8.15427 43.2068 8.08183Z" fill="white"/>
<path d="M43.683 6.94685C43.5597 7.16493 43.3805 7.29586 43.169 7.38806C43.0402 7.44423 42.9079 7.49071 42.765 7.49652C42.7451 7.49729 42.7252 7.49613 42.7057 7.49613C42.6764 7.49613 42.6612 7.48141 42.6545 7.45391C42.6479 7.42796 42.6428 7.40743 42.6705 7.38651C42.8036 7.28579 42.9203 7.16842 43.0039 7.02354C43.0632 6.9205 43.0972 6.80739 43.1198 6.6908C43.1381 6.59589 43.1612 6.50331 43.208 6.41538C43.3005 6.24222 43.5527 6.22131 43.685 6.36076C43.7962 6.47774 43.7935 6.61139 43.7623 6.75161C43.7459 6.8256 43.7189 6.89649 43.683 6.94685Z" fill="white"/>
<path d="M43.386 16.8332C43.6522 16.9828 43.8759 17.135 44.025 17.3515C44.2115 17.6223 44.1389 17.9124 43.861 17.9845C43.669 18.0345 43.4656 17.9589 43.2904 17.8253C42.9246 17.5464 42.676 17.2187 42.5495 16.8522C42.53 16.7961 42.53 16.743 42.5425 16.6946C42.5745 16.5702 42.7084 16.5295 42.8786 16.5973C43.0593 16.6694 43.2424 16.7387 43.386 16.8332Z" fill="white"/>
<path d="M44.3751 12.3785C44.3282 12.43 44.2603 12.4719 44.1787 12.487C44.0851 12.5044 43.9902 12.4982 43.8973 12.4781C43.8571 12.4692 43.8524 12.4544 43.877 12.4223C43.9699 12.3018 44.0995 12.253 44.2459 12.2394C44.2857 12.236 44.3243 12.2464 44.3587 12.2697C44.3981 12.2964 44.4059 12.3254 44.3751 12.3785Z" fill="white"/>
</svg>
