<svg width="146" height="24" viewBox="0 0 146 24" fill="none" xmlns="http://www.w3.org/2000/svg">
<path d="M34.4999 19C34.3932 19 34.3025 18.968 34.2279 18.904C34.1639 18.8293 34.1319 18.7387 34.1319 18.632V9.224H31.0599C30.9532 9.224 30.8625 9.192 30.7879 9.128C30.7239 9.05333 30.6919 8.96267 30.6919 8.856V8.184C30.6919 8.06667 30.7239 7.976 30.7879 7.912C30.8625 7.83733 30.9532 7.8 31.0599 7.8H38.7719C38.8892 7.8 38.9799 7.83733 39.0439 7.912C39.1185 7.976 39.1559 8.06667 39.1559 8.184V8.856C39.1559 8.96267 39.1185 9.05333 39.0439 9.128C38.9799 9.192 38.8892 9.224 38.7719 9.224H35.7159V18.632C35.7159 18.7387 35.6785 18.8293 35.6039 18.904C35.5399 18.968 35.4492 19 35.3319 19H34.4999ZM40.5826 19C40.476 19 40.3853 18.968 40.3106 18.904C40.2466 18.8293 40.2146 18.7387 40.2146 18.632V11.048C40.2146 10.9413 40.2466 10.856 40.3106 10.792C40.3853 10.7173 40.476 10.68 40.5826 10.68H41.3506C41.4573 10.68 41.5426 10.7173 41.6066 10.792C41.6706 10.856 41.7026 10.9413 41.7026 11.048V18.632C41.7026 18.7387 41.6706 18.8293 41.6066 18.904C41.5426 18.968 41.4573 19 41.3506 19H40.5826ZM40.4546 9.128C40.348 9.128 40.2573 9.096 40.1826 9.032C40.1186 8.95733 40.0866 8.86667 40.0866 8.76V7.896C40.0866 7.78933 40.1186 7.704 40.1826 7.64C40.2573 7.56533 40.348 7.528 40.4546 7.528H41.4626C41.5693 7.528 41.6546 7.56533 41.7186 7.64C41.7933 7.704 41.8306 7.78933 41.8306 7.896V8.76C41.8306 8.86667 41.7933 8.95733 41.7186 9.032C41.6546 9.096 41.5693 9.128 41.4626 9.128H40.4546ZM43.9776 19C43.871 19 43.7803 18.968 43.7056 18.904C43.6416 18.8293 43.6096 18.7387 43.6096 18.632V11.048C43.6096 10.9413 43.6416 10.856 43.7056 10.792C43.7803 10.7173 43.871 10.68 43.9776 10.68H44.6976C44.8043 10.68 44.8896 10.7173 44.9536 10.792C45.0283 10.856 45.0656 10.9413 45.0656 11.048V11.608C45.311 11.2773 45.6203 11.016 45.9936 10.824C46.367 10.6213 46.815 10.52 47.3376 10.52C48.543 10.5093 49.3963 11 49.8976 11.992C50.143 11.544 50.5003 11.1867 50.9696 10.92C51.439 10.6533 51.9723 10.52 52.5696 10.52C53.1243 10.52 53.6256 10.648 54.0736 10.904C54.5323 11.16 54.8896 11.5493 55.1456 12.072C55.4123 12.584 55.5456 13.2293 55.5456 14.008V18.632C55.5456 18.7387 55.5083 18.8293 55.4336 18.904C55.3696 18.968 55.2843 19 55.1776 19H54.4256C54.319 19 54.2283 18.968 54.1536 18.904C54.0896 18.8293 54.0576 18.7387 54.0576 18.632V14.152C54.0576 13.5547 53.9723 13.0853 53.8016 12.744C53.631 12.4027 53.4016 12.1627 53.1136 12.024C52.8256 11.8853 52.511 11.816 52.1696 11.816C51.8923 11.816 51.6096 11.8853 51.3216 12.024C51.0336 12.1627 50.7936 12.4027 50.6016 12.744C50.4203 13.0853 50.3296 13.5547 50.3296 14.152V18.632C50.3296 18.7387 50.2923 18.8293 50.2176 18.904C50.1536 18.968 50.0683 19 49.9616 19H49.2096C49.103 19 49.0123 18.968 48.9376 18.904C48.8736 18.8293 48.8416 18.7387 48.8416 18.632V14.152C48.8416 13.5547 48.751 13.0853 48.5696 12.744C48.3883 12.4027 48.1536 12.1627 47.8656 12.024C47.5776 11.8853 47.2736 11.816 46.9536 11.816C46.6763 11.816 46.3936 11.8853 46.1056 12.024C45.8176 12.1627 45.5776 12.4027 45.3856 12.744C45.2043 13.0853 45.1136 13.5493 45.1136 14.136V18.632C45.1136 18.7387 45.0763 18.8293 45.0016 18.904C44.9376 18.968 44.8523 19 44.7456 19H43.9776ZM60.6604 19.16C59.5617 19.16 58.687 18.824 58.0364 18.152C57.3857 17.4693 57.0284 16.5413 56.9644 15.368C56.9537 15.2293 56.9484 15.0533 56.9484 14.84C56.9484 14.616 56.9537 14.4347 56.9644 14.296C57.007 13.5387 57.183 12.8773 57.4924 12.312C57.8017 11.736 58.223 11.2933 58.7564 10.984C59.3004 10.6747 59.935 10.52 60.6604 10.52C61.471 10.52 62.1484 10.6907 62.6924 11.032C63.247 11.3733 63.6684 11.8587 63.9564 12.488C64.2444 13.1173 64.3884 13.8533 64.3884 14.696V14.968C64.3884 15.0853 64.351 15.176 64.2764 15.24C64.2124 15.304 64.127 15.336 64.0204 15.336H58.4844C58.4844 15.3467 58.4844 15.368 58.4844 15.4C58.4844 15.432 58.4844 15.4587 58.4844 15.48C58.5057 15.9173 58.6017 16.328 58.7724 16.712C58.943 17.0853 59.1884 17.3893 59.5084 17.624C59.8284 17.8587 60.2124 17.976 60.6604 17.976C61.0444 17.976 61.3644 17.9173 61.6204 17.8C61.8764 17.6827 62.0844 17.5547 62.2444 17.416C62.4044 17.2667 62.511 17.1547 62.5644 17.08C62.6604 16.9413 62.735 16.8613 62.7884 16.84C62.8417 16.808 62.927 16.792 63.0444 16.792H63.8124C63.919 16.792 64.0044 16.824 64.0684 16.888C64.143 16.9413 64.175 17.0213 64.1644 17.128C64.1537 17.288 64.0684 17.4853 63.9084 17.72C63.7484 17.944 63.519 18.168 63.2204 18.392C62.9217 18.616 62.559 18.8027 62.1324 18.952C61.7057 19.0907 61.215 19.16 60.6604 19.16ZM58.4844 14.232H62.8684V14.184C62.8684 13.704 62.7777 13.2773 62.5964 12.904C62.4257 12.5307 62.175 12.2373 61.8444 12.024C61.5137 11.8 61.119 11.688 60.6604 11.688C60.2017 11.688 59.807 11.8 59.4764 12.024C59.1564 12.2373 58.911 12.5307 58.7404 12.904C58.5697 13.2773 58.4844 13.704 58.4844 14.184V14.232ZM69.2295 19.16C68.4188 19.16 67.7415 19.0053 67.1975 18.696C66.6535 18.3867 66.2375 17.96 65.9495 17.416C65.6615 16.8613 65.5015 16.232 65.4695 15.528C65.4588 15.3467 65.4535 15.1173 65.4535 14.84C65.4535 14.552 65.4588 14.3227 65.4695 14.152C65.5015 13.4373 65.6615 12.808 65.9495 12.264C66.2482 11.72 66.6695 11.2933 67.2135 10.984C67.7575 10.6747 68.4295 10.52 69.2295 10.52C70.0295 10.52 70.7015 10.6747 71.2455 10.984C71.7895 11.2933 72.2055 11.72 72.4935 12.264C72.7922 12.808 72.9575 13.4373 72.9895 14.152C73.0002 14.3227 73.0055 14.552 73.0055 14.84C73.0055 15.1173 73.0002 15.3467 72.9895 15.528C72.9575 16.232 72.7975 16.8613 72.5095 17.416C72.2215 17.96 71.8055 18.3867 71.2615 18.696C70.7175 19.0053 70.0402 19.16 69.2295 19.16ZM69.2295 17.928C69.8908 17.928 70.4188 17.72 70.8135 17.304C71.2082 16.8773 71.4215 16.2587 71.4535 15.448C71.4642 15.288 71.4695 15.0853 71.4695 14.84C71.4695 14.5947 71.4642 14.392 71.4535 14.232C71.4215 13.4213 71.2082 12.808 70.8135 12.392C70.4188 11.9653 69.8908 11.752 69.2295 11.752C68.5682 11.752 68.0348 11.9653 67.6295 12.392C67.2348 12.808 67.0268 13.4213 67.0055 14.232C66.9948 14.392 66.9895 14.5947 66.9895 14.84C66.9895 15.0853 66.9948 15.288 67.0055 15.448C67.0268 16.2587 67.2348 16.8773 67.6295 17.304C68.0348 17.72 68.5682 17.928 69.2295 17.928ZM77.633 19.16C76.9503 19.16 76.369 19.0107 75.889 18.712C75.4197 18.4027 75.0623 17.976 74.817 17.432C74.5717 16.888 74.449 16.264 74.449 15.56V11.048C74.449 10.9413 74.481 10.856 74.545 10.792C74.6197 10.7173 74.7103 10.68 74.817 10.68H75.617C75.7237 10.68 75.809 10.7173 75.873 10.792C75.9477 10.856 75.985 10.9413 75.985 11.048V15.48C75.985 17.0693 76.6783 17.864 78.065 17.864C78.7263 17.864 79.2543 17.656 79.649 17.24C80.0543 16.8133 80.257 16.2267 80.257 15.48V11.048C80.257 10.9413 80.289 10.856 80.353 10.792C80.4277 10.7173 80.5183 10.68 80.625 10.68H81.409C81.5263 10.68 81.617 10.7173 81.681 10.792C81.745 10.856 81.777 10.9413 81.777 11.048V18.632C81.777 18.7387 81.745 18.8293 81.681 18.904C81.617 18.968 81.5263 19 81.409 19H80.673C80.5663 19 80.4757 18.968 80.401 18.904C80.337 18.8293 80.305 18.7387 80.305 18.632V17.928C80.017 18.3013 79.665 18.6 79.249 18.824C78.8437 19.048 78.305 19.16 77.633 19.16ZM86.922 19C86.3247 19 85.8393 18.888 85.466 18.664C85.0927 18.4293 84.8207 18.104 84.65 17.688C84.4793 17.2613 84.394 16.76 84.394 16.184V11.96H83.146C83.0393 11.96 82.9487 11.928 82.874 11.864C82.81 11.7893 82.778 11.6987 82.778 11.592V11.048C82.778 10.9413 82.81 10.856 82.874 10.792C82.9487 10.7173 83.0393 10.68 83.146 10.68H84.394V8.008C84.394 7.90133 84.426 7.816 84.49 7.752C84.5647 7.67733 84.6553 7.64 84.762 7.64H85.514C85.6207 7.64 85.706 7.67733 85.77 7.752C85.8447 7.816 85.882 7.90133 85.882 8.008V10.68H87.866C87.9727 10.68 88.058 10.7173 88.122 10.792C88.1967 10.856 88.234 10.9413 88.234 11.048V11.592C88.234 11.6987 88.1967 11.7893 88.122 11.864C88.058 11.928 87.9727 11.96 87.866 11.96H85.882V16.072C85.882 16.5733 85.9673 16.968 86.138 17.256C86.3087 17.544 86.6127 17.688 87.05 17.688H88.026C88.1327 17.688 88.218 17.7253 88.282 17.8C88.3567 17.864 88.394 17.9493 88.394 18.056V18.632C88.394 18.7387 88.3567 18.8293 88.282 18.904C88.218 18.968 88.1327 19 88.026 19H86.922ZM96.6939 19.16C95.7659 19.16 94.9872 19.0213 94.3579 18.744C93.7285 18.456 93.2432 18.088 92.9019 17.64C92.5712 17.1813 92.3952 16.696 92.3739 16.184C92.3739 16.0987 92.4059 16.024 92.4699 15.96C92.5445 15.8853 92.6299 15.848 92.7259 15.848H93.5419C93.6699 15.848 93.7659 15.88 93.8299 15.944C93.8939 16.008 93.9365 16.0827 93.9579 16.168C94.0112 16.424 94.1392 16.68 94.3419 16.936C94.5552 17.1813 94.8485 17.3893 95.2219 17.56C95.6059 17.72 96.0965 17.8 96.6939 17.8C97.6112 17.8 98.2832 17.64 98.7099 17.32C99.1472 16.9893 99.3659 16.552 99.3659 16.008C99.3659 15.6347 99.2485 15.336 99.0139 15.112C98.7899 14.8773 98.4432 14.6693 97.9739 14.488C97.5045 14.3067 96.8965 14.1093 96.1499 13.896C95.3712 13.672 94.7259 13.4267 94.2139 13.16C93.7019 12.8933 93.3179 12.5627 93.0619 12.168C92.8165 11.7733 92.6939 11.272 92.6939 10.664C92.6939 10.088 92.8485 9.576 93.1579 9.128C93.4672 8.66933 93.9099 8.30667 94.4859 8.04C95.0725 7.77333 95.7819 7.64 96.6139 7.64C97.2752 7.64 97.8512 7.73067 98.3419 7.912C98.8432 8.08267 99.2592 8.31733 99.5899 8.616C99.9205 8.904 100.171 9.21867 100.342 9.56C100.513 9.89067 100.603 10.216 100.614 10.536C100.614 10.6107 100.587 10.6853 100.534 10.76C100.481 10.824 100.395 10.856 100.278 10.856H99.4299C99.3552 10.856 99.2752 10.8347 99.1899 10.792C99.1152 10.7493 99.0565 10.6693 99.0139 10.552C98.9499 10.1147 98.7045 9.74667 98.2779 9.448C97.8512 9.14933 97.2965 9 96.6139 9C95.9205 9 95.3552 9.13333 94.9179 9.4C94.4912 9.66667 94.2779 10.0827 94.2779 10.648C94.2779 11.0107 94.3792 11.3147 94.5819 11.56C94.7845 11.7947 95.1045 12.0027 95.5419 12.184C95.9792 12.3653 96.5499 12.5573 97.2539 12.76C98.1072 12.9947 98.8059 13.2453 99.3499 13.512C99.8939 13.768 100.294 14.0933 100.55 14.488C100.817 14.872 100.95 15.368 100.95 15.976C100.95 16.648 100.774 17.224 100.422 17.704C100.07 18.1733 99.5739 18.536 98.9339 18.792C98.3045 19.0373 97.5579 19.16 96.6939 19.16ZM105.607 19C105.01 19 104.524 18.888 104.151 18.664C103.778 18.4293 103.506 18.104 103.335 17.688C103.164 17.2613 103.079 16.76 103.079 16.184V11.96H101.831C101.724 11.96 101.634 11.928 101.559 11.864C101.495 11.7893 101.463 11.6987 101.463 11.592V11.048C101.463 10.9413 101.495 10.856 101.559 10.792C101.634 10.7173 101.724 10.68 101.831 10.68H103.079V8.008C103.079 7.90133 103.111 7.816 103.175 7.752C103.25 7.67733 103.34 7.64 103.447 7.64H104.199C104.306 7.64 104.391 7.67733 104.455 7.752C104.53 7.816 104.567 7.90133 104.567 8.008V10.68H106.551C106.658 10.68 106.743 10.7173 106.807 10.792C106.882 10.856 106.919 10.9413 106.919 11.048V11.592C106.919 11.6987 106.882 11.7893 106.807 11.864C106.743 11.928 106.658 11.96 106.551 11.96H104.567V16.072C104.567 16.5733 104.652 16.968 104.823 17.256C104.994 17.544 105.298 17.688 105.735 17.688H106.711C106.818 17.688 106.903 17.7253 106.967 17.8C107.042 17.864 107.079 17.9493 107.079 18.056V18.632C107.079 18.7387 107.042 18.8293 106.967 18.904C106.903 18.968 106.818 19 106.711 19H105.607ZM111.233 19.16C110.55 19.16 109.969 19.0107 109.489 18.712C109.02 18.4027 108.662 17.976 108.417 17.432C108.172 16.888 108.049 16.264 108.049 15.56V11.048C108.049 10.9413 108.081 10.856 108.145 10.792C108.22 10.7173 108.31 10.68 108.417 10.68H109.217C109.324 10.68 109.409 10.7173 109.473 10.792C109.548 10.856 109.585 10.9413 109.585 11.048V15.48C109.585 17.0693 110.278 17.864 111.665 17.864C112.326 17.864 112.854 17.656 113.249 17.24C113.654 16.8133 113.857 16.2267 113.857 15.48V11.048C113.857 10.9413 113.889 10.856 113.953 10.792C114.028 10.7173 114.118 10.68 114.225 10.68H115.009C115.126 10.68 115.217 10.7173 115.281 10.792C115.345 10.856 115.377 10.9413 115.377 11.048V18.632C115.377 18.7387 115.345 18.8293 115.281 18.904C115.217 18.968 115.126 19 115.009 19H114.273C114.166 19 114.076 18.968 114.001 18.904C113.937 18.8293 113.905 18.7387 113.905 18.632V17.928C113.617 18.3013 113.265 18.6 112.849 18.824C112.444 19.048 111.905 19.16 111.233 19.16ZM120.314 19.16C119.727 19.16 119.221 19.0587 118.794 18.856C118.367 18.6427 118.015 18.36 117.738 18.008C117.471 17.6453 117.269 17.2347 117.13 16.776C117.002 16.3173 116.927 15.832 116.906 15.32C116.895 15.1493 116.89 14.9893 116.89 14.84C116.89 14.6907 116.895 14.5307 116.906 14.36C116.927 13.8587 117.002 13.3787 117.13 12.92C117.269 12.4613 117.471 12.0507 117.738 11.688C118.015 11.3253 118.367 11.0427 118.794 10.84C119.221 10.6267 119.727 10.52 120.314 10.52C120.943 10.52 121.466 10.632 121.882 10.856C122.298 11.08 122.639 11.3573 122.906 11.688V8.008C122.906 7.90133 122.938 7.816 123.002 7.752C123.077 7.67733 123.167 7.64 123.274 7.64H124.042C124.149 7.64 124.234 7.67733 124.298 7.752C124.373 7.816 124.41 7.90133 124.41 8.008V18.632C124.41 18.7387 124.373 18.8293 124.298 18.904C124.234 18.968 124.149 19 124.042 19H123.322C123.205 19 123.114 18.968 123.05 18.904C122.986 18.8293 122.954 18.7387 122.954 18.632V17.96C122.687 18.3013 122.341 18.5893 121.914 18.824C121.487 19.048 120.954 19.16 120.314 19.16ZM120.65 17.864C121.183 17.864 121.61 17.7413 121.93 17.496C122.25 17.2507 122.49 16.9413 122.65 16.568C122.81 16.184 122.895 15.7947 122.906 15.4C122.917 15.2293 122.922 15.0267 122.922 14.792C122.922 14.5467 122.917 14.3387 122.906 14.168C122.895 13.7947 122.805 13.4267 122.634 13.064C122.474 12.7013 122.229 12.4027 121.898 12.168C121.578 11.9333 121.162 11.816 120.65 11.816C120.106 11.816 119.674 11.9387 119.354 12.184C119.034 12.4187 118.805 12.7333 118.666 13.128C118.527 13.512 118.447 13.928 118.426 14.376C118.415 14.6853 118.415 14.9947 118.426 15.304C118.447 15.752 118.527 16.1733 118.666 16.568C118.805 16.952 119.034 17.2667 119.354 17.512C119.674 17.7467 120.106 17.864 120.65 17.864ZM126.678 19C126.571 19 126.48 18.968 126.406 18.904C126.342 18.8293 126.31 18.7387 126.31 18.632V11.048C126.31 10.9413 126.342 10.856 126.406 10.792C126.48 10.7173 126.571 10.68 126.678 10.68H127.446C127.552 10.68 127.638 10.7173 127.702 10.792C127.766 10.856 127.798 10.9413 127.798 11.048V18.632C127.798 18.7387 127.766 18.8293 127.702 18.904C127.638 18.968 127.552 19 127.446 19H126.678ZM126.55 9.128C126.443 9.128 126.352 9.096 126.278 9.032C126.214 8.95733 126.182 8.86667 126.182 8.76V7.896C126.182 7.78933 126.214 7.704 126.278 7.64C126.352 7.56533 126.443 7.528 126.55 7.528H127.558C127.664 7.528 127.75 7.56533 127.814 7.64C127.888 7.704 127.926 7.78933 127.926 7.896V8.76C127.926 8.86667 127.888 8.95733 127.814 9.032C127.75 9.096 127.664 9.128 127.558 9.128H126.55ZM133.113 19.16C132.302 19.16 131.625 19.0053 131.081 18.696C130.537 18.3867 130.121 17.96 129.833 17.416C129.545 16.8613 129.385 16.232 129.353 15.528C129.342 15.3467 129.337 15.1173 129.337 14.84C129.337 14.552 129.342 14.3227 129.353 14.152C129.385 13.4373 129.545 12.808 129.833 12.264C130.131 11.72 130.553 11.2933 131.097 10.984C131.641 10.6747 132.313 10.52 133.113 10.52C133.913 10.52 134.585 10.6747 135.129 10.984C135.673 11.2933 136.089 11.72 136.377 12.264C136.675 12.808 136.841 13.4373 136.873 14.152C136.883 14.3227 136.889 14.552 136.889 14.84C136.889 15.1173 136.883 15.3467 136.873 15.528C136.841 16.232 136.681 16.8613 136.393 17.416C136.105 17.96 135.689 18.3867 135.145 18.696C134.601 19.0053 133.923 19.16 133.113 19.16ZM133.113 17.928C133.774 17.928 134.302 17.72 134.697 17.304C135.091 16.8773 135.305 16.2587 135.337 15.448C135.347 15.288 135.353 15.0853 135.353 14.84C135.353 14.5947 135.347 14.392 135.337 14.232C135.305 13.4213 135.091 12.808 134.697 12.392C134.302 11.9653 133.774 11.752 133.113 11.752C132.451 11.752 131.918 11.9653 131.513 12.392C131.118 12.808 130.91 13.4213 130.889 14.232C130.878 14.392 130.873 14.5947 130.873 14.84C130.873 15.0853 130.878 15.288 130.889 15.448C130.91 16.2587 131.118 16.8773 131.513 17.304C131.918 17.72 132.451 17.928 133.113 17.928Z" fill="white"/>
<g clip-path="url(#clip0_789_913)">
<path d="M9.14286 8H7.42857C5.53502 8 4 9.43269 4 11.2V16.8C4 18.5673 5.53502 20 7.42857 20H9.14286C11.0364 20 12.5714 18.5673 12.5714 16.8V11.2C12.5714 9.43269 11.0364 8 9.14286 8Z" fill="white"/>
<path d="M20.5716 4H18.8573C16.9637 4 15.4287 5.43269 15.4287 7.2V16.8C15.4287 18.5673 16.9637 20 18.8573 20H20.5716C22.4651 20 24.0001 18.5673 24.0001 16.8V7.2C24.0001 5.43269 22.4651 4 20.5716 4Z" fill="white"/>
</g>
<defs>
<clipPath id="clip0_789_913">
<rect width="20" height="16" fill="white" transform="translate(4 4)"/>
</clipPath>
</defs>
</svg>
