<svg width="153" height="108" viewBox="0 0 153 108" fill="none" xmlns="http://www.w3.org/2000/svg">
<path d="M96.2046 58.363C95.8347 58.3771 95.198 58.4662 94.6549 58.8833C94.4208 59.0661 94.3038 59.2302 94.2804 59.2677C94.0978 59.5349 94.1165 59.8677 94.0463 60.5146C94.0416 60.5614 94.0369 60.5989 94.0322 60.6224" stroke="#5EEDBE" stroke-width="0.5" stroke-miterlimit="10"/>
<path d="M129.605 14.2029C129.558 13.8795 129.628 13.4201 129.212 13.3029C128.771 13.1811 128.565 13.6123 128.331 13.8842C127.699 14.6201 127.044 15.3279 126.318 15.9748C124.071 17.9763 121.543 19.5466 118.851 20.8637C111.584 24.4262 103.841 26.3527 95.8722 27.4871C93.4236 27.8339 90.9656 28.0917 88.4983 28.2183C85.8671 28.3542 83.2359 28.4902 80.6 28.3542C78.0484 28.223 75.5014 28.073 72.9498 28.0261C68.8064 27.9558 64.6817 28.3074 60.5851 28.9402C56.2825 29.6058 52.022 30.4776 47.8786 31.8604C43.6603 33.2713 39.6245 35.0807 35.7667 37.3025C29.5117 40.9071 24.2821 45.693 19.6752 51.2053C14.9184 56.8959 11.098 63.1723 8.01269 69.9081C7.70837 70.569 7.42279 71.2347 7.15125 71.9096C7.07165 72.1018 7.00139 72.3456 7.23549 72.4909C7.42276 72.6081 7.59598 72.4674 7.75048 72.3596C7.88157 72.2659 8.00333 72.1628 8.13442 72.0643C8.86479 71.5159 9.59045 70.9581 10.3302 70.4237C16.028 66.3269 22.1378 62.9614 28.5332 60.1021C37.9437 55.8974 47.7053 52.8272 57.8556 51.0085C62.5187 50.1741 67.2099 49.6491 71.9432 49.4991C72.299 49.4898 72.6408 49.4991 72.9545 49.6913C73.4461 49.996 73.4976 50.5116 73.0622 50.896C72.8609 51.0788 72.6081 51.1772 72.3459 51.2522C71.9339 51.3741 71.5219 51.496 71.1099 51.6225C62.7622 54.2334 54.6439 57.4302 46.7643 61.227C38.3932 65.2629 30.3779 69.9034 22.8916 75.4346C17.7088 79.2642 12.8584 83.4641 8.62598 88.3484C6.00883 91.3671 3.70072 94.5967 1.99185 98.2341C1.44407 99.406 0.994608 100.615 0.582606 101.839C0.432787 102.284 0.577905 102.443 1.03204 102.401C1.16314 102.387 1.29421 102.345 1.4253 102.322C4.93669 101.642 8.47149 101.136 12.0297 100.822C15.7564 100.493 19.4926 100.54 23.2193 100.915C27.3534 101.328 31.3844 102.181 35.2797 103.648C36.7358 104.197 38.2152 104.698 39.7041 105.153C43.2342 106.231 46.8486 106.906 50.5004 107.389C52.7102 107.679 54.9248 107.961 57.1674 107.853C59.7471 107.731 62.3174 107.506 64.855 107.051C75.1831 105.2 84.5983 101.159 93.0818 95.0045C99.7721 90.153 105.395 84.2 110.461 77.6986C110.774 77.2955 111.112 76.9111 111.392 76.4845C111.739 75.9596 111.566 75.5002 110.985 75.2564C110.676 75.1299 110.353 75.1393 110.035 75.1393C107.291 75.144 104.552 75.1533 101.809 75.1533C99.6598 75.1533 97.5061 75.158 95.3571 75.1393C94.5238 75.1299 94.3693 74.9518 94.3693 74.1315C94.3646 69.8237 94.3646 65.5207 94.3646 61.213C94.3646 60.702 94.3693 60.1911 94.3786 59.6802C94.3974 58.9677 94.5659 58.8036 95.3009 58.7755C95.4367 58.7708 95.5678 58.7755 95.7036 58.7755C98.096 58.7755 100.488 58.7755 102.881 58.7755C102.881 58.7474 102.881 58.7193 102.881 58.6911C105.353 58.6911 107.825 58.7005 110.297 58.6865C111.364 58.6818 111.753 58.2833 111.758 57.224C111.772 54.5615 111.776 51.8944 111.786 49.2319C111.79 48.2663 111.898 48.1351 112.825 48.1304C116.051 48.1163 119.277 48.107 122.503 48.0976C123.284 48.0976 124.062 48.1257 124.839 48.107C125.859 48.0835 126.318 47.7414 126.594 46.7804C127.035 45.257 127.479 43.7336 127.868 42.1961C129.165 37.0447 129.956 31.8182 130.199 26.5027C130.415 22.3872 130.181 18.2857 129.605 14.2029ZM89.2239 77.1549C89.2192 78.0501 89.2239 78.9454 89.2239 79.8361C89.2239 80.7642 89.2192 81.697 89.2286 82.6251C89.2286 82.7516 89.2239 82.8735 89.2192 83.0001C89.2192 83.0329 89.2286 83.0657 89.2286 83.0985C89.2286 83.3704 89.2286 83.6422 89.2286 83.9094C89.2286 84.1906 89.2239 84.4719 89.2286 84.7531C89.2286 84.8891 89.2099 85.025 89.1537 85.1563C89.0366 85.4281 88.6575 85.5641 88.1424 85.6297C87.8569 85.6625 87.5619 85.6766 87.2669 85.6766C86.2182 85.6766 85.1648 85.6766 84.116 85.6766C84.0926 85.6766 84.0646 85.6766 84.0412 85.6766C81.6909 85.6812 79.3406 85.6812 76.995 85.6766C76.9715 85.6766 76.9434 85.6766 76.92 85.6766C75.8713 85.6766 74.8179 85.6766 73.7692 85.6766C73.4976 85.6766 73.2214 85.6625 72.9545 85.6344C72.2148 85.55 71.8964 85.3672 71.8309 84.9922C71.8121 84.8797 71.8028 84.7719 71.8028 84.6594C71.8028 84.1297 71.8028 83.5954 71.8028 83.0657C71.8028 83.0047 71.8075 82.9438 71.8216 82.8829C71.8122 82.6907 71.8028 82.5032 71.8028 82.311C71.8075 80.5579 71.8075 78.8048 71.8028 77.0517C71.8028 76.9533 71.8169 76.8595 71.8216 76.7611C71.8122 76.6767 71.8028 76.597 71.8028 76.5127C71.8028 75.983 71.8028 75.4486 71.8028 74.919C71.8028 74.7924 71.8262 74.6658 71.873 74.5393C71.976 74.2533 72.3552 74.108 72.8937 74.0424C73.1746 74.0096 73.4648 73.9955 73.7551 73.9955C74.8179 73.9955 75.8807 73.9955 76.9388 73.9955C76.9669 73.9955 76.9903 73.9955 77.0137 73.9955C79.3359 73.9908 81.6534 73.9908 83.9756 73.9955C84.0177 73.9955 84.0646 73.9909 84.1067 73.9909C85.1695 73.9909 86.2275 73.9909 87.2903 73.9909C87.6134 73.9909 87.9318 74.0096 88.2454 74.0518C88.8307 74.1315 89.1397 74.3237 89.2006 74.619C89.224 74.7268 89.238 74.8346 89.2333 74.9424C89.2333 75.2143 89.2333 75.4861 89.2333 75.7533C89.2333 76.0346 89.2286 76.3158 89.2333 76.597C89.2333 76.6674 89.2286 76.733 89.2192 76.7986C89.2146 76.9299 89.2239 77.0424 89.2239 77.1549ZM106.612 44.3711C106.612 44.3758 106.612 44.3805 106.612 44.3852C106.612 44.6055 106.612 44.8258 106.612 45.0508C106.612 45.332 106.608 45.6133 106.612 45.8945C106.612 46.0304 106.594 46.1664 106.537 46.2976C106.42 46.5695 106.041 46.7054 105.526 46.7711C105.241 46.8039 104.946 46.8179 104.651 46.8179C103.602 46.8179 102.548 46.8179 101.5 46.8179C101.481 46.8179 101.462 46.8179 101.444 46.8179C100.62 46.8179 99.7956 46.8179 98.9716 46.8179C98.9528 46.8179 98.9341 46.8179 98.9154 46.8179C97.8666 46.8179 96.8132 46.8179 95.7644 46.8179C95.4929 46.8179 95.2167 46.8039 94.9498 46.7757C94.2101 46.6914 93.8918 46.5086 93.8262 46.1336C93.8075 46.0211 93.7981 45.9133 93.7981 45.8008C93.7981 45.2711 93.7981 44.7367 93.7981 44.207C93.7981 44.2024 93.7981 44.193 93.7981 44.1883C93.7981 44.1649 93.7981 44.1414 93.7981 44.1227C93.7981 42.7164 93.7981 41.3149 93.7981 39.9087C93.7981 39.4024 93.7981 38.8962 93.7981 38.3853C93.7981 38.2587 93.8215 38.1322 93.8683 38.0056C93.9713 37.7197 94.3505 37.5744 94.8889 37.5087C95.1699 37.4759 95.4602 37.4619 95.7504 37.4619C96.8132 37.4619 97.876 37.4619 98.9341 37.4619C98.9528 37.4619 98.9715 37.4619 98.9949 37.4619C99.7955 37.4619 100.596 37.4619 101.397 37.4619C101.425 37.4619 101.458 37.4619 101.486 37.4572C102.548 37.4572 103.611 37.4572 104.669 37.4572C104.992 37.4572 105.311 37.4759 105.624 37.5181C106.21 37.5978 106.519 37.79 106.58 38.0853C106.603 38.1931 106.617 38.3009 106.612 38.4087C106.612 38.6806 106.612 38.9525 106.612 39.2196C106.612 39.5009 106.608 39.7821 106.612 40.0634C106.612 40.0681 106.612 40.0774 106.612 40.0821C106.612 40.7665 106.612 41.4462 106.612 42.1305C106.608 42.8852 106.603 43.6305 106.612 44.3711ZM116.177 36.0088C116.06 36.2806 115.681 36.4166 115.166 36.4822C114.88 36.515 114.585 36.5291 114.291 36.5291C113.242 36.5291 112.188 36.5291 111.14 36.5291C110.868 36.5291 110.592 36.515 110.325 36.4869C109.585 36.4025 109.267 36.2197 109.201 35.8447C109.183 35.7322 109.173 35.6244 109.173 35.5119C109.173 34.9822 109.173 34.4479 109.173 33.9182C109.173 33.7916 109.197 33.6651 109.243 33.5385C109.346 33.2526 109.726 33.1073 110.264 33.0416C110.545 33.0088 110.835 32.9948 111.126 32.9948C112.188 32.9948 113.251 32.9948 114.309 32.9948C114.632 32.9948 114.951 33.0135 115.264 33.0557C115.85 33.1354 116.159 33.3276 116.219 33.6229C116.243 33.7307 116.257 33.8385 116.252 33.9463C116.252 34.2182 116.252 34.49 116.252 34.7572C116.252 35.0385 116.248 35.3197 116.252 35.601C116.257 35.7416 116.234 35.8775 116.177 36.0088Z" fill="#5EEDBE"/>
<path d="M133.921 68.7316C133.921 68.7175 133.921 68.7081 133.921 68.6941C133.912 67.5972 133.917 66.5004 133.917 65.4082C133.917 64.3535 133.917 63.2989 133.917 62.2442C133.917 62.2301 133.917 62.2161 133.917 62.1973C133.917 62.1786 133.921 62.1551 133.921 62.1364C133.917 61.7473 133.921 61.3583 133.921 60.9645C133.921 60.5895 133.921 60.2146 133.921 59.8396C133.921 59.6896 133.907 59.5396 133.889 59.3896C133.828 58.9771 133.514 58.7146 132.934 58.6021C132.62 58.5411 132.302 58.5177 131.979 58.5177C130.916 58.513 129.853 58.5177 128.795 58.5177C128.762 58.5177 128.725 58.5224 128.692 58.5224C126.697 58.5177 124.698 58.5177 122.704 58.5224C122.685 58.5224 122.662 58.5177 122.643 58.5177C121.58 58.513 120.517 58.5177 119.459 58.5177C119.169 58.5177 118.879 58.5365 118.598 58.5833C118.059 58.6724 117.68 58.874 117.577 59.2724C117.53 59.4458 117.507 59.6239 117.507 59.7974C117.507 60.5333 117.507 61.2692 117.507 62.0051C117.507 62.0239 117.512 62.0426 117.512 62.0614C117.512 62.0801 117.507 62.0989 117.507 62.1176C117.512 64.1848 117.512 66.2519 117.507 68.3191C117.507 68.4081 117.512 68.4972 117.512 68.5816C117.512 68.6097 117.507 68.6425 117.507 68.6706C117.507 69.4066 117.507 70.1425 117.507 70.8784C117.507 71.0331 117.516 71.1878 117.535 71.3425C117.601 71.8628 117.919 72.1206 118.659 72.2331C118.926 72.2753 119.197 72.2893 119.473 72.2893C120.522 72.2893 121.575 72.2893 122.624 72.2893C122.643 72.2893 122.666 72.2893 122.685 72.2893C124.708 72.294 126.73 72.294 128.753 72.2893C128.771 72.2893 128.79 72.2893 128.814 72.2893C129.862 72.2893 130.916 72.2893 131.964 72.2893C132.259 72.2893 132.554 72.2706 132.84 72.2237C133.355 72.1346 133.734 71.9471 133.851 71.5675C133.907 71.3846 133.926 71.1972 133.926 71.0097C133.921 70.6206 133.926 70.2316 133.926 69.8378C133.921 69.4722 133.921 69.1019 133.921 68.7316Z" fill="#5EEDBE"/>
<path d="M149.587 25.4152C149.582 25.134 149.587 24.8574 149.587 24.5762C149.587 24.3605 149.587 24.1449 149.587 23.9246C149.587 23.9199 149.587 23.9152 149.587 23.9152C149.587 23.7793 149.587 23.6434 149.587 23.5074C149.587 23.3949 149.587 23.2824 149.587 23.1699C149.587 23.1606 149.587 23.1465 149.587 23.1371C149.582 22.7481 149.587 22.359 149.587 21.9653C149.587 21.5903 149.587 21.2153 149.587 20.8403C149.587 20.6903 149.573 20.5403 149.554 20.3903C149.493 19.9778 149.18 19.7153 148.599 19.6028C148.285 19.5419 147.967 19.5184 147.644 19.5184C146.581 19.5138 145.518 19.5184 144.46 19.5184C144.446 19.5184 144.432 19.5184 144.423 19.5184C143.604 19.5184 142.784 19.5184 141.97 19.5184C141.965 19.5184 141.956 19.5184 141.951 19.5184C140.888 19.5138 139.825 19.5184 138.767 19.5184C138.477 19.5184 138.187 19.5372 137.906 19.5841C137.367 19.6731 136.988 19.8747 136.885 20.2731C136.838 20.4465 136.815 20.6247 136.815 20.7981C136.815 21.0653 136.815 21.3372 136.815 21.6043C136.815 22.3637 136.815 23.1231 136.815 23.8824C136.815 24.6183 136.815 25.3543 136.815 26.0902C136.815 26.2449 136.824 26.3996 136.843 26.5542C136.908 27.0745 137.227 27.3324 137.967 27.4449C138.233 27.487 138.505 27.5011 138.781 27.5011C139.83 27.5011 140.883 27.5011 141.932 27.5011C141.942 27.5011 141.946 27.5011 141.956 27.5011C142.789 27.5011 143.622 27.5011 144.46 27.5011C144.47 27.5011 144.474 27.5011 144.479 27.5011C145.528 27.5011 146.581 27.5011 147.63 27.5011C147.925 27.5011 148.22 27.4824 148.505 27.4355C149.02 27.3464 149.4 27.1589 149.517 26.7792C149.573 26.5964 149.592 26.4089 149.592 26.2214C149.587 25.9543 149.592 25.6918 149.592 25.4246C149.587 25.4246 149.587 25.4199 149.587 25.4152Z" fill="#5EEDBE"/>
<path d="M153 2.68597C153 3.11252 152.995 3.53908 153 3.96563C153 4.17188 152.981 4.37812 152.92 4.57968C152.794 4.99217 152.377 5.20311 151.816 5.29686C151.502 5.34842 151.179 5.37185 150.856 5.37185C149.704 5.37185 148.552 5.37185 147.405 5.37185C147.106 5.37185 146.806 5.3531 146.516 5.30623C145.706 5.17967 145.355 4.89843 145.284 4.33125C145.261 4.1625 145.256 3.99376 145.256 3.82501C145.256 3.01877 145.256 2.21254 145.256 1.4063C145.256 1.21412 145.284 1.02194 145.331 0.829753C145.444 0.398511 145.86 0.178203 146.45 0.0797674C146.759 0.0282059 147.077 0.00476884 147.391 0.00476884C148.552 0.00476884 149.718 8.14302e-05 150.879 0.00476884C151.23 0.00476884 151.581 0.0328933 151.923 0.098517C152.565 0.22039 152.902 0.511009 152.972 0.961C152.995 1.12506 153.009 1.28912 153.009 1.45318C153 1.86567 153 2.27348 153 2.68597Z" fill="#5EEDBE"/>
</svg>
